<svg width="325" height="630" viewBox="0 0 325 630" fill="none" xmlns="http://www.w3.org/2000/svg">
<g clip-path="url(#clip0_97_156)">
<path style="mix-blend-mode:screen" opacity="0.39" d="M274.798 441.378C280.797 426.544 284.815 415.415 265.301 387.86C245.773 360.304 259.548 352.88 281.91 329.259C304.257 305.638 280.32 283.992 261.557 269.923C242.795 255.855 222.284 243.195 222.284 243.195C244.544 267.566 244.804 278.695 229.295 275.786C213.785 272.878 210.084 253.528 193.779 227.09C178.877 202.918 168.686 200.79 168.686 200.79C168.686 200.79 195.384 233.014 175.118 243.501C154.853 253.987 120.191 245.598 106.936 216.42C97.9448 196.641 117.198 189.921 106.936 185.956C96.6728 181.991 80.6714 195.754 72.1576 196.81C63.6583 197.866 56.8935 185.941 68.1537 169.79C79.4139 153.625 81.4086 144.47 81.4086 144.47C81.4086 144.47 78.6622 150.976 67.8935 158.615C57.1247 166.254 29.6175 170.847 27.6083 201.862C25.6135 232.861 62.3863 242.934 69.6425 252.211C76.8988 261.488 68.6307 290.804 68.6307 290.804C86.8725 258.059 91.9172 291.156 91.3101 318.527C90.703 345.884 68.3994 355.283 54.8987 334.28C41.398 313.277 59.7555 299.423 59.7555 299.423C59.7555 299.423 43.1471 307.23 37.1194 323.656C31.0774 340.082 47.3823 354.747 65.1471 366.933C82.9119 379.118 68.9053 396.616 45.0551 418.599C21.2193 440.597 -5.66644 468.673 10.1036 512.057C25.8592 555.441 69.6425 575.725 80.021 589.028L248.852 576.444C248.852 576.444 286.564 512.394 284.381 487.319C282.184 462.243 268.814 456.227 274.798 441.393V441.378ZM70.5821 235.892C55.3902 247.818 23.8645 220.982 36.0498 209.256C48.2496 197.529 81.77 227.105 70.5821 235.892ZM43.5662 522.865C17.1142 522.482 -2.21177 480.032 21.0458 456.533C44.3179 433.035 59.1339 459.947 61.9526 481.869C64.7713 503.791 57.0669 523.064 43.5662 522.865ZM127.259 299.698C97.2365 277.44 80.1511 240.225 100.431 237.484C122.691 234.484 168.729 282.001 175.306 296.315C181.869 310.628 157.296 321.957 127.273 299.698H127.259ZM148.16 253.191C147.64 247.037 187.304 261.534 197.061 278.833C206.818 296.116 150.488 281.022 148.16 253.191ZM249.791 371.832C237.404 380.175 171.36 337.418 204.563 319.752C221.301 310.858 262.165 363.488 249.791 371.832Z" fill="url(#paint0_linear_97_156)"/>
<path d="M155.402 334.54C210.475 328.401 265.301 426.636 265.287 504.219C265.272 567.596 230.885 633.836 159.883 629.243C-12.9804 618.084 69.657 344.093 155.402 334.54Z" fill="url(#paint1_linear_97_156)"/>
<path style="mix-blend-mode:multiply" opacity="0.67" d="M160.244 621.559C215.743 621.559 260.733 573.911 260.733 515.134C260.733 456.358 215.743 408.71 160.244 408.71C104.746 408.71 59.7554 456.358 59.7554 515.134C59.7554 573.911 104.746 621.559 160.244 621.559Z" fill="url(#paint2_radial_97_156)"/>
<path style="mix-blend-mode:multiply" opacity="0.75" d="M155.402 334.54C210.475 328.401 265.301 426.636 265.287 504.219C265.272 567.596 230.885 633.836 159.883 629.243C-12.9804 618.084 69.657 344.093 155.402 334.54Z" fill="url(#paint3_linear_97_156)"/>
<g style="mix-blend-mode:screen">
<path d="M150.213 615.604C150.213 615.604 95.5309 611.914 88.159 554.002C80.7871 496.09 104.84 480.078 112.197 500.607C119.569 521.135 130.815 533.183 137.016 531.468C143.217 529.769 134.298 506.347 127.317 497.729C120.335 489.11 120.725 482.527 128.863 482.941C137.001 483.354 146.31 496.091 150.199 488.069C154.072 480.063 138.953 470.204 128.488 465.076C118.022 459.947 108.121 452.553 123.645 437.153C139.155 421.753 175.812 418.262 207.222 432.836C238.632 447.41 241.74 471.857 242.13 488.697C242.521 505.536 242.911 527.105 234.368 524.84C225.84 522.574 219.827 493.427 204.317 486.645C188.807 479.863 186.277 489.11 189.573 497.729C192.869 506.347 206.051 519.084 221.561 525.039C237.071 530.994 253.94 538.388 247.349 556.054C240.757 573.72 224.279 593.636 204.302 590.758C184.326 587.88 173.659 568.576 166.691 561.396C159.71 554.201 154.275 557.493 156.024 563.662C157.773 569.816 165.333 579.889 173.861 588.921C182.389 597.953 183.748 610.889 174.049 612.542C164.35 614.18 149.418 603.923 141.858 597.754C134.298 591.6 132.94 608.638 150.199 615.619L150.213 615.604Z" fill="url(#paint4_linear_97_156)"/>
<path d="M184.861 604.597C182.172 594.784 186.335 590.283 197.263 595.351C208.191 600.418 211.674 593.422 214.392 600.096C217.109 606.771 212.643 611.7 202.756 612.925C192.869 614.149 186.133 609.189 184.861 604.582V604.597Z" fill="url(#paint5_linear_97_156)"/>
<path d="M180.756 614.945C178.588 609.985 183.95 608.623 188.605 612.481C193.259 616.338 183.517 621.252 180.756 614.945Z" fill="url(#paint6_linear_97_156)"/>
<path d="M159.088 625.263C152.28 621.911 150.95 615.94 159.088 617.211C167.226 618.482 171.88 631.57 159.088 625.263Z" fill="url(#paint7_linear_97_156)"/>
<path d="M97.7136 489.875C102.426 484.594 95.0973 480.17 92.3365 484.333C89.5756 488.497 92.7701 495.417 97.7136 489.875Z" fill="url(#paint8_linear_97_156)"/>
<path d="M98.581 478.792C93.4351 474.184 90.8767 464.157 94.3602 456.763C97.8438 449.369 103.38 450.915 107.456 459.84C111.532 468.765 119.959 466.162 118.369 475.853C116.765 485.558 110.81 489.722 98.5955 478.776L98.581 478.792Z" fill="url(#paint9_linear_97_156)"/>
<path d="M184.138 415.798C182.837 408.25 198.882 411.282 200.327 415.798C201.773 420.314 185.396 423.084 184.138 415.798Z" fill="url(#paint10_linear_97_156)"/>
<path d="M209.26 420.283C211.906 416.884 219.639 415.384 227.777 424.416C235.915 433.448 229.916 439.22 225.638 434.076C217.702 424.523 205.676 424.875 209.26 420.283Z" fill="url(#paint11_linear_97_156)"/>
<path d="M232.908 439.097C235.525 435.959 240.28 444.026 237.461 447.318C234.643 450.609 230.668 441.776 232.908 439.097Z" fill="url(#paint12_linear_97_156)"/>
<path d="M250.37 496.703C247.623 495.402 249.112 488.896 250.948 488.896C252.784 488.896 254.735 498.754 250.37 496.703Z" fill="url(#paint13_linear_97_156)"/>
<path d="M251.627 507.174C254.677 510.358 256.816 520.722 253.015 526.677C249.213 532.632 245.773 536 244.01 531.147C243.272 529.111 246.395 526.677 246.496 519.084C246.611 510.251 248.36 503.775 251.627 507.174Z" fill="url(#paint14_linear_97_156)"/>
</g>
<path style="mix-blend-mode:screen" d="M147.886 531.468C147.886 531.468 141.482 521.288 144.243 508.046C147.004 494.804 160.36 497.33 165.477 506.255C173.326 519.956 181.132 526.217 188.316 527.457C205.329 530.397 216.531 523.921 220.752 540.087C224.973 556.253 217.702 577.057 194.285 563.8C170.869 550.558 161.994 525.758 158.076 515.899C154.145 506.041 142.364 508.062 147.9 531.468H147.886Z" fill="url(#paint15_linear_97_156)"/>
<path style="mix-blend-mode:screen" d="M237.621 557.34C242.911 551.155 237.621 538.556 231.362 539.169C225.103 539.781 230.495 565.667 237.621 557.34Z" fill="url(#paint16_linear_97_156)"/>
<path style="mix-blend-mode:screen" d="M227.141 563.494C229.165 561.35 228.63 555.487 225.623 555.487C222.617 555.487 223.065 567.811 227.141 563.494Z" fill="url(#paint17_linear_97_156)"/>
<path style="mix-blend-mode:screen" d="M228.601 504.051C231.188 499.321 225.175 493.427 223.686 495.892C222.197 498.356 226.577 507.756 228.601 504.051Z" fill="url(#paint18_linear_97_156)"/>
<path style="mix-blend-mode:screen" d="M219.437 488.895C222.111 486.293 218.425 478.011 216.098 479.251C213.77 480.491 216.965 491.314 219.437 488.895Z" fill="url(#paint19_linear_97_156)"/>
<path style="mix-blend-mode:screen" d="M210.489 474.046C213.785 467.341 204.75 451.987 199.518 452.921C194.285 453.854 193.852 461.141 198.94 468.688C204.028 476.235 208.61 477.873 210.489 474.062V474.046Z" fill="url(#paint20_linear_97_156)"/>
<path style="mix-blend-mode:screen" d="M193.548 454.758C195.615 447.379 182.346 438.806 163.728 438.393C145.11 437.98 140.456 442.128 145.4 456.151C150.343 470.173 161.979 479.098 161.979 472.47C161.979 465.841 158.973 457.528 168.542 458.6C178.111 459.672 189.602 468.765 193.534 454.742L193.548 454.758Z" fill="url(#paint21_linear_97_156)"/>
<path style="mix-blend-mode:screen" d="M178.429 502.811C181.956 500.729 197.914 517.139 190.932 522.834C183.95 528.529 173.196 505.888 178.429 502.811Z" fill="url(#paint22_linear_97_156)"/>
<path style="mix-blend-mode:screen" d="M156.024 546.409C159.305 545.123 152.829 536.245 151.37 536.091C149.91 535.938 150.936 548.415 156.024 546.409Z" fill="url(#paint23_linear_97_156)"/>
<path style="mix-blend-mode:screen" d="M141.771 559.957C144.735 557.217 140.904 540.409 136.973 543.945C133.041 547.481 138.288 563.187 141.771 559.957Z" fill="url(#paint24_linear_97_156)"/>
<path style="mix-blend-mode:screen" d="M99.8962 511.445C102.151 514.568 106.011 504.923 103.539 502.642C101.067 500.361 96.5572 506.822 99.8962 511.445Z" fill="url(#paint25_linear_97_156)"/>
<path style="mix-blend-mode:screen" d="M109.494 515.287C115.638 513.435 120.697 527.886 125.64 546.624C130.584 565.346 153.278 579.522 148.334 586.763C143.391 594.003 124.917 592.886 113.571 565.821C102.224 538.74 105.433 516.527 109.494 515.303V515.287Z" fill="url(#paint26_linear_97_156)"/>
<path style="mix-blend-mode:multiply" opacity="0.75" d="M159.883 629.228C230.87 633.806 265.272 567.581 265.287 504.204C265.301 433.295 219.494 345.164 169.553 335.229C186.668 339.623 240.858 371.74 221.923 472.715C202.799 574.623 68.1824 597.417 59.1193 524.855L59.0615 524.993C63.0366 579.124 91.3967 624.789 159.883 629.213V629.228Z" fill="url(#paint27_linear_97_156)"/>
<path style="mix-blend-mode:screen" d="M169.553 335.229C164.855 334.295 160.129 334.004 155.402 334.525C103.625 340.296 53.0051 442.48 59.0616 525.008L59.1194 524.87C63.3113 558.472 94.4611 571.592 128.589 565.897C72.6201 567.367 108.757 472.255 159.348 420.635C204.158 374.909 222.082 397.519 225.233 418.66C220.029 359.723 183.141 338.735 169.553 335.244V335.229Z" fill="url(#paint28_linear_97_156)"/>
<path style="mix-blend-mode:screen" d="M100.518 378.123C137.103 318.742 184.846 325.309 208.032 389.681C231.217 454.053 132.448 563.647 94.201 526.325C55.9539 488.987 74.1813 420.895 100.532 378.123H100.518Z" fill="url(#paint29_linear_97_156)"/>
<g style="mix-blend-mode:screen">
<path d="M103.871 391.059C104.666 381.476 125.611 349.481 143.275 350.308C160.924 351.15 100.041 437.383 103.871 391.059Z" fill="#FFFF9F"/>
</g>
<g style="mix-blend-mode:screen">
<path d="M101.544 420.941C102.57 415.874 102.975 397.963 96.6151 403.75C90.255 409.536 97.439 441.179 101.544 420.941Z" fill="#FFFF9F"/>
</g>
<path style="mix-blend-mode:screen" opacity="0.46" d="M262.425 499.275C262.425 481.195 259.447 461.999 254.186 443.276C271.343 540.47 177.792 659.264 91.3101 599.744C107.037 613.491 128.56 622.477 157.021 624.314C228.008 628.892 262.41 562.667 262.425 499.29V499.275Z" fill="url(#paint30_linear_97_156)"/>
<g opacity="0.5">
<path style="mix-blend-mode:screen" d="M141.902 359.325C189.79 353.737 196.96 415.139 146.498 435.025C96.0516 454.911 90.501 425.197 92.7559 406.214C95.0253 387.232 147.409 371.235 153.856 390.952C160.303 410.669 111.229 437.459 110.521 426.82C109.812 416.18 129.138 400.259 129.138 400.259C83.1146 422.962 95.3433 441.332 125.091 430.402C154.839 419.456 177.619 385.012 156.935 380.91C136.25 376.822 102.426 379.792 85.0949 408.71C67.7637 437.627 113.672 463.468 160.23 431.137C206.789 398.82 188.157 345.547 139.184 353.737C127.592 355.681 117.416 359.799 108.483 365.157C105.78 368.418 103.149 371.908 100.59 375.567C111.359 367.377 124.932 361.299 141.873 359.325H141.902Z" fill="url(#paint31_linear_97_156)"/>
<path style="mix-blend-mode:screen" d="M131.364 461.447C188.402 451.573 217.673 393.187 195.326 354.12C192.247 348.746 188.663 344.353 184.875 340.725C181.32 338.888 177.735 337.449 174.107 336.377C198.593 353.079 201.657 403.49 168.657 438.714C135.469 474.123 80.7872 462.749 69.5126 441.286C68.573 444.348 67.7058 447.44 66.8818 450.548C77.2458 460.651 97.9883 467.234 131.364 461.447Z" fill="url(#paint32_linear_97_156)"/>
</g>
<path style="mix-blend-mode:screen" d="M159 627C217.542 627 265 561.41 265 480.5C265 399.59 217.542 334 159 334C100.458 334 53 399.59 53 480.5C53 561.41 100.458 627 159 627Z" fill="url(#paint33_radial_97_156)"/>
<path d="M155.171 390.217C155.171 390.217 159.681 396.463 160.635 391.809C160.635 391.809 158.857 390.385 155.171 390.217Z" fill="#B3FFFF"/>
<path style="mix-blend-mode:screen" opacity="0.69" d="M184.472 400.294C189 385.078 181.022 368.855 166.655 364.061C152.287 359.266 136.97 367.714 132.442 382.931C127.915 398.147 135.892 414.369 150.26 419.164C164.627 423.959 179.945 415.51 184.472 400.294Z" fill="url(#paint34_radial_97_156)"/>
<g style="mix-blend-mode:screen">
<path d="M220.275 343.894C220.275 344.322 219.942 344.674 219.537 344.674C219.133 344.674 218.8 344.322 218.8 343.894C218.8 343.465 219.133 343.113 219.537 343.113C219.942 343.113 220.275 343.465 220.275 343.894Z" fill="#B3FFFF"/>
</g>
<path style="mix-blend-mode:screen" opacity="0.69" d="M238.167 348.532C240.58 337.642 234.201 326.742 223.919 324.186C213.637 321.63 203.345 328.386 200.932 339.275C198.518 350.165 204.897 361.065 215.179 363.621C225.461 366.177 235.753 359.421 238.167 348.532Z" fill="url(#paint35_radial_97_156)"/>
<g style="mix-blend-mode:screen">
<path d="M74.0223 380.741C74.4295 380.741 74.7595 380.392 74.7595 379.96C74.7595 379.529 74.4295 379.18 74.0223 379.18C73.6152 379.18 73.2852 379.529 73.2852 379.96C73.2852 380.392 73.6152 380.741 74.0223 380.741Z" fill="#B3FFFF"/>
</g>
<path style="mix-blend-mode:screen" opacity="0.69" d="M87.5442 394.278C95.0124 386.369 95.0124 373.545 87.5442 365.636C80.076 357.726 67.9677 357.726 60.4994 365.636C53.0312 373.545 53.0312 386.369 60.4994 394.278C67.9677 402.187 80.076 402.187 87.5442 394.278Z" fill="url(#paint36_radial_97_156)"/>
<g style="mix-blend-mode:screen">
<path d="M78.0549 308.822C78.0549 309.251 77.7225 309.603 77.3178 309.603C76.913 309.603 76.5806 309.251 76.5806 308.822C76.5806 308.393 76.913 308.041 77.3178 308.041C77.7225 308.041 78.0549 308.393 78.0549 308.822Z" fill="#B3FFFF"/>
</g>
<path style="mix-blend-mode:screen" opacity="0.69" d="M90.844 323.153C98.3122 315.243 98.3123 302.42 90.844 294.51C83.3758 286.601 71.2675 286.601 63.7993 294.51C56.331 302.42 56.331 315.243 63.7992 323.153C71.2675 331.062 83.3758 331.062 90.844 323.153Z" fill="url(#paint37_radial_97_156)"/>
<g style="mix-blend-mode:screen">
<path d="M97.974 339.531C98.3811 339.531 98.7112 339.181 98.7112 338.75C98.7112 338.319 98.3811 337.969 97.974 337.969C97.5669 337.969 97.2368 338.319 97.2368 338.75C97.2368 339.181 97.5669 339.531 97.974 339.531Z" fill="#B3FFFF"/>
</g>
<path style="mix-blend-mode:screen" opacity="0.69" d="M111.498 353.065C118.966 345.155 118.966 332.332 111.498 324.422C104.03 316.513 91.9213 316.513 84.4531 324.422C76.9848 332.332 76.9848 345.155 84.4531 353.065C91.9213 360.974 104.03 360.974 111.498 353.065Z" fill="url(#paint38_radial_97_156)"/>
<g style="mix-blend-mode:screen">
<path d="M258.536 453.334C258.536 453.763 258.204 454.115 257.799 454.115C257.394 454.115 257.062 453.763 257.062 453.334C257.062 452.905 257.394 452.553 257.799 452.553C258.204 452.553 258.536 452.905 258.536 453.334Z" fill="#B3FFFF"/>
</g>
<path style="mix-blend-mode:screen" opacity="0.69" d="M276.399 458.042C278.862 447.165 272.534 436.233 262.264 433.623C251.993 431.014 241.67 437.716 239.207 448.593C236.743 459.47 243.071 470.403 253.342 473.012C263.612 475.621 273.935 468.919 276.399 458.042Z" fill="url(#paint39_radial_97_156)"/>
<g style="mix-blend-mode:screen">
<path d="M70.1194 473.572C70.1194 474 69.7869 474.352 69.3822 474.352C68.9775 474.352 68.645 474 68.645 473.572C68.645 473.143 68.9775 472.791 69.3822 472.791C69.7869 472.791 70.1194 473.143 70.1194 473.572Z" fill="#B3FFFF"/>
</g>
<path style="mix-blend-mode:screen" opacity="0.69" d="M69.3823 493.825C79.944 493.825 88.5059 484.757 88.5059 473.572C88.5059 462.386 79.944 453.319 69.3823 453.319C58.8207 453.319 50.2588 462.386 50.2588 473.572C50.2588 484.757 58.8207 493.825 69.3823 493.825Z" fill="url(#paint40_radial_97_156)"/>
<g style="mix-blend-mode:screen">
<path d="M161.372 463.33C161.372 463.759 161.039 464.111 160.635 464.111C160.23 464.111 159.897 463.759 159.897 463.33C159.897 462.902 160.23 462.55 160.635 462.55C161.039 462.55 161.372 462.902 161.372 463.33Z" fill="#B3FFFF"/>
</g>
<path style="mix-blend-mode:screen" opacity="0.69" d="M174.453 477.31C181.751 469.224 181.478 456.404 173.844 448.675C166.209 440.946 154.104 441.234 146.806 449.32C139.508 457.405 139.78 470.225 147.415 477.955C155.049 485.684 167.154 485.395 174.453 477.31Z" fill="url(#paint41_radial_97_156)"/>
<g style="mix-blend-mode:screen">
<path d="M177.128 606.901C177.128 607.288 176.795 607.606 176.391 607.606C175.986 607.606 175.653 607.288 175.653 606.901C175.653 606.514 175.986 606.196 176.391 606.196C176.795 606.196 177.128 606.514 177.128 606.901Z" fill="#B3FFFF"/>
</g>
<path style="mix-blend-mode:screen" opacity="0.69" d="M194.981 611.22C197.461 601.401 191.149 591.518 180.882 589.146C170.616 586.774 160.283 592.811 157.803 602.631C155.323 612.45 161.636 622.333 171.902 624.705C182.168 627.077 192.501 621.04 194.981 611.22Z" fill="url(#paint42_radial_97_156)"/>
<g style="mix-blend-mode:screen">
<path d="M285.119 519.053C285.526 519.053 285.856 518.704 285.856 518.272C285.856 517.841 285.526 517.492 285.119 517.492C284.711 517.492 284.381 517.841 284.381 518.272C284.381 518.704 284.711 519.053 285.119 519.053Z" fill="#B3FFFF"/>
</g>
<path style="mix-blend-mode:screen" opacity="0.69" d="M298.361 532.871C305.98 525.125 306.228 512.304 298.913 504.235C291.599 496.165 279.493 495.904 271.874 503.65C264.255 511.396 264.008 524.217 271.322 532.286C278.636 540.355 290.742 540.617 298.361 532.871Z" fill="url(#paint43_radial_97_156)"/>
<g style="mix-blend-mode:screen">
<path d="M266.024 282.231C266.024 282.66 265.692 283.012 265.287 283.012C264.882 283.012 264.55 282.66 264.55 282.231C264.55 281.803 264.882 281.45 265.287 281.45C265.692 281.45 266.024 281.803 266.024 282.231Z" fill="#B3FFFF"/>
</g>
<path style="mix-blend-mode:screen" opacity="0.69" d="M283.892 286.91C286.332 276.027 279.98 265.109 269.704 262.525C259.429 259.94 249.12 266.667 246.68 277.55C244.239 288.433 250.591 299.35 260.867 301.935C271.143 304.519 281.451 297.792 283.892 286.91Z" fill="url(#paint44_radial_97_156)"/>
<g opacity="0.65">
<g style="mix-blend-mode:screen">
<path d="M236.565 400.214C236.717 400.214 236.84 400.083 236.84 399.923C236.84 399.762 236.717 399.632 236.565 399.632C236.414 399.632 236.291 399.762 236.291 399.923C236.291 400.083 236.414 400.214 236.565 400.214Z" fill="#B3FFFF"/>
</g>
<path style="mix-blend-mode:screen" opacity="0.69" d="M236.566 407.439C240.485 407.439 243.663 404.074 243.663 399.923C243.663 395.771 240.485 392.406 236.566 392.406C232.646 392.406 229.468 395.771 229.468 399.923C229.468 404.074 232.646 407.439 236.566 407.439Z" fill="url(#paint45_radial_97_156)"/>
</g>
<g opacity="0.65">
<g style="mix-blend-mode:screen">
<path d="M282.169 413.976C282.169 414.144 282.039 414.267 281.895 414.267C281.751 414.267 281.621 414.129 281.621 413.976C281.621 413.823 281.751 413.685 281.895 413.685C282.039 413.685 282.169 413.823 282.169 413.976Z" fill="#B3FFFF"/>
</g>
<path style="mix-blend-mode:screen" opacity="0.69" d="M281.895 421.492C285.815 421.492 288.992 418.127 288.992 413.976C288.992 409.825 285.815 406.459 281.895 406.459C277.975 406.459 274.798 409.825 274.798 413.976C274.798 418.127 277.975 421.492 281.895 421.492Z" fill="url(#paint46_radial_97_156)"/>
</g>
<g opacity="0.65">
<g style="mix-blend-mode:screen">
<path d="M104.608 407.485C104.608 407.653 104.478 407.776 104.333 407.776C104.189 407.776 104.059 407.638 104.059 407.485C104.059 407.332 104.189 407.194 104.333 407.194C104.478 407.194 104.608 407.332 104.608 407.485Z" fill="#B3FFFF"/>
</g>
<path style="mix-blend-mode:screen" opacity="0.69" d="M104.334 415.001C108.253 415.001 111.431 411.636 111.431 407.485C111.431 403.334 108.253 399.969 104.334 399.969C100.414 399.969 97.2363 403.334 97.2363 407.485C97.2363 411.636 100.414 415.001 104.334 415.001Z" fill="url(#paint47_radial_97_156)"/>
</g>
<g opacity="0.65">
<g style="mix-blend-mode:screen">
<path d="M43.1615 299.989C43.3129 299.989 43.4357 299.859 43.4357 299.698C43.4357 299.537 43.3129 299.407 43.1615 299.407C43.01 299.407 42.8872 299.537 42.8872 299.698C42.8872 299.859 43.01 299.989 43.1615 299.989Z" fill="#B3FFFF"/>
</g>
<path style="mix-blend-mode:screen" opacity="0.69" d="M43.1617 307.215C47.0814 307.215 50.259 303.849 50.259 299.698C50.259 295.547 47.0814 292.182 43.1617 292.182C39.242 292.182 36.0645 295.547 36.0645 299.698C36.0645 303.849 39.242 307.215 43.1617 307.215Z" fill="url(#paint48_radial_97_156)"/>
</g>
<g opacity="0.65">
<g style="mix-blend-mode:screen">
<path d="M128.14 460.85C128.14 461.019 128.01 461.141 127.866 461.141C127.721 461.141 127.591 461.003 127.591 460.85C127.591 460.697 127.721 460.56 127.866 460.56C128.01 460.56 128.14 460.697 128.14 460.85Z" fill="#B3FFFF"/>
</g>
<path style="mix-blend-mode:screen" opacity="0.69" d="M127.866 468.367C131.786 468.367 134.963 465.002 134.963 460.85C134.963 456.699 131.786 453.334 127.866 453.334C123.946 453.334 120.769 456.699 120.769 460.85C120.769 465.002 123.946 468.367 127.866 468.367Z" fill="url(#paint49_radial_97_156)"/>
</g>
<g opacity="0.65">
<g style="mix-blend-mode:screen">
<path d="M229.771 478.379C229.771 478.547 229.641 478.669 229.497 478.669C229.353 478.669 229.223 478.532 229.223 478.379C229.223 478.225 229.353 478.088 229.497 478.088C229.641 478.088 229.771 478.225 229.771 478.379Z" fill="#B3FFFF"/>
</g>
<path style="mix-blend-mode:screen" opacity="0.69" d="M229.497 485.895C233.417 485.895 236.594 482.53 236.594 478.379C236.594 474.227 233.417 470.862 229.497 470.862C225.577 470.862 222.4 474.227 222.4 478.379C222.4 482.53 225.577 485.895 229.497 485.895Z" fill="url(#paint50_radial_97_156)"/>
</g>
<g opacity="0.65">
<g style="mix-blend-mode:screen">
<path d="M149.865 581.466C149.865 581.634 149.735 581.757 149.591 581.757C149.447 581.757 149.317 581.619 149.317 581.466C149.317 581.313 149.447 581.175 149.591 581.175C149.735 581.175 149.865 581.313 149.865 581.466Z" fill="#B3FFFF"/>
</g>
<path style="mix-blend-mode:screen" opacity="0.69" d="M149.591 588.982C153.511 588.982 156.689 585.617 156.689 581.466C156.689 577.314 153.511 573.949 149.591 573.949C145.672 573.949 142.494 577.314 142.494 581.466C142.494 585.617 145.672 588.982 149.591 588.982Z" fill="url(#paint51_radial_97_156)"/>
</g>
<g opacity="0.65">
<g style="mix-blend-mode:screen">
<path d="M216.892 543.608C216.892 543.776 216.762 543.899 216.618 543.899C216.473 543.899 216.343 543.761 216.343 543.608C216.343 543.455 216.473 543.317 216.618 543.317C216.762 543.317 216.892 543.455 216.892 543.608Z" fill="#B3FFFF"/>
</g>
<path style="mix-blend-mode:screen" opacity="0.69" d="M216.618 551.124C220.537 551.124 223.715 547.759 223.715 543.608C223.715 539.457 220.537 536.092 216.618 536.092C212.698 536.092 209.521 539.457 209.521 543.608C209.521 547.759 212.698 551.124 216.618 551.124Z" fill="url(#paint52_radial_97_156)"/>
</g>
<g opacity="0.65">
<g style="mix-blend-mode:screen">
<path d="M190.7 158.906C190.7 159.074 190.57 159.197 190.426 159.197C190.281 159.197 190.151 159.059 190.151 158.906C190.151 158.753 190.281 158.615 190.426 158.615C190.57 158.615 190.7 158.753 190.7 158.906Z" fill="#B3FFFF"/>
</g>
<path style="mix-blend-mode:screen" opacity="0.69" d="M190.426 166.423C194.346 166.423 197.523 163.057 197.523 158.906C197.523 154.755 194.346 151.39 190.426 151.39C186.506 151.39 183.329 154.755 183.329 158.906C183.329 163.057 186.506 166.423 190.426 166.423Z" fill="url(#paint53_radial_97_156)"/>
</g>
<g opacity="0.65">
<g style="mix-blend-mode:screen">
<path d="M165.751 183.109C165.751 183.277 165.621 183.4 165.477 183.4C165.333 183.4 165.203 183.262 165.203 183.109C165.203 182.956 165.333 182.818 165.477 182.818C165.621 182.818 165.751 182.956 165.751 183.109Z" fill="#B3FFFF"/>
</g>
<path style="mix-blend-mode:screen" opacity="0.69" d="M165.477 190.625C169.397 190.625 172.574 187.26 172.574 183.109C172.574 178.958 169.397 175.592 165.477 175.592C161.557 175.592 158.38 178.958 158.38 183.109C158.38 187.26 161.557 190.625 165.477 190.625Z" fill="url(#paint54_radial_97_156)"/>
</g>
<g opacity="0.65">
<g style="mix-blend-mode:screen">
<path d="M151.196 79.8073C151.347 79.8073 151.47 79.6771 151.47 79.5164C151.47 79.3558 151.347 79.2256 151.196 79.2256C151.044 79.2256 150.921 79.3558 150.921 79.5164C150.921 79.6771 151.044 79.8073 151.196 79.8073Z" fill="#B3FFFF"/>
</g>
<path style="mix-blend-mode:screen" opacity="0.69" d="M151.196 87.0329C155.116 87.0329 158.293 83.6677 158.293 79.5165C158.293 75.3652 155.116 72 151.196 72C147.276 72 144.099 75.3652 144.099 79.5165C144.099 83.6677 147.276 87.0329 151.196 87.0329Z" fill="url(#paint55_radial_97_156)"/>
</g>
<g opacity="0.65">
<g style="mix-blend-mode:screen">
<path d="M138.576 144.761C138.576 144.929 138.446 145.052 138.302 145.052C138.158 145.052 138.028 144.914 138.028 144.761C138.028 144.608 138.158 144.47 138.302 144.47C138.446 144.47 138.576 144.608 138.576 144.761Z" fill="#B3FFFF"/>
</g>
<path style="mix-blend-mode:screen" opacity="0.69" d="M138.302 152.278C142.222 152.278 145.4 148.912 145.4 144.761C145.4 140.61 142.222 137.245 138.302 137.245C134.383 137.245 131.205 140.61 131.205 144.761C131.205 148.912 134.383 152.278 138.302 152.278Z" fill="url(#paint56_radial_97_156)"/>
</g>
<g opacity="0.65">
<g style="mix-blend-mode:screen">
<path d="M317.627 562.545C317.627 562.713 317.497 562.835 317.352 562.835C317.208 562.835 317.078 562.698 317.078 562.545C317.078 562.391 317.208 562.254 317.352 562.254C317.497 562.254 317.627 562.391 317.627 562.545Z" fill="#B3FFFF"/>
</g>
<path style="mix-blend-mode:screen" opacity="0.69" d="M317.353 570.061C321.272 570.061 324.45 566.696 324.45 562.545C324.45 558.393 321.272 555.028 317.353 555.028C313.433 555.028 310.255 558.393 310.255 562.545C310.255 566.696 313.433 570.061 317.353 570.061Z" fill="url(#paint57_radial_97_156)"/>
</g>
<g opacity="0.65">
<g style="mix-blend-mode:screen">
<path d="M308.029 524.044C308.029 524.212 307.899 524.335 307.754 524.335C307.61 524.335 307.48 524.197 307.48 524.044C307.48 523.891 307.61 523.753 307.754 523.753C307.899 523.753 308.029 523.891 308.029 524.044Z" fill="#B3FFFF"/>
</g>
<path style="mix-blend-mode:screen" opacity="0.69" d="M307.754 531.56C311.674 531.56 314.852 528.195 314.852 524.044C314.852 519.893 311.674 516.527 307.754 516.527C303.835 516.527 300.657 519.893 300.657 524.044C300.657 528.195 303.835 531.56 307.754 531.56Z" fill="url(#paint58_radial_97_156)"/>
</g>
<g opacity="0.65">
<g style="mix-blend-mode:screen">
<path d="M59.986 178.44C59.986 178.608 59.8561 178.731 59.7118 178.731C59.5674 178.731 59.4375 178.593 59.4375 178.44C59.4375 178.287 59.5674 178.149 59.7118 178.149C59.8561 178.149 59.986 178.287 59.986 178.44Z" fill="#B3FFFF"/>
</g>
<path style="mix-blend-mode:screen" opacity="0.69" d="M59.6978 185.956C63.6175 185.956 66.7951 182.591 66.7951 178.44C66.7951 174.289 63.6175 170.923 59.6978 170.923C55.7781 170.923 52.6006 174.289 52.6006 178.44C52.6006 182.591 55.7781 185.956 59.6978 185.956Z" fill="url(#paint59_radial_97_156)"/>
</g>
<g opacity="0.65">
<g style="mix-blend-mode:screen">
<path d="M50.0995 140.245C50.2509 140.245 50.3737 140.115 50.3737 139.954C50.3737 139.794 50.2509 139.663 50.0995 139.663C49.948 139.663 49.8252 139.794 49.8252 139.954C49.8252 140.115 49.948 140.245 50.0995 140.245Z" fill="#B3FFFF"/>
</g>
<path style="mix-blend-mode:screen" opacity="0.69" d="M50.0997 147.471C54.0194 147.471 57.1969 144.105 57.1969 139.954C57.1969 135.803 54.0194 132.438 50.0997 132.438C46.18 132.438 43.0024 135.803 43.0024 139.954C43.0024 144.105 46.18 147.471 50.0997 147.471Z" fill="url(#paint60_radial_97_156)"/>
</g>
<g style="mix-blend-mode:screen">
<path d="M43.6243 422.426C43.6243 422.855 43.2918 423.207 42.8871 423.207C42.4824 423.207 42.1499 422.855 42.1499 422.426C42.1499 421.997 42.4824 421.645 42.8871 421.645C43.2918 421.645 43.6243 421.997 43.6243 422.426Z" fill="#B3FFFF"/>
</g>
<path style="mix-blend-mode:screen" opacity="0.69" d="M61.4908 427.058C63.9169 416.171 57.5507 405.263 47.2715 402.694C36.9923 400.124 26.6925 406.866 24.2664 417.753C21.8403 428.639 28.2065 439.547 38.4857 442.117C48.7649 444.686 59.0647 437.944 61.4908 427.058Z" fill="url(#paint61_radial_97_156)"/>
<g style="mix-blend-mode:screen">
<path d="M97.1785 227.932C97.1785 228.361 96.846 228.713 96.4413 228.713C96.0366 228.713 95.7041 228.361 95.7041 227.932C95.7041 227.503 96.0366 227.151 96.4413 227.151C96.846 227.151 97.1785 227.503 97.1785 227.932Z" fill="#B3FFFF"/>
</g>
<path style="mix-blend-mode:screen" opacity="0.69" d="M115.057 232.573C117.483 221.687 111.117 210.778 100.838 208.209C90.5586 205.64 80.2589 212.382 77.8328 223.268C75.4067 234.155 81.7729 245.063 92.0521 247.632C102.331 250.201 112.631 243.459 115.057 232.573Z" fill="url(#paint62_radial_97_156)"/>
<g style="mix-blend-mode:screen">
<path d="M140.037 312.205C140.037 312.634 139.704 312.986 139.3 312.986C138.895 312.986 138.562 312.634 138.562 312.205C138.562 311.776 138.895 311.424 139.3 311.424C139.704 311.424 140.037 311.776 140.037 312.205Z" fill="#B3FFFF"/>
</g>
<path style="mix-blend-mode:screen" opacity="0.69" d="M157.935 316.706C160.282 305.8 153.837 294.944 143.539 292.458C133.241 289.972 122.991 296.798 120.644 307.704C118.297 318.61 124.742 329.466 135.039 331.952C145.337 334.437 155.587 327.611 157.935 316.706Z" fill="url(#paint63_radial_97_156)"/>
<g opacity="0.65">
<g style="mix-blend-mode:screen">
<path d="M45.2284 193.564C45.3798 193.564 45.5026 193.434 45.5026 193.274C45.5026 193.113 45.3798 192.983 45.2284 192.983C45.0769 192.983 44.9541 193.113 44.9541 193.274C44.9541 193.434 45.0769 193.564 45.2284 193.564Z" fill="#B3FFFF"/>
</g>
<path style="mix-blend-mode:screen" opacity="0.69" d="M45.2286 200.79C49.1483 200.79 52.3259 197.425 52.3259 193.274C52.3259 189.122 49.1483 185.757 45.2286 185.757C41.3089 185.757 38.1313 189.122 38.1313 193.274C38.1313 197.425 41.3089 200.79 45.2286 200.79Z" fill="url(#paint64_radial_97_156)"/>
</g>
<g opacity="0.65">
<g style="mix-blend-mode:screen">
<path d="M133.07 277.73C133.221 277.73 133.344 277.6 133.344 277.44C133.344 277.279 133.221 277.149 133.07 277.149C132.918 277.149 132.795 277.279 132.795 277.44C132.795 277.6 132.918 277.73 133.07 277.73Z" fill="#B3FFFF"/>
</g>
<path style="mix-blend-mode:screen" opacity="0.69" d="M133.07 284.956C136.99 284.956 140.167 281.591 140.167 277.44C140.167 273.288 136.99 269.923 133.07 269.923C129.15 269.923 125.973 273.288 125.973 277.44C125.973 281.591 129.15 284.956 133.07 284.956Z" fill="url(#paint65_radial_97_156)"/>
</g>
<g opacity="0.65">
<g style="mix-blend-mode:screen">
<path d="M123.746 238.939C123.746 239.107 123.616 239.23 123.472 239.23C123.327 239.23 123.197 239.092 123.197 238.939C123.197 238.786 123.327 238.648 123.472 238.648C123.616 238.648 123.746 238.786 123.746 238.939Z" fill="#B3FFFF"/>
</g>
<path style="mix-blend-mode:screen" opacity="0.69" d="M123.472 246.455C127.391 246.455 130.569 243.09 130.569 238.939C130.569 234.788 127.391 231.422 123.472 231.422C119.552 231.422 116.375 234.788 116.375 238.939C116.375 243.09 119.552 246.455 123.472 246.455Z" fill="url(#paint66_radial_97_156)"/>
</g>
</g>
<defs>
<linearGradient id="paint0_linear_97_156" x1="148.16" y1="589.028" x2="148.16" y2="-155.821" gradientUnits="userSpaceOnUse">
<stop stop-color="#FF0000"/>
<stop offset="0.41" stop-color="#990000"/>
<stop offset="1"/>
</linearGradient>
<linearGradient id="paint1_linear_97_156" x1="74.5427" y1="400.657" x2="219.703" y2="537.722" gradientUnits="userSpaceOnUse">
<stop stop-color="#EF5299"/>
<stop offset="0.46" stop-color="#EC2B65"/>
<stop offset="1" stop-color="#EA002D"/>
</linearGradient>
<radialGradient id="paint2_radial_97_156" cx="0" cy="0" r="1" gradientUnits="userSpaceOnUse" gradientTransform="translate(160.244 515.134) scale(100.489 106.424)">
<stop stop-color="#FFFF00"/>
<stop offset="0.1" stop-color="#FFFF05"/>
<stop offset="0.22" stop-color="#FFFF14"/>
<stop offset="0.35" stop-color="#FFFF2E"/>
<stop offset="0.5" stop-color="#FFFF52"/>
<stop offset="0.65" stop-color="#FFFF80"/>
<stop offset="0.81" stop-color="#FFFFB9"/>
<stop offset="0.97" stop-color="#FFFFFA"/>
<stop offset="0.98" stop-color="white"/>
</radialGradient>
<linearGradient id="paint3_linear_97_156" x1="161.921" y1="579.598" x2="161.921" y2="345.792" gradientUnits="userSpaceOnUse">
<stop offset="0.12" stop-color="white"/>
<stop offset="0.22" stop-color="#F1DDE7"/>
<stop offset="0.51" stop-color="#CB80A5"/>
<stop offset="0.74" stop-color="#AF3B75"/>
<stop offset="0.91" stop-color="#9D1157"/>
<stop offset="1" stop-color="#97014C"/>
</linearGradient>
<linearGradient id="paint4_linear_97_156" x1="105.794" y1="456.013" x2="234.448" y2="577.492" gradientUnits="userSpaceOnUse">
<stop stop-color="#FFFF33"/>
<stop offset="0.17" stop-color="#FFDE35"/>
<stop offset="0.55" stop-color="#FF8C3C"/>
<stop offset="1" stop-color="#FF2445"/>
</linearGradient>
<linearGradient id="paint5_linear_97_156" x1="188.879" y1="591.263" x2="210.429" y2="611.611" gradientUnits="userSpaceOnUse">
<stop stop-color="#FFFF33"/>
<stop offset="0.17" stop-color="#FFDE35"/>
<stop offset="0.55" stop-color="#FF8C3C"/>
<stop offset="1" stop-color="#FF2445"/>
</linearGradient>
<linearGradient id="paint6_linear_97_156" x1="181.464" y1="610.521" x2="188.433" y2="617.102" gradientUnits="userSpaceOnUse">
<stop stop-color="#FFFF33"/>
<stop offset="0.17" stop-color="#FFDE35"/>
<stop offset="0.55" stop-color="#FF8C3C"/>
<stop offset="1" stop-color="#FF2445"/>
</linearGradient>
<linearGradient id="paint7_linear_97_156" x1="155.33" y1="616.522" x2="166.15" y2="626.724" gradientUnits="userSpaceOnUse">
<stop stop-color="#FFFF33"/>
<stop offset="0.17" stop-color="#FFDE35"/>
<stop offset="0.55" stop-color="#FF8C3C"/>
<stop offset="1" stop-color="#FF2445"/>
</linearGradient>
<linearGradient id="paint8_linear_97_156" x1="92.2786" y1="484.288" x2="97.9343" y2="489.642" gradientUnits="userSpaceOnUse">
<stop stop-color="#FFFF33"/>
<stop offset="0.17" stop-color="#FFDE35"/>
<stop offset="0.55" stop-color="#FF8C3C"/>
<stop offset="1" stop-color="#FF2445"/>
</linearGradient>
<linearGradient id="paint9_linear_97_156" x1="92.7269" y1="457.544" x2="117.516" y2="480.951" gradientUnits="userSpaceOnUse">
<stop stop-color="#FFFF33"/>
<stop offset="0.17" stop-color="#FFDE35"/>
<stop offset="0.55" stop-color="#FF8C3C"/>
<stop offset="1" stop-color="#FF2445"/>
</linearGradient>
<linearGradient id="paint10_linear_97_156" x1="186.971" y1="410.547" x2="197.365" y2="420.375" gradientUnits="userSpaceOnUse">
<stop stop-color="#FFFF33"/>
<stop offset="0.17" stop-color="#FFDE35"/>
<stop offset="0.55" stop-color="#FF8C3C"/>
<stop offset="1" stop-color="#FF2445"/>
</linearGradient>
<linearGradient id="paint11_linear_97_156" x1="212.224" y1="417.099" x2="231.143" y2="434.949" gradientUnits="userSpaceOnUse">
<stop stop-color="#FFFF33"/>
<stop offset="0.17" stop-color="#FFDE35"/>
<stop offset="0.55" stop-color="#FF8C3C"/>
<stop offset="1" stop-color="#FF2445"/>
</linearGradient>
<linearGradient id="paint12_linear_97_156" x1="232.142" y1="439.908" x2="238.667" y2="446.055" gradientUnits="userSpaceOnUse">
<stop stop-color="#FFFF33"/>
<stop offset="0.17" stop-color="#FFDE35"/>
<stop offset="0.55" stop-color="#FF8C3C"/>
<stop offset="1" stop-color="#FF2445"/>
</linearGradient>
<linearGradient id="paint13_linear_97_156" x1="248.78" y1="490.763" x2="253.579" y2="495.31" gradientUnits="userSpaceOnUse">
<stop stop-color="#FFFF33"/>
<stop offset="0.17" stop-color="#FFDE35"/>
<stop offset="0.55" stop-color="#FF8C3C"/>
<stop offset="1" stop-color="#FF2445"/>
</linearGradient>
<linearGradient id="paint14_linear_97_156" x1="242.333" y1="513.711" x2="254.972" y2="525.645" gradientUnits="userSpaceOnUse">
<stop stop-color="#FFFF33"/>
<stop offset="0.17" stop-color="#FFDE35"/>
<stop offset="0.55" stop-color="#FF8C3C"/>
<stop offset="1" stop-color="#FF2445"/>
</linearGradient>
<linearGradient id="paint15_linear_97_156" x1="150.56" y1="498.172" x2="218.555" y2="562.375" gradientUnits="userSpaceOnUse">
<stop stop-color="#FFFF33"/>
<stop offset="0.17" stop-color="#FFDE35"/>
<stop offset="0.55" stop-color="#FF8C3C"/>
<stop offset="1" stop-color="#FF2445"/>
</linearGradient>
<linearGradient id="paint16_linear_97_156" x1="227.575" y1="542.414" x2="240.337" y2="554.479" gradientUnits="userSpaceOnUse">
<stop stop-color="#FFFF33"/>
<stop offset="0.17" stop-color="#FFDE35"/>
<stop offset="0.55" stop-color="#FF8C3C"/>
<stop offset="1" stop-color="#FF2445"/>
</linearGradient>
<linearGradient id="paint17_linear_97_156" x1="223.383" y1="557.37" x2="228.426" y2="562.132" gradientUnits="userSpaceOnUse">
<stop stop-color="#FFFF33"/>
<stop offset="0.17" stop-color="#FFDE35"/>
<stop offset="0.55" stop-color="#FF8C3C"/>
<stop offset="1" stop-color="#FF2445"/>
</linearGradient>
<linearGradient id="paint18_linear_97_156" x1="223.007" y1="496.565" x2="229.762" y2="502.944" gradientUnits="userSpaceOnUse">
<stop stop-color="#FFFF33"/>
<stop offset="0.17" stop-color="#FFDE35"/>
<stop offset="0.55" stop-color="#FF8C3C"/>
<stop offset="1" stop-color="#FF2445"/>
</linearGradient>
<linearGradient id="paint19_linear_97_156" x1="214.536" y1="480.813" x2="221.169" y2="487.076" gradientUnits="userSpaceOnUse">
<stop stop-color="#FFFF33"/>
<stop offset="0.17" stop-color="#FFDE35"/>
<stop offset="0.55" stop-color="#FF8C3C"/>
<stop offset="1" stop-color="#FF2445"/>
</linearGradient>
<linearGradient id="paint20_linear_97_156" x1="195.442" y1="455.768" x2="212.666" y2="472.032" gradientUnits="userSpaceOnUse">
<stop stop-color="#FFFF33"/>
<stop offset="0.17" stop-color="#FFDE35"/>
<stop offset="0.55" stop-color="#FF8C3C"/>
<stop offset="1" stop-color="#FF2445"/>
</linearGradient>
<linearGradient id="paint21_linear_97_156" x1="151.022" y1="436.25" x2="184.018" y2="467.391" gradientUnits="userSpaceOnUse">
<stop offset="0.33" stop-color="#FFFF33"/>
<stop offset="0.45" stop-color="#FFDE35"/>
<stop offset="0.7" stop-color="#FF8C3C"/>
<stop offset="1" stop-color="#FF2445"/>
</linearGradient>
<linearGradient id="paint22_linear_97_156" x1="176.275" y1="504.969" x2="192.979" y2="520.727" gradientUnits="userSpaceOnUse">
<stop stop-color="#FFFF33"/>
<stop offset="0.17" stop-color="#FFDE35"/>
<stop offset="0.55" stop-color="#FF8C3C"/>
<stop offset="1" stop-color="#FF2445"/>
</linearGradient>
<linearGradient id="paint23_linear_97_156" x1="149.548" y1="537.867" x2="157.343" y2="545.227" gradientUnits="userSpaceOnUse">
<stop stop-color="#FFFF33"/>
<stop offset="0.17" stop-color="#FFDE35"/>
<stop offset="0.55" stop-color="#FF8C3C"/>
<stop offset="1" stop-color="#FF2445"/>
</linearGradient>
<linearGradient id="paint24_linear_97_156" x1="134.414" y1="546.639" x2="144.96" y2="556.596" gradientUnits="userSpaceOnUse">
<stop stop-color="#FFFF33"/>
<stop offset="0.17" stop-color="#FFDE35"/>
<stop offset="0.55" stop-color="#FF8C3C"/>
<stop offset="1" stop-color="#FF2445"/>
</linearGradient>
<linearGradient id="paint25_linear_97_156" x1="99.2458" y1="504.434" x2="104.228" y2="509.138" gradientUnits="userSpaceOnUse">
<stop stop-color="#FFFF33"/>
<stop offset="0.17" stop-color="#FFDE35"/>
<stop offset="0.55" stop-color="#FF8C3C"/>
<stop offset="1" stop-color="#FF2445"/>
</linearGradient>
<linearGradient id="paint26_linear_97_156" x1="97.8583" y1="527.289" x2="154.284" y2="580.568" gradientUnits="userSpaceOnUse">
<stop stop-color="#FFFF33"/>
<stop offset="0.17" stop-color="#FFDE35"/>
<stop offset="0.55" stop-color="#FF8C3C"/>
<stop offset="1" stop-color="#FF2445"/>
</linearGradient>
<linearGradient id="paint27_linear_97_156" x1="91.6858" y1="417.711" x2="260.91" y2="580.416" gradientUnits="userSpaceOnUse">
<stop offset="0.17" stop-color="#97014C"/>
<stop offset="0.25" stop-color="#9D1157"/>
<stop offset="0.4" stop-color="#AF3B75"/>
<stop offset="0.62" stop-color="#CB80A5"/>
<stop offset="0.89" stop-color="#F1DDE7"/>
<stop offset="0.98" stop-color="white"/>
</linearGradient>
<linearGradient id="paint28_linear_97_156" x1="91.7003" y1="407.01" x2="190.492" y2="500.292" gradientUnits="userSpaceOnUse">
<stop offset="0.13" stop-color="#FF6D77"/>
<stop offset="0.22" stop-color="#EA646D"/>
<stop offset="0.42" stop-color="#B54D54"/>
<stop offset="0.7" stop-color="#60292C"/>
<stop offset="1"/>
</linearGradient>
<linearGradient id="paint29_linear_97_156" x1="95.0683" y1="391.396" x2="184.079" y2="475.457" gradientUnits="userSpaceOnUse">
<stop stop-color="#FFA1AB"/>
<stop offset="0.09" stop-color="#F298A2"/>
<stop offset="0.24" stop-color="#D0838B"/>
<stop offset="0.46" stop-color="#996066"/>
<stop offset="0.71" stop-color="#4E3134"/>
<stop offset="0.96"/>
</linearGradient>
<linearGradient id="paint30_linear_97_156" x1="192.233" y1="542.138" x2="338.844" y2="680.559" gradientUnits="userSpaceOnUse">
<stop offset="0.06"/>
<stop offset="0.41" stop-color="#FFB8FF"/>
</linearGradient>
<linearGradient id="paint31_linear_97_156" x1="81.3656" y1="399.509" x2="187.058" y2="399.509" gradientUnits="userSpaceOnUse">
<stop stop-color="#FFA1AB"/>
<stop offset="0.11" stop-color="#FA9EA8"/>
<stop offset="0.23" stop-color="#ED959F"/>
<stop offset="0.35" stop-color="#D78890"/>
<stop offset="0.48" stop-color="#B9747C"/>
<stop offset="0.61" stop-color="#925C61"/>
<stop offset="0.74" stop-color="#623D41"/>
<stop offset="0.87" stop-color="#2A1A1C"/>
<stop offset="0.96"/>
</linearGradient>
<linearGradient id="paint32_linear_97_156" x1="66.8963" y1="399.984" x2="202.857" y2="399.984" gradientUnits="userSpaceOnUse">
<stop stop-color="#FFA1AB"/>
<stop offset="0.11" stop-color="#FA9EA8"/>
<stop offset="0.23" stop-color="#ED959F"/>
<stop offset="0.35" stop-color="#D78890"/>
<stop offset="0.48" stop-color="#B9747C"/>
<stop offset="0.61" stop-color="#925C61"/>
<stop offset="0.74" stop-color="#623D41"/>
<stop offset="0.87" stop-color="#2A1A1C"/>
<stop offset="0.96"/>
</linearGradient>
<radialGradient id="paint33_radial_97_156" cx="0" cy="0" r="1" gradientUnits="userSpaceOnUse" gradientTransform="translate(159 479.742) scale(106 146.078)">
<stop stop-color="#FF4C00"/>
<stop offset="0.2" stop-color="#BD3800"/>
<stop offset="0.53" stop-color="#581A00"/>
<stop offset="0.76" stop-color="#180700"/>
<stop offset="0.87"/>
</radialGradient>
<radialGradient id="paint34_radial_97_156" cx="0" cy="0" r="1" gradientUnits="userSpaceOnUse" gradientTransform="translate(158.478 391.622) rotate(7.47242) scale(27.3011 28.8606)">
<stop stop-color="#FF0000"/>
<stop offset="0.12" stop-color="#C60000"/>
<stop offset="0.24" stop-color="#920000"/>
<stop offset="0.37" stop-color="#650000"/>
<stop offset="0.5" stop-color="#400000"/>
<stop offset="0.62" stop-color="#240000"/>
<stop offset="0.75" stop-color="#100000"/>
<stop offset="0.88" stop-color="#040000"/>
<stop offset="1"/>
</radialGradient>
<radialGradient id="paint35_radial_97_156" cx="0" cy="0" r="1" gradientUnits="userSpaceOnUse" gradientTransform="translate(219.564 343.895) scale(19.1236 20.2531)">
<stop stop-color="#FF0000"/>
<stop offset="0.12" stop-color="#C60000"/>
<stop offset="0.24" stop-color="#920000"/>
<stop offset="0.37" stop-color="#650000"/>
<stop offset="0.5" stop-color="#400000"/>
<stop offset="0.62" stop-color="#240000"/>
<stop offset="0.75" stop-color="#100000"/>
<stop offset="0.88" stop-color="#040000"/>
<stop offset="1"/>
</radialGradient>
<radialGradient id="paint36_radial_97_156" cx="0" cy="0" r="1" gradientUnits="userSpaceOnUse" gradientTransform="translate(74.0238 379.954) scale(19.1236 20.2531)">
<stop stop-color="#FF0000"/>
<stop offset="0.12" stop-color="#C60000"/>
<stop offset="0.24" stop-color="#920000"/>
<stop offset="0.37" stop-color="#650000"/>
<stop offset="0.5" stop-color="#400000"/>
<stop offset="0.62" stop-color="#240000"/>
<stop offset="0.75" stop-color="#100000"/>
<stop offset="0.88" stop-color="#040000"/>
<stop offset="1"/>
</radialGradient>
<radialGradient id="paint37_radial_97_156" cx="0" cy="0" r="1" gradientUnits="userSpaceOnUse" gradientTransform="translate(77.3281 308.83) scale(19.1236 20.2531)">
<stop stop-color="#FF0000"/>
<stop offset="0.12" stop-color="#C60000"/>
<stop offset="0.24" stop-color="#920000"/>
<stop offset="0.37" stop-color="#650000"/>
<stop offset="0.5" stop-color="#400000"/>
<stop offset="0.62" stop-color="#240000"/>
<stop offset="0.75" stop-color="#100000"/>
<stop offset="0.88" stop-color="#040000"/>
<stop offset="1"/>
</radialGradient>
<radialGradient id="paint38_radial_97_156" cx="0" cy="0" r="1" gradientUnits="userSpaceOnUse" gradientTransform="translate(97.981 338.74) scale(19.1236 20.2531)">
<stop stop-color="#FF0000"/>
<stop offset="0.12" stop-color="#C60000"/>
<stop offset="0.24" stop-color="#920000"/>
<stop offset="0.37" stop-color="#650000"/>
<stop offset="0.5" stop-color="#400000"/>
<stop offset="0.62" stop-color="#240000"/>
<stop offset="0.75" stop-color="#100000"/>
<stop offset="0.88" stop-color="#040000"/>
<stop offset="1"/>
</radialGradient>
<radialGradient id="paint39_radial_97_156" cx="0" cy="0" r="1" gradientUnits="userSpaceOnUse" gradientTransform="translate(257.782 453.333) scale(19.1236 20.2531)">
<stop stop-color="#FF0000"/>
<stop offset="0.12" stop-color="#C60000"/>
<stop offset="0.24" stop-color="#920000"/>
<stop offset="0.37" stop-color="#650000"/>
<stop offset="0.5" stop-color="#400000"/>
<stop offset="0.62" stop-color="#240000"/>
<stop offset="0.75" stop-color="#100000"/>
<stop offset="0.88" stop-color="#040000"/>
<stop offset="1"/>
</radialGradient>
<radialGradient id="paint40_radial_97_156" cx="0" cy="0" r="1" gradientUnits="userSpaceOnUse" gradientTransform="translate(69.3823 473.572) scale(19.1236 20.2531)">
<stop stop-color="#FF0000"/>
<stop offset="0.12" stop-color="#C60000"/>
<stop offset="0.24" stop-color="#920000"/>
<stop offset="0.37" stop-color="#650000"/>
<stop offset="0.5" stop-color="#400000"/>
<stop offset="0.62" stop-color="#240000"/>
<stop offset="0.75" stop-color="#100000"/>
<stop offset="0.88" stop-color="#040000"/>
<stop offset="1"/>
</radialGradient>
<radialGradient id="paint41_radial_97_156" cx="0" cy="0" r="1" gradientUnits="userSpaceOnUse" gradientTransform="translate(160.618 463.317) scale(19.1236 20.2531)">
<stop stop-color="#FF0000"/>
<stop offset="0.12" stop-color="#C60000"/>
<stop offset="0.24" stop-color="#920000"/>
<stop offset="0.37" stop-color="#650000"/>
<stop offset="0.5" stop-color="#400000"/>
<stop offset="0.62" stop-color="#240000"/>
<stop offset="0.75" stop-color="#100000"/>
<stop offset="0.88" stop-color="#040000"/>
<stop offset="1"/>
</radialGradient>
<radialGradient id="paint42_radial_97_156" cx="0" cy="0" r="1" gradientUnits="userSpaceOnUse" gradientTransform="translate(176.418 606.91) scale(19.1235 18.291)">
<stop stop-color="#FF0000"/>
<stop offset="0.12" stop-color="#C60000"/>
<stop offset="0.24" stop-color="#920000"/>
<stop offset="0.37" stop-color="#650000"/>
<stop offset="0.5" stop-color="#400000"/>
<stop offset="0.62" stop-color="#240000"/>
<stop offset="0.75" stop-color="#100000"/>
<stop offset="0.88" stop-color="#040000"/>
<stop offset="1"/>
</radialGradient>
<radialGradient id="paint43_radial_97_156" cx="0" cy="0" r="1" gradientUnits="userSpaceOnUse" gradientTransform="translate(285.111 518.271) scale(19.1236 20.2531)">
<stop stop-color="#FF0000"/>
<stop offset="0.12" stop-color="#C60000"/>
<stop offset="0.24" stop-color="#920000"/>
<stop offset="0.37" stop-color="#650000"/>
<stop offset="0.5" stop-color="#400000"/>
<stop offset="0.62" stop-color="#240000"/>
<stop offset="0.75" stop-color="#100000"/>
<stop offset="0.88" stop-color="#040000"/>
<stop offset="1"/>
</radialGradient>
<radialGradient id="paint44_radial_97_156" cx="0" cy="0" r="1" gradientUnits="userSpaceOnUse" gradientTransform="translate(265.281 282.225) scale(19.1236 20.2531)">
<stop stop-color="#FF0000"/>
<stop offset="0.12" stop-color="#C60000"/>
<stop offset="0.24" stop-color="#920000"/>
<stop offset="0.37" stop-color="#650000"/>
<stop offset="0.5" stop-color="#400000"/>
<stop offset="0.62" stop-color="#240000"/>
<stop offset="0.75" stop-color="#100000"/>
<stop offset="0.88" stop-color="#040000"/>
<stop offset="1"/>
</radialGradient>
<radialGradient id="paint45_radial_97_156" cx="0" cy="0" r="1" gradientUnits="userSpaceOnUse" gradientTransform="translate(236.566 399.923) scale(7.09726 7.51645)">
<stop stop-color="#FF0000"/>
<stop offset="0.12" stop-color="#C60000"/>
<stop offset="0.24" stop-color="#920000"/>
<stop offset="0.37" stop-color="#650000"/>
<stop offset="0.5" stop-color="#400000"/>
<stop offset="0.62" stop-color="#240000"/>
<stop offset="0.75" stop-color="#100000"/>
<stop offset="0.88" stop-color="#040000"/>
<stop offset="1"/>
</radialGradient>
<radialGradient id="paint46_radial_97_156" cx="0" cy="0" r="1" gradientUnits="userSpaceOnUse" gradientTransform="translate(281.895 413.976) scale(7.09725 7.51646)">
<stop stop-color="#FF0000"/>
<stop offset="0.12" stop-color="#C60000"/>
<stop offset="0.24" stop-color="#920000"/>
<stop offset="0.37" stop-color="#650000"/>
<stop offset="0.5" stop-color="#400000"/>
<stop offset="0.62" stop-color="#240000"/>
<stop offset="0.75" stop-color="#100000"/>
<stop offset="0.88" stop-color="#040000"/>
<stop offset="1"/>
</radialGradient>
<radialGradient id="paint47_radial_97_156" cx="0" cy="0" r="1" gradientUnits="userSpaceOnUse" gradientTransform="translate(104.334 407.485) scale(7.09725 7.51645)">
<stop stop-color="#FF0000"/>
<stop offset="0.12" stop-color="#C60000"/>
<stop offset="0.24" stop-color="#920000"/>
<stop offset="0.37" stop-color="#650000"/>
<stop offset="0.5" stop-color="#400000"/>
<stop offset="0.62" stop-color="#240000"/>
<stop offset="0.75" stop-color="#100000"/>
<stop offset="0.88" stop-color="#040000"/>
<stop offset="1"/>
</radialGradient>
<radialGradient id="paint48_radial_97_156" cx="0" cy="0" r="1" gradientUnits="userSpaceOnUse" gradientTransform="translate(43.1617 299.698) scale(7.09725 7.51645)">
<stop stop-color="#FF0000"/>
<stop offset="0.12" stop-color="#C60000"/>
<stop offset="0.24" stop-color="#920000"/>
<stop offset="0.37" stop-color="#650000"/>
<stop offset="0.5" stop-color="#400000"/>
<stop offset="0.62" stop-color="#240000"/>
<stop offset="0.75" stop-color="#100000"/>
<stop offset="0.88" stop-color="#040000"/>
<stop offset="1"/>
</radialGradient>
<radialGradient id="paint49_radial_97_156" cx="0" cy="0" r="1" gradientUnits="userSpaceOnUse" gradientTransform="translate(127.866 460.85) scale(7.09725 7.51646)">
<stop stop-color="#FF0000"/>
<stop offset="0.12" stop-color="#C60000"/>
<stop offset="0.24" stop-color="#920000"/>
<stop offset="0.37" stop-color="#650000"/>
<stop offset="0.5" stop-color="#400000"/>
<stop offset="0.62" stop-color="#240000"/>
<stop offset="0.75" stop-color="#100000"/>
<stop offset="0.88" stop-color="#040000"/>
<stop offset="1"/>
</radialGradient>
<radialGradient id="paint50_radial_97_156" cx="0" cy="0" r="1" gradientUnits="userSpaceOnUse" gradientTransform="translate(229.497 478.379) scale(7.09725 7.51646)">
<stop stop-color="#FF0000"/>
<stop offset="0.12" stop-color="#C60000"/>
<stop offset="0.24" stop-color="#920000"/>
<stop offset="0.37" stop-color="#650000"/>
<stop offset="0.5" stop-color="#400000"/>
<stop offset="0.62" stop-color="#240000"/>
<stop offset="0.75" stop-color="#100000"/>
<stop offset="0.88" stop-color="#040000"/>
<stop offset="1"/>
</radialGradient>
<radialGradient id="paint51_radial_97_156" cx="0" cy="0" r="1" gradientUnits="userSpaceOnUse" gradientTransform="translate(149.591 581.466) scale(7.09725 7.51644)">
<stop stop-color="#FF0000"/>
<stop offset="0.12" stop-color="#C60000"/>
<stop offset="0.24" stop-color="#920000"/>
<stop offset="0.37" stop-color="#650000"/>
<stop offset="0.5" stop-color="#400000"/>
<stop offset="0.62" stop-color="#240000"/>
<stop offset="0.75" stop-color="#100000"/>
<stop offset="0.88" stop-color="#040000"/>
<stop offset="1"/>
</radialGradient>
<radialGradient id="paint52_radial_97_156" cx="0" cy="0" r="1" gradientUnits="userSpaceOnUse" gradientTransform="translate(216.618 543.608) scale(7.09726 7.51646)">
<stop stop-color="#FF0000"/>
<stop offset="0.12" stop-color="#C60000"/>
<stop offset="0.24" stop-color="#920000"/>
<stop offset="0.37" stop-color="#650000"/>
<stop offset="0.5" stop-color="#400000"/>
<stop offset="0.62" stop-color="#240000"/>
<stop offset="0.75" stop-color="#100000"/>
<stop offset="0.88" stop-color="#040000"/>
<stop offset="1"/>
</radialGradient>
<radialGradient id="paint53_radial_97_156" cx="0" cy="0" r="1" gradientUnits="userSpaceOnUse" gradientTransform="translate(190.426 158.906) scale(7.09725 7.51646)">
<stop stop-color="#FF0000"/>
<stop offset="0.12" stop-color="#C60000"/>
<stop offset="0.24" stop-color="#920000"/>
<stop offset="0.37" stop-color="#650000"/>
<stop offset="0.5" stop-color="#400000"/>
<stop offset="0.62" stop-color="#240000"/>
<stop offset="0.75" stop-color="#100000"/>
<stop offset="0.88" stop-color="#040000"/>
<stop offset="1"/>
</radialGradient>
<radialGradient id="paint54_radial_97_156" cx="0" cy="0" r="1" gradientUnits="userSpaceOnUse" gradientTransform="translate(165.477 183.109) scale(7.09725 7.51646)">
<stop stop-color="#FF0000"/>
<stop offset="0.12" stop-color="#C60000"/>
<stop offset="0.24" stop-color="#920000"/>
<stop offset="0.37" stop-color="#650000"/>
<stop offset="0.5" stop-color="#400000"/>
<stop offset="0.62" stop-color="#240000"/>
<stop offset="0.75" stop-color="#100000"/>
<stop offset="0.88" stop-color="#040000"/>
<stop offset="1"/>
</radialGradient>
<radialGradient id="paint55_radial_97_156" cx="0" cy="0" r="1" gradientUnits="userSpaceOnUse" gradientTransform="translate(151.196 79.5165) scale(7.09725 7.51646)">
<stop stop-color="#FF0000"/>
<stop offset="0.12" stop-color="#C60000"/>
<stop offset="0.24" stop-color="#920000"/>
<stop offset="0.37" stop-color="#650000"/>
<stop offset="0.5" stop-color="#400000"/>
<stop offset="0.62" stop-color="#240000"/>
<stop offset="0.75" stop-color="#100000"/>
<stop offset="0.88" stop-color="#040000"/>
<stop offset="1"/>
</radialGradient>
<radialGradient id="paint56_radial_97_156" cx="0" cy="0" r="1" gradientUnits="userSpaceOnUse" gradientTransform="translate(138.302 144.761) scale(7.09725 7.51646)">
<stop stop-color="#FF0000"/>
<stop offset="0.12" stop-color="#C60000"/>
<stop offset="0.24" stop-color="#920000"/>
<stop offset="0.37" stop-color="#650000"/>
<stop offset="0.5" stop-color="#400000"/>
<stop offset="0.62" stop-color="#240000"/>
<stop offset="0.75" stop-color="#100000"/>
<stop offset="0.88" stop-color="#040000"/>
<stop offset="1"/>
</radialGradient>
<radialGradient id="paint57_radial_97_156" cx="0" cy="0" r="1" gradientUnits="userSpaceOnUse" gradientTransform="translate(317.353 562.545) scale(7.09726 7.51646)">
<stop stop-color="#FF0000"/>
<stop offset="0.12" stop-color="#C60000"/>
<stop offset="0.24" stop-color="#920000"/>
<stop offset="0.37" stop-color="#650000"/>
<stop offset="0.5" stop-color="#400000"/>
<stop offset="0.62" stop-color="#240000"/>
<stop offset="0.75" stop-color="#100000"/>
<stop offset="0.88" stop-color="#040000"/>
<stop offset="1"/>
</radialGradient>
<radialGradient id="paint58_radial_97_156" cx="0" cy="0" r="1" gradientUnits="userSpaceOnUse" gradientTransform="translate(307.754 524.044) scale(7.09726 7.51646)">
<stop stop-color="#FF0000"/>
<stop offset="0.12" stop-color="#C60000"/>
<stop offset="0.24" stop-color="#920000"/>
<stop offset="0.37" stop-color="#650000"/>
<stop offset="0.5" stop-color="#400000"/>
<stop offset="0.62" stop-color="#240000"/>
<stop offset="0.75" stop-color="#100000"/>
<stop offset="0.88" stop-color="#040000"/>
<stop offset="1"/>
</radialGradient>
<radialGradient id="paint59_radial_97_156" cx="0" cy="0" r="1" gradientUnits="userSpaceOnUse" gradientTransform="translate(59.6978 178.44) scale(7.09725 7.51646)">
<stop stop-color="#FF0000"/>
<stop offset="0.12" stop-color="#C60000"/>
<stop offset="0.24" stop-color="#920000"/>
<stop offset="0.37" stop-color="#650000"/>
<stop offset="0.5" stop-color="#400000"/>
<stop offset="0.62" stop-color="#240000"/>
<stop offset="0.75" stop-color="#100000"/>
<stop offset="0.88" stop-color="#040000"/>
<stop offset="1"/>
</radialGradient>
<radialGradient id="paint60_radial_97_156" cx="0" cy="0" r="1" gradientUnits="userSpaceOnUse" gradientTransform="translate(50.0997 139.954) scale(7.09725 7.51646)">
<stop stop-color="#FF0000"/>
<stop offset="0.12" stop-color="#C60000"/>
<stop offset="0.24" stop-color="#920000"/>
<stop offset="0.37" stop-color="#650000"/>
<stop offset="0.5" stop-color="#400000"/>
<stop offset="0.62" stop-color="#240000"/>
<stop offset="0.75" stop-color="#100000"/>
<stop offset="0.88" stop-color="#040000"/>
<stop offset="1"/>
</radialGradient>
<radialGradient id="paint61_radial_97_156" cx="0" cy="0" r="1" gradientUnits="userSpaceOnUse" gradientTransform="translate(42.8768 422.41) scale(19.1236 20.2531)">
<stop stop-color="#FF0000"/>
<stop offset="0.12" stop-color="#C60000"/>
<stop offset="0.24" stop-color="#920000"/>
<stop offset="0.37" stop-color="#650000"/>
<stop offset="0.5" stop-color="#400000"/>
<stop offset="0.62" stop-color="#240000"/>
<stop offset="0.75" stop-color="#100000"/>
<stop offset="0.88" stop-color="#040000"/>
<stop offset="1"/>
</radialGradient>
<radialGradient id="paint62_radial_97_156" cx="0" cy="0" r="1" gradientUnits="userSpaceOnUse" gradientTransform="translate(96.4334 227.933) scale(19.1236 20.2531)">
<stop stop-color="#FF0000"/>
<stop offset="0.12" stop-color="#C60000"/>
<stop offset="0.24" stop-color="#920000"/>
<stop offset="0.37" stop-color="#650000"/>
<stop offset="0.5" stop-color="#400000"/>
<stop offset="0.62" stop-color="#240000"/>
<stop offset="0.75" stop-color="#100000"/>
<stop offset="0.88" stop-color="#040000"/>
<stop offset="1"/>
</radialGradient>
<radialGradient id="paint63_radial_97_156" cx="0" cy="0" r="1" gradientUnits="userSpaceOnUse" gradientTransform="translate(139.289 312.205) scale(19.1236 20.2531)">
<stop stop-color="#FF0000"/>
<stop offset="0.12" stop-color="#C60000"/>
<stop offset="0.24" stop-color="#920000"/>
<stop offset="0.37" stop-color="#650000"/>
<stop offset="0.5" stop-color="#400000"/>
<stop offset="0.62" stop-color="#240000"/>
<stop offset="0.75" stop-color="#100000"/>
<stop offset="0.88" stop-color="#040000"/>
<stop offset="1"/>
</radialGradient>
<radialGradient id="paint64_radial_97_156" cx="0" cy="0" r="1" gradientUnits="userSpaceOnUse" gradientTransform="translate(45.2286 193.274) scale(7.09725 7.51646)">
<stop stop-color="#FF0000"/>
<stop offset="0.12" stop-color="#C60000"/>
<stop offset="0.24" stop-color="#920000"/>
<stop offset="0.37" stop-color="#650000"/>
<stop offset="0.5" stop-color="#400000"/>
<stop offset="0.62" stop-color="#240000"/>
<stop offset="0.75" stop-color="#100000"/>
<stop offset="0.88" stop-color="#040000"/>
<stop offset="1"/>
</radialGradient>
<radialGradient id="paint65_radial_97_156" cx="0" cy="0" r="1" gradientUnits="userSpaceOnUse" gradientTransform="translate(133.07 277.44) scale(7.09725 7.51646)">
<stop stop-color="#FF0000"/>
<stop offset="0.12" stop-color="#C60000"/>
<stop offset="0.24" stop-color="#920000"/>
<stop offset="0.37" stop-color="#650000"/>
<stop offset="0.5" stop-color="#400000"/>
<stop offset="0.62" stop-color="#240000"/>
<stop offset="0.75" stop-color="#100000"/>
<stop offset="0.88" stop-color="#040000"/>
<stop offset="1"/>
</radialGradient>
<radialGradient id="paint66_radial_97_156" cx="0" cy="0" r="1" gradientUnits="userSpaceOnUse" gradientTransform="translate(123.472 238.939) scale(7.09725 7.51646)">
<stop stop-color="#FF0000"/>
<stop offset="0.12" stop-color="#C60000"/>
<stop offset="0.24" stop-color="#920000"/>
<stop offset="0.37" stop-color="#650000"/>
<stop offset="0.5" stop-color="#400000"/>
<stop offset="0.62" stop-color="#240000"/>
<stop offset="0.75" stop-color="#100000"/>
<stop offset="0.88" stop-color="#040000"/>
<stop offset="1"/>
</radialGradient>
<clipPath id="clip0_97_156">
<rect width="324.45" height="600" fill="white" transform="translate(0 30)"/>
</clipPath>
</defs>
</svg>
