<svg width="314" height="620" viewBox="0 0 314 620" fill="none" xmlns="http://www.w3.org/2000/svg">
<path style="mix-blend-mode:screen" opacity="0.24" d="M285.463 388.358C286.299 358.263 301.015 348.319 284.296 312.859C267.576 277.399 237.35 286.48 223.153 275.272C210.094 264.958 203.781 251.283 201.878 245.208C203.608 251.344 210.007 275.519 205.914 282.487C201.215 290.489 184.394 289.255 177.087 273.853C169.779 258.452 151.315 259.392 139.337 265.991C127.359 272.589 107.685 277.939 106.041 264.063C104.398 250.188 107.641 242.448 121.363 252.053C135.085 261.658 148.562 266.052 164.777 245.039C180.993 224.025 173.757 217.303 168.02 203.998C162.284 190.692 176.755 190.955 186.239 195.749C195.723 200.56 198.52 227.232 198.52 227.232C198.52 227.232 196.977 204.013 216.176 188.272C235.39 172.531 238.374 153.845 226.655 143.176C214.937 132.508 198.967 121.299 220.674 100.748C220.674 100.748 201.215 103.677 198.476 91.9446C195.738 80.1966 212.948 71.3933 224.421 77.2673C235.894 83.1413 223.917 97.8186 223.917 97.8186C223.917 97.8186 239.887 95.3981 244.874 87.9361C249.861 80.4741 236.644 73.5363 247.613 54.3264C258.596 35.1164 251.85 12.4375 234.885 2.55505C217.921 -7.31203 206.447 14.303 190.722 18.2961C175.011 22.3046 164.532 19.8995 150.061 4.15845C150.061 4.15845 168.28 34.8389 187.234 30.8458C206.188 26.8373 223.153 20.7012 237.379 41.7921C251.605 62.8676 230.893 72.4726 218.67 66.0744C206.447 59.6762 177 59.6762 168.02 77.2828C159.041 94.8893 178.254 105.574 189.482 116.504C200.711 127.451 192.221 141.85 181.252 144.795C170.269 147.724 160.05 124.244 160.05 124.244C160.05 124.244 166.536 142.282 146.832 156.219C127.129 170.141 106.272 165.346 109.097 148.264C111.922 131.182 143.344 95.9685 157.815 115.703C157.815 115.703 157.311 97.5565 128.123 105.296C98.9355 113.036 76.724 146.075 81.2211 170.249C85.7181 194.423 101.054 186.946 109.602 218.968C109.602 218.968 112.412 192.543 120.888 188.287C129.363 184.017 138.847 213.109 139.106 230.176C139.366 247.243 130.04 244.468 115.828 240.09C101.616 235.711 65.2651 238.887 65.2651 270.292C65.2651 301.697 75.7439 306.754 93.2133 291.553C110.683 276.336 116.837 282.857 125.486 295.746C134.134 308.635 129.42 318.78 106.085 330.25C82.7489 341.72 25.8581 369.364 15.8838 417.728C5.90953 466.077 33.3532 477.994 50.8082 504.866C68.2776 531.739 81.7688 560.739 81.7688 560.739C81.7688 560.739 263.439 562.974 269.017 545.476C274.595 527.977 285.175 529.657 286.112 512.282C287.063 494.907 280.98 486.15 295.005 471.843C309.015 457.535 312.085 439.22 304.821 432.636C297.556 426.053 284.656 418.468 285.492 388.373L285.463 388.358ZM87.7649 398.364C75.4124 420.981 43.0392 445.402 30.5137 435.797C18.9827 426.963 33.3676 386.616 58.8798 365.556C96.932 334.12 100.132 375.746 87.7649 398.379V398.364ZM94.4384 358.155C92.8673 348.658 100.161 329.818 113.58 337.28C126.999 344.742 96.687 371.769 94.4384 358.155ZM147.452 281.685C142.277 284.368 133.038 273.684 139.222 271.279C145.391 268.874 152.641 279.003 147.452 281.685ZM178.513 292.293C166.291 298.105 141.283 274.486 155.509 268.473C169.736 262.475 185.937 288.762 178.513 292.293ZM270.386 350.123C264.779 393.677 194.051 303.917 208.638 293.202C221.942 283.428 274.725 316.452 270.386 350.123Z" fill="url(#paint0_linear_97_157)"/>
<path d="M167.213 322.974C222.129 316.792 276.8 415.725 276.786 493.859C276.771 557.687 242.481 624.398 171.681 619.773C-0.692096 608.533 81.711 332.594 167.213 322.974Z" fill="url(#paint1_linear_97_157)"/>
<path style="mix-blend-mode:screen" opacity="0.85" d="M114.099 384.15C124.635 389.684 155.308 383.024 173.051 368.979C190.794 354.918 180.935 339.886 180.935 339.886C180.676 347.903 175.025 359.143 163.336 367.576C151.646 376.009 118.927 380.511 116.953 372.355C115.973 368.285 115.612 361.625 119.821 354.641C117.745 357.2 115.728 359.898 113.738 362.704C111.994 365.695 104.744 379.262 114.099 384.165V384.15Z" fill="url(#paint2_linear_97_157)"/>
<path style="mix-blend-mode:screen" opacity="0.85" d="M150.176 334.969C184.856 324.285 168.179 341.151 160.295 349.446C152.41 357.74 133.211 364.894 142.422 356.199C161.635 338.052 153.737 351.99 153.737 351.99C174.521 327.461 155.697 338.916 140.462 356.769C125.226 374.622 133.759 373.497 155.697 359.159C177.461 344.944 192.091 326.166 179.35 323.344C178.211 323.159 177.072 322.99 175.934 322.897C173.109 322.712 169.721 322.851 166.075 323.19C152.425 325.102 138.876 333.751 126.466 346.979C131.612 342.585 139.164 338.392 150.191 335L150.176 334.969Z" fill="url(#paint3_linear_97_157)"/>
<path style="mix-blend-mode:screen" opacity="0.85" d="M271.813 535.425C261.017 569.358 220.342 597.618 188.617 597.078C158.939 596.57 143.805 584.945 141.974 583.449C156.547 595.213 163.71 608.271 133.629 601.272C103.418 594.242 108.405 584.683 108.405 584.683C108.405 584.683 103.144 586.934 98.6757 584.683C94.2075 582.432 92.3625 570.638 110.063 563.33C127.763 556.022 153.592 575.695 196.674 574.014C239.771 572.334 241.083 549.007 241.083 549.007C237.148 559.969 219.275 569.528 217.704 561.942C216.133 554.357 232.161 548.175 248.967 542.27C263.612 537.136 274.465 524.725 276.469 503.757C276.656 500.458 276.771 497.174 276.771 493.89C276.771 462.208 267.792 427.102 253.45 396.977C253.508 397.116 276.022 454.36 255.54 497.313C235.044 540.312 203.91 547.481 203.91 547.481C227.03 527.67 227.159 500.258 227.159 500.258C203.507 556.192 132.303 562.651 108.78 554.496C85.2566 546.34 84.8674 532.572 115.223 528.209C145.578 523.846 166.204 547.034 166.204 547.034C160.943 535.656 132.706 501.368 108.261 508.383C83.8296 515.413 77.3867 544.783 77.3867 544.783C79.2317 536.627 86.4529 530.722 88.1537 539.31C89.8546 547.82 85.1989 566.552 81.7252 560.755C90.1573 580.32 103.721 596.616 123.64 607.146C124.116 607.392 124.534 607.593 124.995 607.824C126.22 608.456 127.474 609.058 128.757 609.643C149.21 618.693 154.86 608.21 173.944 606.915C194.556 605.512 210.872 613.374 200.09 617.321C199.644 617.491 199.254 617.645 198.865 617.799C210.728 615.132 221.221 610.152 230.345 603.369C215.239 613.821 191.673 605.789 191.673 605.789C191.673 605.789 221.884 608.595 235.289 588.923C248.693 569.25 257.889 572.904 246.848 586.949C245.868 588.198 245.205 589.185 244.686 590.063C257.702 575.217 266.725 556.068 271.799 535.378C271.799 535.378 271.799 535.409 271.799 535.425H271.813Z" fill="url(#paint4_linear_97_157)"/>
<path style="mix-blend-mode:screen" opacity="0.85" d="M97.2778 409.959C95.3464 442.566 161.563 435.259 197.121 412.025C232.68 388.791 218.324 358.434 218.324 358.434C218.324 358.434 231.815 379.417 221.12 404.147C214.331 419.857 198.361 425.654 187.608 427.797C202.93 426.193 229.639 424.312 231.628 430.572C234.424 439.375 217.791 462.609 194.311 480.416C170.831 498.223 117.053 508.522 111.634 483.977C107.166 463.781 137.679 443.846 148.634 437.417C142.609 440.562 129.392 446.513 108.665 451C79.3328 457.352 83.2389 425.746 90.9358 404.378C80.3994 429.477 73.2214 457.799 71.2179 485.473C73.4088 478.396 76.6807 472.306 81.5093 468.421C102.712 451.37 111.634 454.931 99.5552 483.977C87.5054 512.931 72.6737 525.851 70.6558 501.985C70.7278 515.506 72.1548 528.688 75.1817 541.037C67.4415 509.709 117.76 499.009 150.363 507.396C183.126 515.83 200.465 521.827 224.291 486.598C248.117 451.37 247.411 426.455 247.411 426.455C246.243 441.58 231.642 466.371 227.261 462.054C222.879 457.737 229.711 447.993 236.831 439.992C243.937 432.006 256.246 404.131 244.182 379.51C232.839 360.223 219.275 344.173 204.674 334.106C224.508 347.55 213.899 383.164 213.899 383.164C218.108 358.712 195.767 342.554 195.767 342.554C205.885 352.807 212.587 370.938 194.196 387.388C175.804 403.823 153.736 403.129 153.736 403.129C153.736 403.129 164.633 404.116 162.139 408.463C159.646 412.826 147.164 418.438 123.914 413.659C100.91 408.926 101.833 380.974 109.198 369.365C107.901 371.385 106.618 373.435 105.378 375.547C101.573 384.767 98.085 396.515 97.2923 409.959H97.2778Z" fill="url(#paint5_linear_97_157)"/>
<path style="mix-blend-mode:multiply" opacity="0.81" d="M171.667 619.773C242.452 624.382 276.757 557.687 276.772 493.859C276.786 422.446 231.109 333.689 181.31 323.683C198.375 328.108 252.412 360.453 233.53 462.146C214.461 564.779 80.2264 587.735 71.189 514.657L71.1313 514.796C75.0951 569.312 103.375 615.302 171.667 619.757V619.773Z" fill="url(#paint6_linear_97_157)"/>
<path style="mix-blend-mode:screen" d="M181.31 323.683C176.625 322.743 171.912 322.45 167.199 322.974C115.569 328.786 65.0922 431.697 71.1315 514.812L71.1891 514.673C75.3691 548.514 106.431 561.727 140.461 555.991C84.6515 557.471 120.686 461.684 171.134 409.697C215.816 363.645 233.689 386.416 236.831 407.708C231.642 348.351 194.859 327.214 181.31 323.699V323.683Z" fill="url(#paint7_linear_97_157)"/>
<path style="mix-blend-mode:screen" d="M112.47 366.882C148.951 307.079 196.559 313.693 219.679 378.522C242.799 443.352 144.31 553.725 106.171 516.137C68.0325 478.535 86.2082 409.958 112.484 366.882H112.47Z" fill="url(#paint8_linear_97_157)"/>
<g style="mix-blend-mode:screen">
<path d="M115.828 379.91C116.621 370.259 137.506 338.036 155.12 338.869C172.719 339.717 112.009 426.563 115.828 379.91Z" fill="#FFFF9F"/>
</g>
<g style="mix-blend-mode:screen">
<path d="M113.493 410.005C114.517 404.901 114.92 386.863 108.578 392.691C102.236 398.519 109.4 430.386 113.493 410.005Z" fill="#FFFF9F"/>
</g>
<path style="mix-blend-mode:screen" opacity="0.46" d="M273.932 488.895C273.932 470.687 270.963 451.354 265.716 432.499C282.825 530.383 189.54 650.021 103.303 590.079C118.985 603.924 140.447 612.974 168.827 614.824C239.613 619.433 273.918 552.738 273.932 488.91V488.895Z" fill="url(#paint9_linear_97_157)"/>
<path style="mix-blend-mode:screen" d="M175 617.933C229.124 617.933 273 552.239 273 471.2C273 390.162 229.124 324.467 175 324.467C120.876 324.467 77 390.162 77 471.2C77 552.239 120.876 617.933 175 617.933Z" fill="url(#paint10_radial_97_157)"/>
<g opacity="0.65">
<g style="mix-blend-mode:screen">
<path d="M155.668 364.785C155.811 364.785 155.928 364.661 155.928 364.507C155.928 364.354 155.811 364.23 155.668 364.23C155.525 364.23 155.409 364.354 155.409 364.507C155.409 364.661 155.525 364.785 155.668 364.785Z" fill="#FFFF7E"/>
</g>
<path style="mix-blend-mode:screen" opacity="0.69" d="M162.226 364.507C162.226 368.377 159.286 371.522 155.668 371.522C152.05 371.522 149.11 368.377 149.11 364.507C149.11 360.637 152.05 357.492 155.668 357.492C159.286 357.492 162.226 360.637 162.226 364.507Z" fill="url(#paint11_radial_97_157)"/>
</g>
<g opacity="0.65">
<g style="mix-blend-mode:screen">
<path d="M152.901 331.823C153.044 331.823 153.16 331.698 153.16 331.545C153.16 331.392 153.044 331.268 152.901 331.268C152.757 331.268 152.641 331.392 152.641 331.545C152.641 331.698 152.757 331.823 152.901 331.823Z" fill="#FFFF7E"/>
</g>
<path style="mix-blend-mode:screen" opacity="0.69" d="M159.459 331.545C159.459 335.415 156.518 338.56 152.901 338.56C149.283 338.56 146.342 335.415 146.342 331.545C146.342 327.675 149.283 324.53 152.901 324.53C156.518 324.53 159.459 327.675 159.459 331.545Z" fill="url(#paint12_radial_97_157)"/>
</g>
<g opacity="0.65">
<g style="mix-blend-mode:screen">
<path d="M199.356 417.512C199.499 417.512 199.615 417.388 199.615 417.234C199.615 417.081 199.499 416.957 199.356 416.957C199.212 416.957 199.096 417.081 199.096 417.234C199.096 417.388 199.212 417.512 199.356 417.512Z" fill="#FFFF7E"/>
</g>
<path style="mix-blend-mode:screen" opacity="0.69" d="M205.914 417.234C205.914 421.104 202.973 424.249 199.356 424.249C195.738 424.249 192.797 421.104 192.797 417.234C192.797 413.364 195.738 410.219 199.356 410.219C202.973 410.219 205.914 413.364 205.914 417.234Z" fill="url(#paint13_radial_97_157)"/>
</g>
<g opacity="0.65">
<g style="mix-blend-mode:screen">
<path d="M202.815 483.375C202.958 483.375 203.075 483.25 203.075 483.097C203.075 482.944 202.958 482.82 202.815 482.82C202.672 482.82 202.556 482.944 202.556 483.097C202.556 483.25 202.672 483.375 202.815 483.375Z" fill="#FFFF7E"/>
</g>
<path style="mix-blend-mode:screen" opacity="0.69" d="M209.373 483.097C209.373 486.967 206.433 490.112 202.815 490.112C199.197 490.112 196.257 486.967 196.257 483.097C196.257 479.227 199.197 476.082 202.815 476.082C206.433 476.082 209.373 479.227 209.373 483.097Z" fill="url(#paint14_radial_97_157)"/>
</g>
<g opacity="0.65">
<g style="mix-blend-mode:screen">
<path d="M134.696 459.077C134.696 459.231 134.581 459.354 134.437 459.354C134.293 459.354 134.177 459.231 134.177 459.077C134.177 458.923 134.293 458.799 134.437 458.799C134.581 458.799 134.696 458.923 134.696 459.077Z" fill="#FFFF7E"/>
</g>
<path style="mix-blend-mode:screen" opacity="0.69" d="M140.995 459.077C140.995 462.947 138.054 466.092 134.437 466.092C130.819 466.092 127.878 462.947 127.878 459.077C127.878 455.207 130.819 452.062 134.437 452.062C138.054 452.062 140.995 455.207 140.995 459.077Z" fill="url(#paint15_radial_97_157)"/>
</g>
<g opacity="0.65">
<g style="mix-blend-mode:screen">
<path d="M279.525 556.252C279.668 556.252 279.784 556.128 279.784 555.975C279.784 555.821 279.668 555.697 279.525 555.697C279.381 555.697 279.265 555.821 279.265 555.975C279.265 556.128 279.381 556.252 279.525 556.252Z" fill="#FFFF7E"/>
</g>
<path style="mix-blend-mode:screen" opacity="0.69" d="M286.097 555.975C286.097 559.845 283.157 562.99 279.539 562.99C275.921 562.99 272.981 559.845 272.981 555.975C272.981 552.105 275.921 548.96 279.539 548.96C283.157 548.96 286.097 552.105 286.097 555.975Z" fill="url(#paint16_radial_97_157)"/>
</g>
<g opacity="0.65">
<g style="mix-blend-mode:screen">
<path d="M288.678 514.934C288.678 515.088 288.562 515.211 288.418 515.211C288.274 515.211 288.159 515.088 288.159 514.934C288.159 514.78 288.274 514.656 288.418 514.656C288.562 514.656 288.678 514.78 288.678 514.934Z" fill="#FFFF7E"/>
</g>
<path style="mix-blend-mode:screen" opacity="0.69" d="M294.976 514.934C294.976 518.803 292.036 521.948 288.418 521.948C284.8 521.948 281.86 518.803 281.86 514.934C281.86 511.064 284.8 507.919 288.418 507.919C292.036 507.919 294.976 511.064 294.976 514.934Z" fill="url(#paint17_radial_97_157)"/>
</g>
<g opacity="0.65">
<g style="mix-blend-mode:screen">
<path d="M306.608 439.651C306.751 439.651 306.868 439.527 306.868 439.374C306.868 439.221 306.751 439.096 306.608 439.096C306.465 439.096 306.349 439.221 306.349 439.374C306.349 439.527 306.465 439.651 306.608 439.651Z" fill="#FFFF7E"/>
</g>
<path style="mix-blend-mode:screen" opacity="0.69" d="M313.166 439.374C313.166 443.243 310.226 446.389 306.608 446.389C302.99 446.389 300.05 443.243 300.05 439.374C300.05 435.504 302.99 432.359 306.608 432.359C310.226 432.359 313.166 435.504 313.166 439.374Z" fill="url(#paint18_radial_97_157)"/>
</g>
<g opacity="0.65">
<g style="mix-blend-mode:screen">
<path d="M61.6042 204.552C61.7475 204.552 61.8636 204.428 61.8636 204.275C61.8636 204.122 61.7475 203.997 61.6042 203.997C61.4609 203.997 61.3447 204.122 61.3447 204.275C61.3447 204.428 61.4609 204.552 61.6042 204.552Z" fill="#FFFF7E"/>
</g>
<path style="mix-blend-mode:screen" opacity="0.69" d="M68.1624 204.275C68.1624 208.145 65.222 211.29 61.6041 211.29C57.9863 211.29 55.0459 208.145 55.0459 204.275C55.0459 200.405 57.9863 197.26 61.6041 197.26C65.222 197.26 68.1624 200.405 68.1624 204.275Z" fill="url(#paint19_radial_97_157)"/>
</g>
<g opacity="0.65">
<g style="mix-blend-mode:screen">
<path d="M70.7425 163.235C70.7425 163.389 70.6272 163.512 70.4831 163.512C70.3389 163.512 70.2236 163.389 70.2236 163.235C70.2236 163.08 70.3389 162.957 70.4831 162.957C70.6272 162.957 70.7425 163.08 70.7425 163.235Z" fill="#FFFF7E"/>
</g>
<path style="mix-blend-mode:screen" opacity="0.69" d="M77.0559 163.235C77.0559 167.104 74.1155 170.249 70.4977 170.249C66.8798 170.249 63.9395 167.104 63.9395 163.235C63.9395 159.365 66.8798 156.22 70.4977 156.22C74.1155 156.22 77.0559 159.365 77.0559 163.235Z" fill="url(#paint20_radial_97_157)"/>
</g>
<g opacity="0.65">
<g style="mix-blend-mode:screen">
<path d="M88.9325 87.6738C88.9325 87.8279 88.8172 87.9513 88.673 87.9513C88.5289 87.9513 88.4136 87.8279 88.4136 87.6738C88.4136 87.5196 88.5289 87.3962 88.673 87.3962C88.8172 87.3962 88.9325 87.5196 88.9325 87.6738Z" fill="#FFFF7E"/>
</g>
<path style="mix-blend-mode:screen" opacity="0.69" d="M95.2459 87.6741C95.2459 91.5438 92.3055 94.6889 88.6876 94.6889C85.0698 94.6889 82.1294 91.5438 82.1294 87.6741C82.1294 83.8043 85.0698 80.6592 88.6876 80.6592C92.3055 80.6592 95.2459 83.8043 95.2459 87.6741Z" fill="url(#paint21_radial_97_157)"/>
</g>
<g opacity="0.65">
<g style="mix-blend-mode:screen">
<path d="M109.213 417.99C109.213 418.144 109.097 418.267 108.953 418.267C108.809 418.267 108.694 418.144 108.694 417.99C108.694 417.835 108.809 417.712 108.953 417.712C109.097 417.712 109.213 417.835 109.213 417.99Z" fill="#FFFF7E"/>
</g>
<path style="mix-blend-mode:screen" opacity="0.69" d="M115.511 417.99C115.511 421.859 112.571 425.005 108.953 425.005C105.335 425.005 102.395 421.859 102.395 417.99C102.395 414.12 105.335 410.975 108.953 410.975C112.571 410.975 115.511 414.12 115.511 417.99Z" fill="url(#paint22_radial_97_157)"/>
</g>
<g opacity="0.65">
<g style="mix-blend-mode:screen">
<path d="M46.7004 452.339C46.8437 452.339 46.9598 452.215 46.9598 452.062C46.9598 451.909 46.8437 451.784 46.7004 451.784C46.5571 451.784 46.4409 451.909 46.4409 452.062C46.4409 452.215 46.5571 452.339 46.7004 452.339Z" fill="#FFFF7E"/>
</g>
<path style="mix-blend-mode:screen" opacity="0.69" d="M53.2586 452.062C53.2586 455.932 50.3182 459.077 46.7003 459.077C43.0825 459.077 40.1421 455.932 40.1421 452.062C40.1421 448.192 43.0825 445.047 46.7003 445.047C50.3182 445.047 53.2586 448.192 53.2586 452.062Z" fill="url(#paint23_radial_97_157)"/>
</g>
<g opacity="0.65">
<g style="mix-blend-mode:screen">
<path d="M63.4782 471.504C63.6215 471.504 63.7376 471.379 63.7376 471.226C63.7376 471.073 63.6215 470.949 63.4782 470.949C63.3349 470.949 63.2188 471.073 63.2188 471.226C63.2188 471.379 63.3349 471.504 63.4782 471.504Z" fill="#FFFF7E"/>
</g>
<path style="mix-blend-mode:screen" opacity="0.69" d="M70.0364 471.226C70.0364 475.096 67.096 478.241 63.4782 478.241C59.8603 478.241 56.9199 475.096 56.9199 471.226C56.9199 467.356 59.8603 464.211 63.4782 464.211C67.096 464.211 70.0364 467.356 70.0364 471.226Z" fill="url(#paint24_radial_97_157)"/>
</g>
<g opacity="0.65">
<g style="mix-blend-mode:screen">
<path d="M85.2424 315.372C85.3856 315.372 85.5018 315.248 85.5018 315.095C85.5018 314.941 85.3856 314.817 85.2424 314.817C85.0991 314.817 84.9829 314.941 84.9829 315.095C84.9829 315.248 85.0991 315.372 85.2424 315.372Z" fill="#FFFF7E"/>
</g>
<path style="mix-blend-mode:screen" opacity="0.69" d="M91.8152 315.095C91.8152 318.964 88.8748 322.11 85.257 322.11C81.6391 322.11 78.6987 318.964 78.6987 315.095C78.6987 311.225 81.6391 308.08 85.257 308.08C88.8748 308.08 91.8152 311.225 91.8152 315.095Z" fill="url(#paint25_radial_97_157)"/>
</g>
<g opacity="0.65">
<g style="mix-blend-mode:screen">
<path d="M52.5667 339.284C52.5667 339.439 52.4514 339.562 52.3073 339.562C52.1632 339.562 52.0479 339.439 52.0479 339.284C52.0479 339.13 52.1632 339.007 52.3073 339.007C52.4514 339.007 52.5667 339.13 52.5667 339.284Z" fill="#FFFF7E"/>
</g>
<path style="mix-blend-mode:screen" opacity="0.69" d="M58.8801 339.284C58.8801 343.154 55.9397 346.299 52.3219 346.299C48.7041 346.299 45.7637 343.154 45.7637 339.284C45.7637 335.415 48.7041 332.27 52.3219 332.27C55.9397 332.27 58.8801 335.415 58.8801 339.284Z" fill="url(#paint26_radial_97_157)"/>
</g>
<g opacity="0.65">
<g style="mix-blend-mode:screen">
<path d="M49.8859 317.669C50.0292 317.669 50.1454 317.545 50.1454 317.392C50.1454 317.238 50.0292 317.114 49.8859 317.114C49.7426 317.114 49.6265 317.238 49.6265 317.392C49.6265 317.545 49.7426 317.669 49.8859 317.669Z" fill="#FFFF7E"/>
</g>
<path style="mix-blend-mode:screen" opacity="0.69" d="M56.4441 317.392C56.4441 321.262 53.5037 324.407 49.8859 324.407C46.268 324.407 43.3276 321.262 43.3276 317.392C43.3276 313.522 46.268 310.377 49.8859 310.377C53.5037 310.377 56.4441 313.522 56.4441 317.392Z" fill="url(#paint27_radial_97_157)"/>
</g>
<g opacity="0.65">
<g style="mix-blend-mode:screen">
<path d="M6.81772 311.487C6.81772 311.641 6.70241 311.764 6.55828 311.764C6.41414 311.764 6.29883 311.641 6.29883 311.487C6.29883 311.333 6.41414 311.209 6.55828 311.209C6.70241 311.209 6.81772 311.333 6.81772 311.487Z" fill="#FFFF7E"/>
</g>
<path style="mix-blend-mode:screen" opacity="0.69" d="M13.1165 311.487C13.1165 315.357 10.1761 318.502 6.55823 318.502C2.94039 318.502 0 315.357 0 311.487C0 307.617 2.94039 304.472 6.55823 304.472C10.1761 304.472 13.1165 307.617 13.1165 311.487Z" fill="url(#paint28_radial_97_157)"/>
</g>
<g opacity="0.65">
<g style="mix-blend-mode:screen">
<path d="M96.3122 231.857C96.4555 231.857 96.5716 231.733 96.5716 231.579C96.5716 231.426 96.4555 231.302 96.3122 231.302C96.1689 231.302 96.0527 231.426 96.0527 231.579C96.0527 231.733 96.1689 231.857 96.3122 231.857Z" fill="#FFFF7E"/>
</g>
<path style="mix-blend-mode:screen" opacity="0.69" d="M102.87 231.579C102.87 235.449 99.93 238.594 96.3121 238.594C92.6943 238.594 89.7539 235.449 89.7539 231.579C89.7539 227.71 92.6943 224.564 96.3121 224.564C99.93 224.564 102.87 227.71 102.87 231.579Z" fill="url(#paint29_radial_97_157)"/>
</g>
<g opacity="0.65">
<g style="mix-blend-mode:screen">
<path d="M189.223 247.382C189.366 247.382 189.482 247.257 189.482 247.104C189.482 246.951 189.366 246.827 189.223 246.827C189.08 246.827 188.963 246.951 188.963 247.104C188.963 247.257 189.08 247.382 189.223 247.382Z" fill="#FFFF7E"/>
</g>
<path style="mix-blend-mode:screen" opacity="0.69" d="M195.781 247.104C195.781 250.974 192.841 254.119 189.223 254.119C185.605 254.119 182.665 250.974 182.665 247.104C182.665 243.234 185.605 240.089 189.223 240.089C192.841 240.089 195.781 243.234 195.781 247.104Z" fill="url(#paint30_radial_97_157)"/>
</g>
<g opacity="0.65">
<g style="mix-blend-mode:screen">
<path d="M199.039 295.469C199.039 295.623 198.924 295.746 198.779 295.746C198.635 295.746 198.52 295.623 198.52 295.469C198.52 295.314 198.635 295.191 198.779 295.191C198.924 295.191 199.039 295.314 199.039 295.469Z" fill="#FFFF7E"/>
</g>
<path style="mix-blend-mode:screen" opacity="0.69" d="M205.338 295.469C205.338 299.338 202.397 302.484 198.779 302.484C195.162 302.484 192.221 299.338 192.221 295.469C192.221 291.599 195.162 288.454 198.779 288.454C202.397 288.454 205.338 291.599 205.338 295.469Z" fill="url(#paint31_radial_97_157)"/>
</g>
<g opacity="0.65">
<g style="mix-blend-mode:screen">
<path d="M235.131 295.468C235.274 295.468 235.39 295.344 235.39 295.191C235.39 295.038 235.274 294.913 235.131 294.913C234.987 294.913 234.871 295.038 234.871 295.191C234.871 295.344 234.987 295.468 235.131 295.468Z" fill="#FFFF7E"/>
</g>
<path style="mix-blend-mode:screen" opacity="0.69" d="M241.689 295.191C241.689 299.061 238.748 302.206 235.131 302.206C231.513 302.206 228.572 299.061 228.572 295.191C228.572 291.321 231.513 288.176 235.131 288.176C238.748 288.176 241.689 291.321 241.689 295.191Z" fill="url(#paint32_radial_97_157)"/>
</g>
<g opacity="0.65">
<g style="mix-blend-mode:screen">
<path d="M109.342 159.935C109.486 159.935 109.602 159.811 109.602 159.657C109.602 159.504 109.486 159.38 109.342 159.38C109.199 159.38 109.083 159.504 109.083 159.657C109.083 159.811 109.199 159.935 109.342 159.935Z" fill="#FFFF7E"/>
</g>
<path style="mix-blend-mode:screen" opacity="0.69" d="M115.901 159.657C115.901 163.527 112.96 166.672 109.342 166.672C105.725 166.672 102.784 163.527 102.784 159.657C102.784 155.788 105.725 152.643 109.342 152.643C112.96 152.643 115.901 155.788 115.901 159.657Z" fill="url(#paint33_radial_97_157)"/>
</g>
<g opacity="0.65">
<g style="mix-blend-mode:screen">
<path d="M118.899 208.299C119.042 208.299 119.158 208.174 119.158 208.021C119.158 207.868 119.042 207.744 118.899 207.744C118.755 207.744 118.639 207.868 118.639 208.021C118.639 208.174 118.755 208.299 118.899 208.299Z" fill="#FFFF7E"/>
</g>
<path style="mix-blend-mode:screen" opacity="0.69" d="M125.457 208.021C125.457 211.891 122.516 215.036 118.899 215.036C115.281 215.036 112.34 211.891 112.34 208.021C112.34 204.151 115.281 201.006 118.899 201.006C122.516 201.006 125.457 204.151 125.457 208.021Z" fill="url(#paint34_radial_97_157)"/>
</g>
<g opacity="0.65">
<g style="mix-blend-mode:screen">
<path d="M155.509 207.744C155.509 207.898 155.394 208.022 155.25 208.022C155.106 208.022 154.99 207.898 154.99 207.744C154.99 207.59 155.106 207.467 155.25 207.467C155.394 207.467 155.509 207.59 155.509 207.744Z" fill="#FFFF7E"/>
</g>
<path style="mix-blend-mode:screen" opacity="0.69" d="M161.823 207.744C161.823 211.614 158.882 214.759 155.264 214.759C151.646 214.759 148.706 211.614 148.706 207.744C148.706 203.874 151.646 200.729 155.264 200.729C158.882 200.729 161.823 203.874 161.823 207.744Z" fill="url(#paint35_radial_97_157)"/>
</g>
<g opacity="0.65">
<g style="mix-blend-mode:screen">
<path d="M184.207 580.396C184.207 580.55 184.092 580.673 183.947 580.673C183.803 580.673 183.688 580.55 183.688 580.396C183.688 580.241 183.803 580.118 183.947 580.118C184.092 580.118 184.207 580.241 184.207 580.396Z" fill="#FFFF7E"/>
</g>
<path style="mix-blend-mode:screen" opacity="0.69" d="M183.962 587.411C187.584 587.411 190.52 584.27 190.52 580.396C190.52 576.522 187.584 573.381 183.962 573.381C180.34 573.381 177.404 576.522 177.404 580.396C177.404 584.27 180.34 587.411 183.962 587.411Z" fill="url(#paint36_radial_97_157)"/>
</g>
<g style="mix-blend-mode:screen">
<path d="M233.401 338.56C233.401 338.961 233.099 339.3 232.709 339.3C232.32 339.3 232.018 338.976 232.018 338.56C232.018 338.144 232.32 337.82 232.709 337.82C233.099 337.82 233.401 338.144 233.401 338.56Z" fill="#FFFF7E"/>
</g>
<path style="mix-blend-mode:screen" opacity="0.69" d="M232.724 357.446C242.475 357.446 250.38 348.99 250.38 338.56C250.38 328.129 242.475 319.673 232.724 319.673C222.972 319.673 215.067 328.129 215.067 338.56C215.067 348.99 222.972 357.446 232.724 357.446Z" fill="url(#paint37_radial_97_157)"/>
<g style="mix-blend-mode:screen">
<path d="M108.102 354.455C108.102 354.856 107.8 355.195 107.411 355.195C107.021 355.195 106.719 354.871 106.719 354.455C106.719 354.039 107.021 353.715 107.411 353.715C107.8 353.715 108.102 354.039 108.102 354.455Z" fill="#FFFF7E"/>
</g>
<path style="mix-blend-mode:screen" opacity="0.69" d="M107.411 373.341C117.162 373.341 125.067 364.885 125.067 354.455C125.067 344.024 117.162 335.569 107.411 335.569C97.6591 335.569 89.7539 344.024 89.7539 354.455C89.7539 364.885 97.6591 373.341 107.411 373.341Z" fill="url(#paint38_radial_97_157)"/>
<g style="mix-blend-mode:screen">
<path d="M98.5463 490.112C98.5463 490.513 98.2436 490.852 97.8544 490.852C97.4653 490.852 97.1626 490.528 97.1626 490.112C97.1626 489.696 97.4653 489.372 97.8544 489.372C98.2436 489.372 98.5463 489.696 98.5463 490.112Z" fill="#FFFF7E"/>
</g>
<path style="mix-blend-mode:screen" opacity="0.69" d="M97.8545 508.998C107.606 508.998 115.511 500.542 115.511 490.112C115.511 479.681 107.606 471.226 97.8545 471.226C88.103 471.226 80.1978 479.681 80.1978 490.112C80.1978 500.542 88.103 508.998 97.8545 508.998Z" fill="url(#paint39_radial_97_157)"/>
<g style="mix-blend-mode:screen">
<path d="M226.238 531.569C226.238 531.97 225.935 532.309 225.546 532.309C225.157 532.309 224.854 531.985 224.854 531.569C224.854 531.153 225.157 530.829 225.546 530.829C225.935 530.829 226.238 531.153 226.238 531.569Z" fill="#FFFF7E"/>
</g>
<path style="mix-blend-mode:screen" opacity="0.69" d="M225.56 550.455C235.312 550.455 243.217 541.999 243.217 531.569C243.217 521.138 235.312 512.683 225.56 512.683C215.809 512.683 207.903 521.138 207.903 531.569C207.903 541.999 215.809 550.455 225.56 550.455Z" fill="url(#paint40_radial_97_157)"/>
<g style="mix-blend-mode:screen">
<path d="M44.0053 494.09C44.0053 494.491 43.7026 494.83 43.3134 494.83C42.9243 494.83 42.6216 494.506 42.6216 494.09C42.6216 493.673 42.9243 493.35 43.3134 493.35C43.7026 493.35 44.0053 493.673 44.0053 494.09Z" fill="#FFFF7E"/>
</g>
<path style="mix-blend-mode:screen" opacity="0.69" d="M43.3277 512.976C53.0792 512.976 60.9844 504.52 60.9844 494.09C60.9844 483.659 53.0792 475.203 43.3277 475.203C33.5761 475.203 25.6709 483.659 25.6709 494.09C25.6709 504.52 33.5761 512.976 43.3277 512.976Z" fill="url(#paint41_radial_97_157)"/>
<g style="mix-blend-mode:screen">
<path d="M35.3422 289.194C35.3422 289.595 35.0395 289.934 34.6504 289.934C34.2612 289.934 33.9585 289.61 33.9585 289.194C33.9585 288.778 34.2612 288.454 34.6504 288.454C35.0395 288.454 35.3422 288.778 35.3422 289.194Z" fill="#FFFF7E"/>
</g>
<path style="mix-blend-mode:screen" opacity="0.69" d="M42.2169 306.269C51.0236 301.79 54.7683 290.523 50.5809 281.103C46.3935 271.683 35.8597 267.678 27.053 272.157C18.2462 276.636 14.5015 287.903 18.6889 297.323C22.8763 306.743 33.4101 310.748 42.2169 306.269Z" fill="url(#paint42_radial_97_157)"/>
<g style="mix-blend-mode:screen">
<path d="M106.748 265.759C106.748 266.16 106.445 266.499 106.056 266.499C105.667 266.499 105.364 266.176 105.364 265.759C105.364 265.343 105.667 265.019 106.056 265.019C106.445 265.019 106.748 265.343 106.748 265.759Z" fill="#FFFF7E"/>
</g>
<path style="mix-blend-mode:screen" opacity="0.69" d="M106.056 284.646C115.808 284.646 123.713 276.19 123.713 265.759C123.713 255.329 115.808 246.873 106.056 246.873C96.3046 246.873 88.3994 255.329 88.3994 265.759C88.3994 276.19 96.3046 284.646 106.056 284.646Z" fill="url(#paint43_radial_97_157)"/>
<g style="mix-blend-mode:screen">
<path d="M279.957 392.629C279.957 393.03 279.655 393.369 279.266 393.369C278.876 393.369 278.574 393.045 278.574 392.629C278.574 392.212 278.876 391.889 279.266 391.889C279.655 391.889 279.957 392.212 279.957 392.629Z" fill="#FFFF7E"/>
</g>
<path style="mix-blend-mode:screen" opacity="0.69" d="M279.28 411.515C289.031 411.515 296.937 403.059 296.937 392.628C296.937 382.198 289.031 373.742 279.28 373.742C269.528 373.742 261.623 382.198 261.623 392.628C261.623 403.059 269.528 411.515 279.28 411.515Z" fill="url(#paint44_radial_97_157)"/>
<g style="mix-blend-mode:screen">
<path d="M167.458 592.452C167.458 592.853 167.156 593.192 166.767 593.192C166.377 593.192 166.075 592.868 166.075 592.452C166.075 592.036 166.377 591.712 166.767 591.712C167.156 591.712 167.458 592.036 167.458 592.452Z" fill="#FFFF7E"/>
</g>
<path style="mix-blend-mode:screen" opacity="0.69" d="M166.767 611.338C176.518 611.338 184.423 602.882 184.423 592.452C184.423 582.021 176.518 573.566 166.767 573.566C157.015 573.566 149.11 582.021 149.11 592.452C149.11 602.882 157.015 611.338 166.767 611.338Z" fill="url(#paint45_radial_97_157)"/>
<g style="mix-blend-mode:screen">
<path d="M221.87 450.613C221.87 451.014 221.567 451.353 221.178 451.353C220.789 451.353 220.486 451.029 220.486 450.613C220.486 450.197 220.789 449.873 221.178 449.873C221.567 449.873 221.87 450.197 221.87 450.613Z" fill="#FFFF7E"/>
</g>
<path style="mix-blend-mode:screen" opacity="0.69" d="M221.178 469.499C230.93 469.499 238.835 461.043 238.835 450.613C238.835 440.182 230.93 431.727 221.178 431.727C211.427 431.727 203.521 440.182 203.521 450.613C203.521 461.043 211.427 469.499 221.178 469.499Z" fill="url(#paint46_radial_97_157)"/>
<defs>
<linearGradient id="paint0_linear_97_157" x1="161.159" y1="560.831" x2="161.159" y2="-355.651" gradientUnits="userSpaceOnUse">
<stop stop-color="#FFFF00"/>
<stop offset="0.17" stop-color="#DADA00"/>
<stop offset="0.54" stop-color="#7C7C00"/>
<stop offset="1"/>
</linearGradient>
<linearGradient id="paint1_linear_97_157" x1="86.5684" y1="389.561" x2="271.035" y2="562.02" gradientUnits="userSpaceOnUse">
<stop stop-color="#FFBF00"/>
<stop offset="0.13" stop-color="#F39717"/>
<stop offset="0.49" stop-color="#D3295B"/>
<stop offset="0.55" stop-color="#C6245A"/>
<stop offset="0.86" stop-color="#840A57"/>
<stop offset="1" stop-color="#6B0057"/>
</linearGradient>
<linearGradient id="paint2_linear_97_157" x1="129.752" y1="343.417" x2="314.203" y2="515.861" gradientUnits="userSpaceOnUse">
<stop offset="0.08" stop-color="#FF9000"/>
<stop offset="0.18" stop-color="#FA8D00"/>
<stop offset="0.3" stop-color="#ED8600"/>
<stop offset="0.42" stop-color="#D77900"/>
<stop offset="0.54" stop-color="#B96800"/>
<stop offset="0.66" stop-color="#915200"/>
<stop offset="0.79" stop-color="#613700"/>
<stop offset="0.92" stop-color="#291700"/>
<stop offset="1"/>
</linearGradient>
<linearGradient id="paint3_linear_97_157" x1="142.033" y1="330.297" x2="326.485" y2="502.757" gradientUnits="userSpaceOnUse">
<stop offset="0.08" stop-color="#FF9000"/>
<stop offset="0.18" stop-color="#FA8D00"/>
<stop offset="0.3" stop-color="#ED8600"/>
<stop offset="0.42" stop-color="#D77900"/>
<stop offset="0.54" stop-color="#B96800"/>
<stop offset="0.66" stop-color="#915200"/>
<stop offset="0.79" stop-color="#613700"/>
<stop offset="0.92" stop-color="#291700"/>
<stop offset="1"/>
</linearGradient>
<linearGradient id="paint4_linear_97_157" x1="83.2963" y1="393.076" x2="267.748" y2="565.536" gradientUnits="userSpaceOnUse">
<stop offset="0.08" stop-color="#FF9000"/>
<stop offset="0.18" stop-color="#FA8D00"/>
<stop offset="0.3" stop-color="#ED8600"/>
<stop offset="0.42" stop-color="#D77900"/>
<stop offset="0.54" stop-color="#B96800"/>
<stop offset="0.66" stop-color="#915200"/>
<stop offset="0.79" stop-color="#613700"/>
<stop offset="0.92" stop-color="#291700"/>
<stop offset="1"/>
</linearGradient>
<linearGradient id="paint5_linear_97_157" x1="91.5989" y1="384.197" x2="276.051" y2="556.656" gradientUnits="userSpaceOnUse">
<stop offset="0.08" stop-color="#FF9000"/>
<stop offset="0.18" stop-color="#FA8D00"/>
<stop offset="0.3" stop-color="#ED8600"/>
<stop offset="0.42" stop-color="#D77900"/>
<stop offset="0.54" stop-color="#B96800"/>
<stop offset="0.66" stop-color="#915200"/>
<stop offset="0.79" stop-color="#613700"/>
<stop offset="0.92" stop-color="#291700"/>
<stop offset="1"/>
</linearGradient>
<linearGradient id="paint6_linear_97_157" x1="103.13" y1="407.307" x2="250.693" y2="545.249" gradientUnits="userSpaceOnUse">
<stop offset="0.17" stop-color="#810B5E"/>
<stop offset="0.73" stop-color="#D9B5CE"/>
<stop offset="0.98" stop-color="white"/>
</linearGradient>
<linearGradient id="paint7_linear_97_157" x1="92.1322" y1="383.61" x2="191.564" y2="476.57" gradientUnits="userSpaceOnUse">
<stop offset="0.13" stop-color="#B3E72C"/>
<stop offset="1"/>
</linearGradient>
<linearGradient id="paint8_linear_97_157" x1="107.036" y1="380.249" x2="196.639" y2="464.019" gradientUnits="userSpaceOnUse">
<stop stop-color="#FFCCA9"/>
<stop offset="0.09" stop-color="#F1C19F"/>
<stop offset="0.25" stop-color="#CDA487"/>
<stop offset="0.48" stop-color="#927561"/>
<stop offset="0.75" stop-color="#42352C"/>
<stop offset="0.96"/>
</linearGradient>
<linearGradient id="paint9_linear_97_157" x1="203.939" y1="532.064" x2="351.488" y2="670.007" gradientUnits="userSpaceOnUse">
<stop offset="0.06"/>
<stop offset="0.55" stop-color="#B3E72C"/>
</linearGradient>
<radialGradient id="paint10_radial_97_157" cx="0" cy="0" r="1" gradientUnits="userSpaceOnUse" gradientTransform="translate(175 470.289) scale(98 146.311)">
<stop stop-color="#FFAE00"/>
<stop offset="0.2" stop-color="#BD8100"/>
<stop offset="0.53" stop-color="#583C00"/>
<stop offset="0.76" stop-color="#181000"/>
<stop offset="0.87"/>
</radialGradient>
<radialGradient id="paint11_radial_97_157" cx="0" cy="0" r="1" gradientUnits="userSpaceOnUse" gradientTransform="translate(155.668 364.507) scale(6.55823 7.01487)">
<stop stop-color="#FFFF00"/>
<stop offset="0.12" stop-color="#C6C600"/>
<stop offset="0.24" stop-color="#929200"/>
<stop offset="0.37" stop-color="#656500"/>
<stop offset="0.5" stop-color="#404000"/>
<stop offset="0.62" stop-color="#242400"/>
<stop offset="0.75" stop-color="#101000"/>
<stop offset="0.88" stop-color="#040400"/>
<stop offset="1"/>
</radialGradient>
<radialGradient id="paint12_radial_97_157" cx="0" cy="0" r="1" gradientUnits="userSpaceOnUse" gradientTransform="translate(152.901 331.545) scale(6.55823 7.01488)">
<stop stop-color="#FFFF00"/>
<stop offset="0.12" stop-color="#C6C600"/>
<stop offset="0.24" stop-color="#929200"/>
<stop offset="0.37" stop-color="#656500"/>
<stop offset="0.5" stop-color="#404000"/>
<stop offset="0.62" stop-color="#242400"/>
<stop offset="0.75" stop-color="#101000"/>
<stop offset="0.88" stop-color="#040400"/>
<stop offset="1"/>
</radialGradient>
<radialGradient id="paint13_radial_97_157" cx="0" cy="0" r="1" gradientUnits="userSpaceOnUse" gradientTransform="translate(199.356 417.234) scale(0.720685 0.770866)">
<stop stop-color="#FFFF00"/>
<stop offset="0.12" stop-color="#C6C600"/>
<stop offset="0.24" stop-color="#929200"/>
<stop offset="0.37" stop-color="#656500"/>
<stop offset="0.5" stop-color="#404000"/>
<stop offset="0.62" stop-color="#242400"/>
<stop offset="0.75" stop-color="#101000"/>
<stop offset="0.88" stop-color="#040400"/>
<stop offset="1"/>
</radialGradient>
<radialGradient id="paint14_radial_97_157" cx="0" cy="0" r="1" gradientUnits="userSpaceOnUse" gradientTransform="translate(202.815 483.097) scale(6.55822 7.01488)">
<stop stop-color="#FFFF00"/>
<stop offset="0.12" stop-color="#C6C600"/>
<stop offset="0.24" stop-color="#929200"/>
<stop offset="0.37" stop-color="#656500"/>
<stop offset="0.5" stop-color="#404000"/>
<stop offset="0.62" stop-color="#242400"/>
<stop offset="0.75" stop-color="#101000"/>
<stop offset="0.88" stop-color="#040400"/>
<stop offset="1"/>
</radialGradient>
<radialGradient id="paint15_radial_97_157" cx="0" cy="0" r="1" gradientUnits="userSpaceOnUse" gradientTransform="translate(134.437 459.077) scale(6.55823 7.01488)">
<stop stop-color="#FFFF00"/>
<stop offset="0.12" stop-color="#C6C600"/>
<stop offset="0.24" stop-color="#929200"/>
<stop offset="0.37" stop-color="#656500"/>
<stop offset="0.5" stop-color="#404000"/>
<stop offset="0.62" stop-color="#242400"/>
<stop offset="0.75" stop-color="#101000"/>
<stop offset="0.88" stop-color="#040400"/>
<stop offset="1"/>
</radialGradient>
<radialGradient id="paint16_radial_97_157" cx="0" cy="0" r="1" gradientUnits="userSpaceOnUse" gradientTransform="translate(279.525 555.975) scale(6.55823 7.01488)">
<stop stop-color="#FFFF00"/>
<stop offset="0.12" stop-color="#C6C600"/>
<stop offset="0.24" stop-color="#929200"/>
<stop offset="0.37" stop-color="#656500"/>
<stop offset="0.5" stop-color="#404000"/>
<stop offset="0.62" stop-color="#242400"/>
<stop offset="0.75" stop-color="#101000"/>
<stop offset="0.88" stop-color="#040400"/>
<stop offset="1"/>
</radialGradient>
<radialGradient id="paint17_radial_97_157" cx="0" cy="0" r="1" gradientUnits="userSpaceOnUse" gradientTransform="translate(288.418 514.934) scale(6.55822 7.01486)">
<stop stop-color="#FFFF00"/>
<stop offset="0.12" stop-color="#C6C600"/>
<stop offset="0.24" stop-color="#929200"/>
<stop offset="0.37" stop-color="#656500"/>
<stop offset="0.5" stop-color="#404000"/>
<stop offset="0.62" stop-color="#242400"/>
<stop offset="0.75" stop-color="#101000"/>
<stop offset="0.88" stop-color="#040400"/>
<stop offset="1"/>
</radialGradient>
<radialGradient id="paint18_radial_97_157" cx="0" cy="0" r="1" gradientUnits="userSpaceOnUse" gradientTransform="translate(306.608 439.374) scale(6.55823 7.01488)">
<stop stop-color="#FFFF00"/>
<stop offset="0.12" stop-color="#C6C600"/>
<stop offset="0.24" stop-color="#929200"/>
<stop offset="0.37" stop-color="#656500"/>
<stop offset="0.5" stop-color="#404000"/>
<stop offset="0.62" stop-color="#242400"/>
<stop offset="0.75" stop-color="#101000"/>
<stop offset="0.88" stop-color="#040400"/>
<stop offset="1"/>
</radialGradient>
<radialGradient id="paint19_radial_97_157" cx="0" cy="0" r="1" gradientUnits="userSpaceOnUse" gradientTransform="translate(61.6041 204.275) scale(6.55823 7.01488)">
<stop stop-color="#FFFF00"/>
<stop offset="0.12" stop-color="#C6C600"/>
<stop offset="0.24" stop-color="#929200"/>
<stop offset="0.37" stop-color="#656500"/>
<stop offset="0.5" stop-color="#404000"/>
<stop offset="0.62" stop-color="#242400"/>
<stop offset="0.75" stop-color="#101000"/>
<stop offset="0.88" stop-color="#040400"/>
<stop offset="1"/>
</radialGradient>
<radialGradient id="paint20_radial_97_157" cx="0" cy="0" r="1" gradientUnits="userSpaceOnUse" gradientTransform="translate(70.4977 163.235) scale(6.55823 7.01487)">
<stop stop-color="#FFFF00"/>
<stop offset="0.12" stop-color="#C6C600"/>
<stop offset="0.24" stop-color="#929200"/>
<stop offset="0.37" stop-color="#656500"/>
<stop offset="0.5" stop-color="#404000"/>
<stop offset="0.62" stop-color="#242400"/>
<stop offset="0.75" stop-color="#101000"/>
<stop offset="0.88" stop-color="#040400"/>
<stop offset="1"/>
</radialGradient>
<radialGradient id="paint21_radial_97_157" cx="0" cy="0" r="1" gradientUnits="userSpaceOnUse" gradientTransform="translate(88.6876 87.6741) scale(6.55823 7.01487)">
<stop stop-color="#FFFF00"/>
<stop offset="0.12" stop-color="#C6C600"/>
<stop offset="0.24" stop-color="#929200"/>
<stop offset="0.37" stop-color="#656500"/>
<stop offset="0.5" stop-color="#404000"/>
<stop offset="0.62" stop-color="#242400"/>
<stop offset="0.75" stop-color="#101000"/>
<stop offset="0.88" stop-color="#040400"/>
<stop offset="1"/>
</radialGradient>
<radialGradient id="paint22_radial_97_157" cx="0" cy="0" r="1" gradientUnits="userSpaceOnUse" gradientTransform="translate(108.953 417.99) scale(0.720684 0.770866)">
<stop stop-color="#FFFF00"/>
<stop offset="0.12" stop-color="#C6C600"/>
<stop offset="0.24" stop-color="#929200"/>
<stop offset="0.37" stop-color="#656500"/>
<stop offset="0.5" stop-color="#404000"/>
<stop offset="0.62" stop-color="#242400"/>
<stop offset="0.75" stop-color="#101000"/>
<stop offset="0.88" stop-color="#040400"/>
<stop offset="1"/>
</radialGradient>
<radialGradient id="paint23_radial_97_157" cx="0" cy="0" r="1" gradientUnits="userSpaceOnUse" gradientTransform="translate(46.7003 452.062) scale(6.55823 7.01486)">
<stop stop-color="#FFFF00"/>
<stop offset="0.12" stop-color="#C6C600"/>
<stop offset="0.24" stop-color="#929200"/>
<stop offset="0.37" stop-color="#656500"/>
<stop offset="0.5" stop-color="#404000"/>
<stop offset="0.62" stop-color="#242400"/>
<stop offset="0.75" stop-color="#101000"/>
<stop offset="0.88" stop-color="#040400"/>
<stop offset="1"/>
</radialGradient>
<radialGradient id="paint24_radial_97_157" cx="0" cy="0" r="1" gradientUnits="userSpaceOnUse" gradientTransform="translate(63.4782 471.226) scale(6.55823 7.01488)">
<stop stop-color="#FFFF00"/>
<stop offset="0.12" stop-color="#C6C600"/>
<stop offset="0.24" stop-color="#929200"/>
<stop offset="0.37" stop-color="#656500"/>
<stop offset="0.5" stop-color="#404000"/>
<stop offset="0.62" stop-color="#242400"/>
<stop offset="0.75" stop-color="#101000"/>
<stop offset="0.88" stop-color="#040400"/>
<stop offset="1"/>
</radialGradient>
<radialGradient id="paint25_radial_97_157" cx="0" cy="0" r="1" gradientUnits="userSpaceOnUse" gradientTransform="translate(85.2425 315.095) scale(6.55823 7.01487)">
<stop stop-color="#FFFF00"/>
<stop offset="0.12" stop-color="#C6C600"/>
<stop offset="0.24" stop-color="#929200"/>
<stop offset="0.37" stop-color="#656500"/>
<stop offset="0.5" stop-color="#404000"/>
<stop offset="0.62" stop-color="#242400"/>
<stop offset="0.75" stop-color="#101000"/>
<stop offset="0.88" stop-color="#040400"/>
<stop offset="1"/>
</radialGradient>
<radialGradient id="paint26_radial_97_157" cx="0" cy="0" r="1" gradientUnits="userSpaceOnUse" gradientTransform="translate(52.3219 339.284) scale(6.55823 7.01487)">
<stop stop-color="#FFFF00"/>
<stop offset="0.12" stop-color="#C6C600"/>
<stop offset="0.24" stop-color="#929200"/>
<stop offset="0.37" stop-color="#656500"/>
<stop offset="0.5" stop-color="#404000"/>
<stop offset="0.62" stop-color="#242400"/>
<stop offset="0.75" stop-color="#101000"/>
<stop offset="0.88" stop-color="#040400"/>
<stop offset="1"/>
</radialGradient>
<radialGradient id="paint27_radial_97_157" cx="0" cy="0" r="1" gradientUnits="userSpaceOnUse" gradientTransform="translate(49.8859 317.392) scale(6.55823 7.01487)">
<stop stop-color="#FFFF00"/>
<stop offset="0.12" stop-color="#C6C600"/>
<stop offset="0.24" stop-color="#929200"/>
<stop offset="0.37" stop-color="#656500"/>
<stop offset="0.5" stop-color="#404000"/>
<stop offset="0.62" stop-color="#242400"/>
<stop offset="0.75" stop-color="#101000"/>
<stop offset="0.88" stop-color="#040400"/>
<stop offset="1"/>
</radialGradient>
<radialGradient id="paint28_radial_97_157" cx="0" cy="0" r="1" gradientUnits="userSpaceOnUse" gradientTransform="translate(6.55823 311.487) scale(6.55823 7.01487)">
<stop stop-color="#FFFF00"/>
<stop offset="0.12" stop-color="#C6C600"/>
<stop offset="0.24" stop-color="#929200"/>
<stop offset="0.37" stop-color="#656500"/>
<stop offset="0.5" stop-color="#404000"/>
<stop offset="0.62" stop-color="#242400"/>
<stop offset="0.75" stop-color="#101000"/>
<stop offset="0.88" stop-color="#040400"/>
<stop offset="1"/>
</radialGradient>
<radialGradient id="paint29_radial_97_157" cx="0" cy="0" r="1" gradientUnits="userSpaceOnUse" gradientTransform="translate(96.3121 231.579) scale(0.720685 0.770865)">
<stop stop-color="#FFFF00"/>
<stop offset="0.12" stop-color="#C6C600"/>
<stop offset="0.24" stop-color="#929200"/>
<stop offset="0.37" stop-color="#656500"/>
<stop offset="0.5" stop-color="#404000"/>
<stop offset="0.62" stop-color="#242400"/>
<stop offset="0.75" stop-color="#101000"/>
<stop offset="0.88" stop-color="#040400"/>
<stop offset="1"/>
</radialGradient>
<radialGradient id="paint30_radial_97_157" cx="0" cy="0" r="1" gradientUnits="userSpaceOnUse" gradientTransform="translate(189.223 247.104) scale(6.55823 7.01488)">
<stop stop-color="#FFFF00"/>
<stop offset="0.12" stop-color="#C6C600"/>
<stop offset="0.24" stop-color="#929200"/>
<stop offset="0.37" stop-color="#656500"/>
<stop offset="0.5" stop-color="#404000"/>
<stop offset="0.62" stop-color="#242400"/>
<stop offset="0.75" stop-color="#101000"/>
<stop offset="0.88" stop-color="#040400"/>
<stop offset="1"/>
</radialGradient>
<radialGradient id="paint31_radial_97_157" cx="0" cy="0" r="1" gradientUnits="userSpaceOnUse" gradientTransform="translate(198.779 295.469) scale(6.55823 7.01487)">
<stop stop-color="#FFFF00"/>
<stop offset="0.12" stop-color="#C6C600"/>
<stop offset="0.24" stop-color="#929200"/>
<stop offset="0.37" stop-color="#656500"/>
<stop offset="0.5" stop-color="#404000"/>
<stop offset="0.62" stop-color="#242400"/>
<stop offset="0.75" stop-color="#101000"/>
<stop offset="0.88" stop-color="#040400"/>
<stop offset="1"/>
</radialGradient>
<radialGradient id="paint32_radial_97_157" cx="0" cy="0" r="1" gradientUnits="userSpaceOnUse" gradientTransform="translate(235.13 295.191) scale(6.55822 7.01488)">
<stop stop-color="#FFFF00"/>
<stop offset="0.12" stop-color="#C6C600"/>
<stop offset="0.24" stop-color="#929200"/>
<stop offset="0.37" stop-color="#656500"/>
<stop offset="0.5" stop-color="#404000"/>
<stop offset="0.62" stop-color="#242400"/>
<stop offset="0.75" stop-color="#101000"/>
<stop offset="0.88" stop-color="#040400"/>
<stop offset="1"/>
</radialGradient>
<radialGradient id="paint33_radial_97_157" cx="0" cy="0" r="1" gradientUnits="userSpaceOnUse" gradientTransform="translate(109.342 159.657) scale(6.55823 7.01487)">
<stop stop-color="#FFFF00"/>
<stop offset="0.12" stop-color="#C6C600"/>
<stop offset="0.24" stop-color="#929200"/>
<stop offset="0.37" stop-color="#656500"/>
<stop offset="0.5" stop-color="#404000"/>
<stop offset="0.62" stop-color="#242400"/>
<stop offset="0.75" stop-color="#101000"/>
<stop offset="0.88" stop-color="#040400"/>
<stop offset="1"/>
</radialGradient>
<radialGradient id="paint34_radial_97_157" cx="0" cy="0" r="1" gradientUnits="userSpaceOnUse" gradientTransform="translate(118.899 208.021) scale(6.55823 7.01487)">
<stop stop-color="#FFFF00"/>
<stop offset="0.12" stop-color="#C6C600"/>
<stop offset="0.24" stop-color="#929200"/>
<stop offset="0.37" stop-color="#656500"/>
<stop offset="0.5" stop-color="#404000"/>
<stop offset="0.62" stop-color="#242400"/>
<stop offset="0.75" stop-color="#101000"/>
<stop offset="0.88" stop-color="#040400"/>
<stop offset="1"/>
</radialGradient>
<radialGradient id="paint35_radial_97_157" cx="0" cy="0" r="1" gradientUnits="userSpaceOnUse" gradientTransform="translate(155.25 207.744) scale(6.55823 7.01488)">
<stop stop-color="#FFFF00"/>
<stop offset="0.12" stop-color="#C6C600"/>
<stop offset="0.24" stop-color="#929200"/>
<stop offset="0.37" stop-color="#656500"/>
<stop offset="0.5" stop-color="#404000"/>
<stop offset="0.62" stop-color="#242400"/>
<stop offset="0.75" stop-color="#101000"/>
<stop offset="0.88" stop-color="#040400"/>
<stop offset="1"/>
</radialGradient>
<radialGradient id="paint36_radial_97_157" cx="0" cy="0" r="1" gradientUnits="userSpaceOnUse" gradientTransform="translate(183.962 580.396) scale(6.55822 7.01488)">
<stop stop-color="#FFFF00"/>
<stop offset="0.12" stop-color="#C6C600"/>
<stop offset="0.24" stop-color="#929200"/>
<stop offset="0.37" stop-color="#656500"/>
<stop offset="0.5" stop-color="#404000"/>
<stop offset="0.62" stop-color="#242400"/>
<stop offset="0.75" stop-color="#101000"/>
<stop offset="0.88" stop-color="#040400"/>
<stop offset="1"/>
</radialGradient>
<radialGradient id="paint37_radial_97_157" cx="0" cy="0" r="1" gradientUnits="userSpaceOnUse" gradientTransform="translate(232.724 338.56) scale(17.6568 18.8862)">
<stop stop-color="#FFFF00"/>
<stop offset="0.12" stop-color="#C6C600"/>
<stop offset="0.24" stop-color="#929200"/>
<stop offset="0.37" stop-color="#656500"/>
<stop offset="0.5" stop-color="#404000"/>
<stop offset="0.62" stop-color="#242400"/>
<stop offset="0.75" stop-color="#101000"/>
<stop offset="0.88" stop-color="#040400"/>
<stop offset="1"/>
</radialGradient>
<radialGradient id="paint38_radial_97_157" cx="0" cy="0" r="1" gradientUnits="userSpaceOnUse" gradientTransform="translate(107.411 354.455) scale(17.6568 18.8862)">
<stop stop-color="#FFFF00"/>
<stop offset="0.12" stop-color="#C6C600"/>
<stop offset="0.24" stop-color="#929200"/>
<stop offset="0.37" stop-color="#656500"/>
<stop offset="0.5" stop-color="#404000"/>
<stop offset="0.62" stop-color="#242400"/>
<stop offset="0.75" stop-color="#101000"/>
<stop offset="0.88" stop-color="#040400"/>
<stop offset="1"/>
</radialGradient>
<radialGradient id="paint39_radial_97_157" cx="0" cy="0" r="1" gradientUnits="userSpaceOnUse" gradientTransform="translate(97.8545 490.112) scale(17.6568 18.8862)">
<stop stop-color="#FFFF00"/>
<stop offset="0.12" stop-color="#C6C600"/>
<stop offset="0.24" stop-color="#929200"/>
<stop offset="0.37" stop-color="#656500"/>
<stop offset="0.5" stop-color="#404000"/>
<stop offset="0.62" stop-color="#242400"/>
<stop offset="0.75" stop-color="#101000"/>
<stop offset="0.88" stop-color="#040400"/>
<stop offset="1"/>
</radialGradient>
<radialGradient id="paint40_radial_97_157" cx="0" cy="0" r="1" gradientUnits="userSpaceOnUse" gradientTransform="translate(225.56 531.569) scale(17.6568 18.8862)">
<stop stop-color="#FFFF00"/>
<stop offset="0.12" stop-color="#C6C600"/>
<stop offset="0.24" stop-color="#929200"/>
<stop offset="0.37" stop-color="#656500"/>
<stop offset="0.5" stop-color="#404000"/>
<stop offset="0.62" stop-color="#242400"/>
<stop offset="0.75" stop-color="#101000"/>
<stop offset="0.88" stop-color="#040400"/>
<stop offset="1"/>
</radialGradient>
<radialGradient id="paint41_radial_97_157" cx="0" cy="0" r="1" gradientUnits="userSpaceOnUse" gradientTransform="translate(43.3277 494.09) scale(17.6568 18.8862)">
<stop stop-color="#FFFF00"/>
<stop offset="0.12" stop-color="#C6C600"/>
<stop offset="0.24" stop-color="#929200"/>
<stop offset="0.37" stop-color="#656500"/>
<stop offset="0.5" stop-color="#404000"/>
<stop offset="0.62" stop-color="#242400"/>
<stop offset="0.75" stop-color="#101000"/>
<stop offset="0.88" stop-color="#040400"/>
<stop offset="1"/>
</radialGradient>
<radialGradient id="paint42_radial_97_157" cx="0" cy="0" r="1" gradientUnits="userSpaceOnUse" gradientTransform="translate(34.6501 289.203) scale(17.6568 18.8862)">
<stop stop-color="#FFFF00"/>
<stop offset="0.12" stop-color="#C6C600"/>
<stop offset="0.24" stop-color="#929200"/>
<stop offset="0.37" stop-color="#656500"/>
<stop offset="0.5" stop-color="#404000"/>
<stop offset="0.62" stop-color="#242400"/>
<stop offset="0.75" stop-color="#101000"/>
<stop offset="0.88" stop-color="#040400"/>
<stop offset="1"/>
</radialGradient>
<radialGradient id="paint43_radial_97_157" cx="0" cy="0" r="1" gradientUnits="userSpaceOnUse" gradientTransform="translate(106.056 265.759) scale(17.6568 18.8862)">
<stop stop-color="#FFFF00"/>
<stop offset="0.12" stop-color="#C6C600"/>
<stop offset="0.24" stop-color="#929200"/>
<stop offset="0.37" stop-color="#656500"/>
<stop offset="0.5" stop-color="#404000"/>
<stop offset="0.62" stop-color="#242400"/>
<stop offset="0.75" stop-color="#101000"/>
<stop offset="0.88" stop-color="#040400"/>
<stop offset="1"/>
</radialGradient>
<radialGradient id="paint44_radial_97_157" cx="0" cy="0" r="1" gradientUnits="userSpaceOnUse" gradientTransform="translate(279.28 392.628) scale(17.6568 18.8862)">
<stop stop-color="#FFFF00"/>
<stop offset="0.12" stop-color="#C6C600"/>
<stop offset="0.24" stop-color="#929200"/>
<stop offset="0.37" stop-color="#656500"/>
<stop offset="0.5" stop-color="#404000"/>
<stop offset="0.62" stop-color="#242400"/>
<stop offset="0.75" stop-color="#101000"/>
<stop offset="0.88" stop-color="#040400"/>
<stop offset="1"/>
</radialGradient>
<radialGradient id="paint45_radial_97_157" cx="0" cy="0" r="1" gradientUnits="userSpaceOnUse" gradientTransform="translate(166.767 592.452) scale(17.6568 18.8862)">
<stop stop-color="#FFFF00"/>
<stop offset="0.12" stop-color="#C6C600"/>
<stop offset="0.24" stop-color="#929200"/>
<stop offset="0.37" stop-color="#656500"/>
<stop offset="0.5" stop-color="#404000"/>
<stop offset="0.62" stop-color="#242400"/>
<stop offset="0.75" stop-color="#101000"/>
<stop offset="0.88" stop-color="#040400"/>
<stop offset="1"/>
</radialGradient>
<radialGradient id="paint46_radial_97_157" cx="0" cy="0" r="1" gradientUnits="userSpaceOnUse" gradientTransform="translate(221.178 450.613) scale(17.6568 18.8862)">
<stop stop-color="#FFFF00"/>
<stop offset="0.12" stop-color="#C6C600"/>
<stop offset="0.24" stop-color="#929200"/>
<stop offset="0.37" stop-color="#656500"/>
<stop offset="0.5" stop-color="#404000"/>
<stop offset="0.62" stop-color="#242400"/>
<stop offset="0.75" stop-color="#101000"/>
<stop offset="0.88" stop-color="#040400"/>
<stop offset="1"/>
</radialGradient>
</defs>
</svg>
