<svg width="307" height="600" viewBox="0 0 307 600" fill="none" xmlns="http://www.w3.org/2000/svg">
<path style="mix-blend-mode:screen" opacity="0.24" d="M271.458 393.055C259.922 374.919 256.456 343.339 266.838 345.807C277.219 348.275 288.37 371.531 288.37 371.531C282.994 352.951 288.755 286.832 272.613 258.9C256.471 230.969 236.701 224.53 236.701 224.53C236.701 224.53 252.991 244.03 229.74 248.552C206.475 253.075 180.337 241.056 173.984 217.769C167.646 194.483 194.939 183.736 216.086 170.414C237.234 157.092 243.572 145.533 223.58 113.693C203.587 81.8519 169.748 67.5182 150.911 70.9675C132.074 74.4014 117.457 108.526 104.766 107.729C92.0742 106.932 93.8069 71.9026 103.803 53.997C113.799 36.0913 128.416 34.0984 133.022 46.0406C137.642 57.9828 139.745 67.1349 148.408 61.9687C157.057 56.7871 190.703 11.2258 177.049 2.87082C163.395 -5.48413 145.328 7.05596 145.328 7.05596C178.59 -0.103238 148.023 36.9038 143.788 39.6939C139.552 42.484 137.45 44.2776 138.782 35.9074C140.115 27.5371 135.125 20.9758 118.212 28.5489C101.3 36.1066 67.8464 77.4981 59.5829 116.513C51.3193 155.513 77.0725 155.115 90.1638 142.59C103.255 130.065 122.255 102.793 135.139 105.767C148.023 108.756 153.014 147.557 144.751 171.84C136.487 196.123 102.07 196.92 75.7397 199.833C49.4089 202.746 17.6876 229.558 20.6791 271.456C23.6854 313.368 43.8259 324.897 43.8259 324.897C28.6909 298.789 38.0651 260.203 49.2016 261.598C60.3529 262.993 77.0725 298.421 71.6523 319.914C66.2174 341.407 49.5866 330.661 49.5866 330.661C49.5866 330.661 68.0389 349.563 53.6296 358.102C39.2054 366.625 23.0634 382.415 26.1437 407.664C29.224 432.913 38.0651 433.741 45.9436 439.72C53.8221 445.683 40.5678 450.665 39.0277 462.761C37.4875 474.856 62.678 477.922 63.685 492.118C64.692 506.299 269 516.171 269 516.171C269 516.171 275.294 487.274 286.445 478.382C297.596 469.475 306.822 456.046 303.164 437.589C299.507 419.131 282.98 411.267 271.443 393.131L271.458 393.055ZM63.685 252.369C50.9935 236.426 63.063 201.458 79.4568 204.371C104.84 208.878 76.3765 268.313 63.685 252.369ZM100.071 314.978C73.0592 324.038 68.7053 235.798 103.818 229.635C126.594 225.634 127.083 305.918 100.071 314.978ZM183.032 93.1809C196.894 87.3401 235.472 151.911 217.108 157.123C175.065 169.065 169.171 99.0064 183.032 93.1809ZM177.123 140.95C184.809 139.892 194.302 175.243 180.974 181.023C166.875 187.124 169.437 142.023 177.123 140.95ZM230.599 288.61C225.831 309.168 147.89 259.283 153.666 234.081C157.205 218.612 235.368 268.052 230.599 288.61Z" fill="url(#paint0_linear_68_1189)"/>
<path d="M162.922 299.816C219.345 293.669 275.516 392.043 275.501 469.736C275.486 533.203 240.255 599.537 167.513 594.938C-9.59062 583.762 75.0735 309.382 162.922 299.816Z" fill="url(#paint1_linear_68_1189)"/>
<path style="mix-blend-mode:multiply" opacity="0.67" d="M147.757 476.343C175.539 344.258 162.24 301.763 150.008 305.871C146.32 307.113 138.827 314.947 129.793 326.429C155.339 292.749 170.252 330.522 157.842 387.474C145.417 444.487 76.3173 550.112 65.9805 505.332C70.9119 534.598 84.1365 560.245 108.409 576.587C115.902 576.802 129.734 562.1 147.772 476.343H147.757Z" fill="url(#paint2_linear_68_1189)"/>
<path style="mix-blend-mode:multiply" opacity="0.67" d="M229.385 360.079C230.2 365.721 231.725 376.268 233.724 389.345C230.007 363.958 238.819 350.912 256.382 388.026C273.961 425.171 271.917 504.474 260.973 485.281C253.82 472.741 243.439 435.396 237.116 411.037C245.572 463.849 258.397 534.169 265.653 526.258C272.213 508.521 275.486 489.006 275.486 469.736C275.486 426.152 257.819 376.053 232.332 341.56L232.081 341.637C232.081 341.637 225.328 331.856 229.385 360.079Z" fill="url(#paint3_linear_68_1189)"/>
<path style="mix-blend-mode:multiply" opacity="0.67" d="M238.567 428.544C216.427 314.518 199.145 298.866 185.921 313.675C182.618 317.369 178.146 332.638 173.244 353.886C183.625 312.004 207.083 319.607 216.872 351.494C226.661 383.381 246.653 488.883 197.531 530.827C138.339 581.355 143.285 516.11 143.285 516.094C140.219 535.349 138.042 549.897 137.332 555.692C134.148 581.232 145.18 591.565 145.565 591.917C152.392 593.389 159.693 594.432 167.513 594.922C203.366 597.191 230.082 582.198 247.986 558.835C249.304 556.643 259.344 535.548 238.567 428.528V428.544Z" fill="url(#paint4_linear_68_1189)"/>
<path style="mix-blend-mode:multiply" opacity="0.67" d="M126.12 318.703C122.048 322.429 118.079 326.629 114.228 331.228C121.84 328.699 91.215 380.131 87.098 382.431C85.1284 383.535 85.5875 380.055 86.6685 375.962C81.7667 386.662 77.5016 398.022 74.0215 409.703C74.6731 408.707 105.787 361.429 126.12 318.688V318.703Z" fill="url(#paint5_linear_68_1189)"/>
<g style="mix-blend-mode:multiply" opacity="0.22">
<path d="M132.355 394.725C135.939 395.967 134.132 409.166 128.845 406.223C123.558 403.264 128.756 393.484 132.355 394.725Z" fill="#47631F"/>
</g>
<g style="mix-blend-mode:multiply" opacity="0.22">
<path d="M267.622 499.201C271.206 500.442 269.399 513.642 264.112 510.698C258.825 507.74 264.023 497.959 267.622 499.201Z" fill="#47631F"/>
</g>
<g style="mix-blend-mode:multiply" opacity="0.22">
<path d="M198.967 478.428C202.551 479.67 200.744 492.869 195.457 489.926C190.17 486.967 195.368 477.186 198.967 478.428Z" fill="#47631F"/>
</g>
<g style="mix-blend-mode:multiply" opacity="0.22">
<path d="M139.405 398.389C142.159 397.01 142.204 394.618 139.405 394.618C136.606 394.618 137.746 399.217 139.405 398.389Z" fill="#47631F"/>
</g>
<g style="mix-blend-mode:multiply" opacity="0.22">
<path d="M235.916 516.217C239.5 517.459 237.693 530.658 232.406 527.715C227.119 524.756 232.317 514.975 235.916 516.217Z" fill="#47631F"/>
</g>
<g style="mix-blend-mode:multiply" opacity="0.22">
<path d="M242.98 519.866C245.734 518.486 245.779 516.095 242.98 516.095C240.181 516.095 241.321 520.694 242.98 519.866Z" fill="#47631F"/>
</g>
<g style="mix-blend-mode:multiply" opacity="0.22">
<path d="M161.989 565.917C161.115 562.744 170.134 562.023 170.445 565.074C170.756 568.125 162.863 569.075 161.989 565.917Z" fill="#47631F"/>
</g>
<g style="mix-blend-mode:multiply" opacity="0.22">
<path d="M171.51 563.127C173.776 562.913 173.821 561.012 172.295 560.843C170.77 560.69 170.133 563.25 171.51 563.127Z" fill="#47631F"/>
</g>
<g style="mix-blend-mode:multiply" opacity="0.22">
<path d="M252.591 426.045C250.384 425.018 253.139 420.909 255.893 422.81C258.648 424.711 254.797 427.072 252.591 426.045Z" fill="#47631F"/>
</g>
<g style="mix-blend-mode:multiply" opacity="0.22">
<path d="M237.975 471.622C241.04 470.794 241.247 464.938 237.323 466.195C233.399 467.452 234.924 472.45 237.975 471.622Z" fill="#47631F"/>
</g>
<g style="mix-blend-mode:multiply" opacity="0.22">
<path d="M205.334 493.207C203.957 490.984 205.853 490.018 207.052 491.766C208.252 493.513 205.334 493.207 205.334 493.207Z" fill="#47631F"/>
</g>
<g style="mix-blend-mode:multiply" opacity="0.22">
<path d="M262.247 464.064C265.83 465.305 264.024 478.505 258.737 475.561C253.45 472.603 258.648 462.822 262.247 464.064Z" fill="#47631F"/>
</g>
<g style="mix-blend-mode:multiply" opacity="0.22">
<path d="M268.6 478.842C267.223 476.619 269.118 475.653 270.318 477.401C271.517 479.148 268.6 478.842 268.6 478.842Z" fill="#47631F"/>
</g>
<g style="mix-blend-mode:multiply" opacity="0.22">
<path d="M97.4202 514.071C93.1404 513.274 95.732 507.265 100.175 508.215C104.603 509.166 101.7 514.868 97.4202 514.071Z" fill="#47631F"/>
</g>
<g style="mix-blend-mode:multiply" opacity="0.22">
<path d="M101.715 501.96C102.944 500.933 104.158 504.014 102.396 504.919C100.634 505.838 100.486 502.987 101.715 501.96Z" fill="#47631F"/>
</g>
<g style="mix-blend-mode:multiply" opacity="0.22">
<path d="M109.667 512.753C111.652 510.913 109.356 508.537 107.668 509.319C105.995 510.116 107.668 514.592 109.667 512.753Z" fill="#47631F"/>
</g>
<g style="mix-blend-mode:multiply" opacity="0.22">
<path d="M103.951 556.612C100.722 553.623 106.246 548.533 109.919 550.434C113.592 552.335 106.853 559.295 103.951 556.612Z" fill="#47631F"/>
</g>
<g style="mix-blend-mode:multiply" opacity="0.22">
<path d="M94.9616 452.551C92.0294 451.11 93.5251 447.277 95.9982 448.902C98.4714 450.527 96.2648 453.194 94.9616 452.551Z" fill="#47631F"/>
</g>
<g style="mix-blend-mode:multiply" opacity="0.22">
<path d="M224.646 463.972C227.623 459.817 233.354 468.372 229.074 470.84C224.794 473.308 222.366 467.161 224.646 463.972Z" fill="#47631F"/>
</g>
<g style="mix-blend-mode:multiply" opacity="0.22">
<path d="M109.224 396.718C112.289 395.891 112.496 390.035 108.572 391.292C104.648 392.564 106.173 397.546 109.224 396.718Z" fill="#47631F"/>
</g>
<g style="mix-blend-mode:multiply" opacity="0.22">
<path d="M95.8947 389.084C98.8713 384.929 104.602 393.484 100.323 395.952C96.0428 398.404 93.6141 392.272 95.8947 389.084Z" fill="#47631F"/>
</g>
<g style="mix-blend-mode:multiply" opacity="0.22">
<path d="M135.169 456.337C138.145 452.183 143.876 460.737 139.597 463.205C135.317 465.658 132.888 459.526 135.169 456.337Z" fill="#47631F"/>
</g>
<g style="mix-blend-mode:multiply" opacity="0.22">
<path d="M227.489 454.115C229.977 452.72 231.355 455.632 228.911 456.874C226.468 458.101 225.001 455.525 227.489 454.115Z" fill="#47631F"/>
</g>
<g style="mix-blend-mode:multiply" opacity="0.22">
<path d="M224.098 542.432C226.586 541.037 227.963 543.95 225.519 545.191C223.076 546.418 221.61 543.842 224.098 542.432Z" fill="#47631F"/>
</g>
<g style="mix-blend-mode:multiply" opacity="0.22">
<path d="M186.438 380.024C190.022 381.266 188.216 394.465 182.929 391.522C177.642 388.563 182.84 378.782 186.438 380.024Z" fill="#47631F"/>
</g>
<g style="mix-blend-mode:multiply" opacity="0.22">
<path d="M193.502 383.688C196.257 382.308 196.301 379.917 193.502 379.917C190.703 379.917 191.844 384.516 193.502 383.688Z" fill="#47631F"/>
</g>
<g style="mix-blend-mode:multiply" opacity="0.22">
<path d="M174.62 406.254C177.108 404.859 178.485 407.771 176.042 409.013C173.598 410.239 172.132 407.664 174.62 406.254Z" fill="#47631F"/>
</g>
<g style="mix-blend-mode:multiply" opacity="0.22">
<path d="M216.116 448.749C217.345 449.285 219.848 453.777 213.45 451.263C207.053 448.749 209.6 445.897 216.116 448.749Z" fill="#47631F"/>
</g>
<g style="mix-blend-mode:multiply" opacity="0.22">
<path d="M86.5802 483.717C89.5569 479.563 95.288 488.117 91.0082 490.585C86.7283 493.053 84.2996 486.906 86.5802 483.717Z" fill="#47631F"/>
</g>
<g style="mix-blend-mode:multiply" opacity="0.22">
<path d="M89.423 473.86C91.9109 472.465 93.2882 475.377 90.8447 476.619C88.4012 477.846 86.935 475.27 89.423 473.86Z" fill="#47631F"/>
</g>
<g style="mix-blend-mode:multiply" opacity="0.22">
<path d="M78.05 468.495C79.2792 469.031 81.7819 473.523 75.3843 471.009C68.9868 468.495 71.534 465.643 78.05 468.495Z" fill="#47631F"/>
</g>
<path style="mix-blend-mode:screen" opacity="0.44" d="M86.6686 375.977C86.6686 375.977 109.504 339.123 104.647 353.656C103.877 355.94 102.929 358.255 101.878 360.555C110.423 345.991 118.568 329.802 114.214 331.243C118.049 326.644 122.018 322.444 126.105 318.719C111.045 332.485 97.3609 352.66 86.6538 375.992L86.6686 375.977Z" fill="url(#paint6_linear_68_1189)"/>
<path style="mix-blend-mode:screen" opacity="0.44" d="M115.058 478.965C81.4709 526.78 65.0031 449.347 86.6837 397.531C106.617 349.87 167.275 311.759 159.93 376.575C167.971 327.61 154.643 297.057 132.207 323.44C131.422 324.421 130.637 325.387 129.808 326.414C108.898 352.951 79.5901 399.049 69.1348 428.636C63.4925 454.498 61.9079 481.142 65.9805 505.333C71.4895 529.171 93.6588 510.361 115.058 478.95V478.965Z" fill="url(#paint7_linear_68_1189)"/>
<path style="mix-blend-mode:screen" opacity="0.44" d="M233.724 389.345C232.48 381.22 231.428 374.091 230.599 368.496C232.228 379.61 234.805 396.811 237.885 415.881C237.619 414.256 237.367 412.631 237.1 411.022C243.424 435.381 253.805 472.71 260.958 485.266C267.533 496.794 270.88 472.802 268.718 443.752C268.955 472.296 241.854 446.22 238.285 409.703C235.856 384.792 255.301 382.753 262.35 404.721C260.677 398.635 258.707 392.947 256.367 388.011C238.803 350.897 229.992 363.943 233.709 389.329L233.724 389.345Z" fill="url(#paint8_linear_68_1189)"/>
<path style="mix-blend-mode:screen" opacity="0.44" d="M173.244 353.901C173.851 351.249 174.458 348.689 175.065 346.236C163.825 392.472 149.667 475.577 142.204 522.917C142.544 520.724 142.914 518.455 143.285 516.11C143.285 516.11 138.338 581.37 197.531 530.842C209.763 520.402 217.716 506.007 222.603 489.788C203.203 531.67 162.285 510.99 164.18 419.3C165.661 347.125 220.485 348.106 226.72 399.539C224.098 379.058 219.981 361.597 216.886 351.51C207.098 319.623 183.64 312.019 173.258 353.901H173.244Z" fill="url(#paint9_linear_68_1189)"/>
<path d="M229.385 360.079C225.342 331.856 232.08 341.637 232.08 341.637L233.976 341.085C233.976 341.085 207.793 298.605 177.153 294.696C146.512 290.787 124.639 316.496 124.639 316.496L126.135 318.688C105.58 361.873 73.9919 409.764 73.9919 409.764L71.726 410.807C69.1641 417.797 67.9497 426.735 67.9497 426.735L69.09 428.758C84.0029 386.386 137.775 309.965 150.022 305.856C162.255 301.763 175.553 344.259 147.771 476.328C132.133 550.664 119.649 571.636 111.726 575.76C107.535 577.155 102.159 572.004 102.159 572.004C102.159 572.004 102.233 572.157 102.381 572.402L104.114 575.545C117.679 590.277 143.254 593.159 143.254 593.159L145.579 591.964C145.579 591.964 134.073 581.692 137.301 555.708C140.544 529.723 172.666 328.499 185.89 313.69C199.115 298.881 216.397 314.533 238.537 428.559C260.677 542.585 247.822 559.065 247.822 559.065H250.68C260.691 550.71 265.652 529.447 265.652 529.447V526.243C255.242 537.863 233.398 388.302 229.355 360.079H229.385Z" fill="url(#paint10_linear_68_1189)"/>
<g style="mix-blend-mode:screen" opacity="0.55">
<path d="M140.559 318.703C84.0472 363.406 80.9077 478.045 112.984 455.464C145.061 432.898 158.182 304.753 140.559 318.703Z" fill="url(#paint11_linear_68_1189)"/>
<path d="M187.356 331.013C180.218 336.992 175.065 346.221 165.083 406.346C155.102 466.455 185.564 512.86 208.593 447.354C231.636 381.848 203.261 317.676 187.356 331.013Z" fill="url(#paint12_linear_68_1189)"/>
<path d="M236.404 370.427C229.385 376.85 247.748 459.296 260.425 441.099C273.116 422.902 243.424 364.003 236.404 370.427Z" fill="url(#paint13_linear_68_1189)"/>
</g>
<path d="M120.493 357.105C119.412 350.82 132.207 329.342 136.754 329.25C141.285 329.158 124.462 380.116 120.493 357.105Z" fill="#FFFFBA"/>
<path d="M116.124 355.894C119.131 356.584 119.501 369.308 116.124 369.937C112.748 370.565 113.696 355.327 116.124 355.894Z" fill="#FFFFBA"/>
<path d="M180.515 353.518C177.301 346.067 189.696 322.489 192.525 335.213C195.353 347.922 183.299 359.972 180.515 353.518Z" fill="#FFFFBA"/>
<path d="M177.553 373.953C173.362 367.008 181.196 362.072 181.196 366.824C181.196 371.577 179.582 377.31 177.553 373.953Z" fill="#FFFFBA"/>
<path d="M187.697 360.217C185.964 358.209 191.133 349.87 192.658 354.07C194.184 358.255 191.074 364.127 187.697 360.217Z" fill="#FFFFBA"/>
<path d="M238.019 375.317C242.284 377.617 242.743 389.007 239.233 386.493C235.723 383.979 234.909 373.631 238.019 375.317Z" fill="#FFFFBA"/>
<path d="M241.573 394.312C239.707 394.879 238.552 390.403 240.581 390.403C242.61 390.403 242.965 393.898 241.573 394.312Z" fill="#FFFFBA"/>
<path style="mix-blend-mode:screen" d="M165.942 358.025C165.942 358.025 172.858 306.04 191.799 306.424C210.755 306.792 220.292 345.362 220.292 345.362C220.292 345.362 216.442 317.4 223.802 327.104C213.406 314.349 196.138 297.118 177.153 294.696C146.513 290.787 124.64 316.496 124.64 316.496L126.135 318.688C126.135 318.688 137.613 307.589 148.438 303.741C159.278 299.893 167.201 315.729 165.942 358.025Z" fill="url(#paint14_linear_68_1189)"/>
<path d="M172.34 299.387C169.615 303.48 158.642 302.576 161.47 299.28C164.314 295.984 174.325 296.413 172.34 299.387Z" fill="#FFD1F4"/>
<path d="M153.681 300.736C153.37 298.759 157.798 298.115 157.546 300.2C157.294 302.285 153.903 302.223 153.681 300.736Z" fill="#FFD1F4"/>
<path style="mix-blend-mode:screen" opacity="0.25" d="M249.199 509.15C249.199 497.637 247.259 485.419 243.824 473.476C255.005 535.364 194.05 611.019 137.716 573.122C147.964 581.876 161.988 587.594 180.529 588.759C226.778 591.672 249.185 549.499 249.199 509.134V509.15Z" fill="url(#paint15_linear_68_1189)"/>
<path style="mix-blend-mode:screen" opacity="0.25" d="M140.412 496.625C143.329 487.519 145.536 477.554 147.017 467.59C136.399 518.271 89.72 568.662 73.8594 529.953C76.2733 538.461 90.3716 558.191 98.4574 561.993C118.613 571.467 130.208 528.558 140.427 496.625H140.412Z" fill="url(#paint16_linear_68_1189)"/>
<path style="mix-blend-mode:screen" d="M166 600C217.915 600 260 530.828 260 445.5C260 360.172 217.915 291 166 291C114.085 291 72 360.172 72 445.5C72 530.828 114.085 600 166 600Z" fill="url(#paint17_radial_68_1189)"/>
<g style="mix-blend-mode:screen">
<path d="M258.026 372.405C258.011 372.895 257.611 373.279 257.137 373.248C256.664 373.217 256.293 372.819 256.323 372.328C256.353 371.838 256.738 371.454 257.212 371.485C257.685 371.5 258.056 371.914 258.026 372.405Z" fill="#B3FF00"/>
</g>
<path style="mix-blend-mode:screen" opacity="0.69" d="M272.714 388.44C281.296 379.556 281.296 365.152 272.714 356.267C264.131 347.383 250.216 347.383 241.634 356.267C233.051 365.152 233.051 379.556 241.634 388.44C250.216 397.325 264.131 397.325 272.714 388.44Z" fill="url(#paint18_radial_68_1189)"/>
<g style="mix-blend-mode:screen">
<path d="M121.397 214.182C121.382 214.673 120.982 215.056 120.508 215.025C120.034 215.01 119.664 214.596 119.694 214.105C119.723 213.615 120.108 213.232 120.582 213.262C121.056 213.278 121.426 213.691 121.397 214.182Z" fill="#B3FF00"/>
</g>
<path style="mix-blend-mode:screen" opacity="0.69" d="M128.398 235.385C139.732 230.889 145.398 217.733 141.055 206C136.711 194.268 124.002 188.402 112.668 192.899C101.335 197.395 95.6683 210.551 100.012 222.284C104.356 234.016 117.065 239.882 128.398 235.385Z" fill="url(#paint19_radial_68_1189)"/>
<g style="mix-blend-mode:screen">
<path d="M94.4884 336.501C94.4736 336.992 94.0738 337.375 93.5999 337.345C93.126 337.329 92.7557 336.915 92.7854 336.425C92.815 335.934 93.2 335.551 93.6739 335.582C94.1478 335.612 94.518 336.011 94.4884 336.501Z" fill="#B3FF00"/>
</g>
<path style="mix-blend-mode:screen" opacity="0.69" d="M113.246 346.723C118.728 335.513 114.393 321.825 103.564 316.15C92.7351 310.475 79.5124 314.962 74.0305 326.172C68.5485 337.382 72.8831 351.07 83.7121 356.745C94.541 362.42 107.764 357.933 113.246 346.723Z" fill="url(#paint20_radial_68_1189)"/>
<g style="mix-blend-mode:screen">
<path d="M219.374 441.972C219.359 442.463 218.959 442.846 218.486 442.815C218.012 442.785 217.641 442.386 217.671 441.896C217.701 441.405 218.086 441.022 218.56 441.053C219.034 441.083 219.404 441.482 219.374 441.972Z" fill="#B3FF00"/>
</g>
<path style="mix-blend-mode:screen" opacity="0.69" d="M240.477 442.599C240.844 430.04 231.306 419.552 219.174 419.172C207.042 418.793 196.91 428.666 196.544 441.225C196.177 453.784 205.715 464.272 217.847 464.652C229.979 465.031 240.111 455.158 240.477 442.599Z" fill="url(#paint21_radial_68_1189)"/>
<g style="mix-blend-mode:screen">
<path d="M116.318 490.616C116.303 491.106 115.903 491.49 115.429 491.459C114.955 491.428 114.585 491.03 114.614 490.539C114.644 490.049 115.029 489.665 115.503 489.696C115.977 489.711 116.347 490.125 116.318 490.616Z" fill="#B3FF00"/>
</g>
<path style="mix-blend-mode:screen" opacity="0.69" d="M115.458 513.335C127.596 513.335 137.435 503.149 137.435 490.585C137.435 478.02 127.596 467.835 115.458 467.835C103.321 467.835 93.4814 478.02 93.4814 490.585C93.4814 503.149 103.321 513.335 115.458 513.335Z" fill="url(#paint22_radial_68_1189)"/>
<g style="mix-blend-mode:screen">
<path d="M276.345 284.793C276.33 285.283 275.93 285.666 275.456 285.636C274.982 285.62 274.612 285.207 274.642 284.716C274.657 284.225 275.056 283.842 275.53 283.873C276.004 283.888 276.374 284.302 276.345 284.793Z" fill="#B3FF00"/>
</g>
<path style="mix-blend-mode:screen" opacity="0.69" d="M290.492 301.349C299.366 292.777 299.847 278.381 291.566 269.195C283.285 260.009 269.379 259.511 260.505 268.083C251.631 276.656 251.15 291.052 259.431 300.238C267.712 309.424 281.618 309.921 290.492 301.349Z" fill="url(#paint23_radial_68_1189)"/>
<g style="mix-blend-mode:screen">
<path d="M115.503 565.811C115.488 566.302 115.088 566.685 114.614 566.654C114.14 566.624 113.77 566.225 113.8 565.735C113.829 565.244 114.214 564.861 114.688 564.891C115.162 564.922 115.532 565.321 115.503 565.811Z" fill="#B3FF00"/>
</g>
<path style="mix-blend-mode:screen" opacity="0.69" d="M133.263 577.898C139.724 567.261 136.631 553.217 126.356 546.529C116.081 539.841 102.514 543.042 96.0534 553.679C89.5928 564.316 92.6851 578.36 102.96 585.048C113.235 591.736 126.802 588.534 133.263 577.898Z" fill="url(#paint24_radial_68_1189)"/>
<g style="mix-blend-mode:screen">
<path d="M282.55 435.457C282.535 435.948 282.135 436.331 281.661 436.301C281.187 436.27 280.817 435.871 280.847 435.381C280.876 434.89 281.262 434.507 281.735 434.538C282.209 434.568 282.58 434.967 282.55 435.457Z" fill="#B3FF00"/>
</g>
<path style="mix-blend-mode:screen" opacity="0.69" d="M303.653 436.317C303.18 448.872 292.961 458.637 280.832 458.147C268.704 457.656 259.27 447.078 259.744 434.523C260.218 421.967 270.436 412.202 282.565 412.693C294.694 413.183 304.127 423.761 303.653 436.317Z" fill="url(#paint25_radial_68_1189)"/>
<g style="mix-blend-mode:screen">
<path d="M31.5939 280.331C31.5791 280.822 31.1792 281.205 30.7053 281.175C30.2314 281.144 29.8612 280.745 29.8908 280.255C29.9204 279.764 30.3055 279.381 30.7794 279.412C31.2533 279.442 31.6235 279.841 31.5939 280.331Z" fill="#B3FF00"/>
</g>
<path style="mix-blend-mode:screen" opacity="0.69" d="M49.9129 291.421C55.8416 280.457 52.0622 266.594 41.4713 260.457C30.8804 254.32 17.4885 258.232 11.5597 269.195C5.63093 280.159 9.41035 294.022 20.0013 300.159C30.5922 306.297 43.9841 302.384 49.9129 291.421Z" fill="url(#paint26_radial_68_1189)"/>
<g style="mix-blend-mode:screen">
<path d="M184.751 222.568C184.736 223.058 184.336 223.441 183.862 223.411C183.388 223.395 183.018 222.981 183.048 222.491C183.077 222 183.462 221.617 183.936 221.648C184.41 221.678 184.78 222.077 184.751 222.568Z" fill="#B3FF00"/>
</g>
<path style="mix-blend-mode:screen" opacity="0.69" d="M183.891 245.271C196.029 245.271 205.868 235.086 205.868 222.521C205.868 209.957 196.029 199.771 183.891 199.771C171.754 199.771 161.915 209.957 161.915 222.521C161.915 235.086 171.754 245.271 183.891 245.271Z" fill="url(#paint27_radial_68_1189)"/>
<g opacity="0.65">
<g style="mix-blend-mode:screen">
<path d="M192.451 348.95C192.451 349.134 192.303 349.272 192.125 349.272C191.947 349.272 191.814 349.118 191.814 348.934C191.814 348.75 191.962 348.612 192.14 348.612C192.317 348.612 192.451 348.766 192.451 348.95Z" fill="#B3FF00"/>
</g>
<path style="mix-blend-mode:screen" opacity="0.69" d="M200.285 349.272C200.107 353.932 196.316 357.565 191.814 357.381C187.312 357.197 183.802 353.273 183.98 348.612C184.158 343.952 187.949 340.319 192.451 340.503C196.953 340.687 200.463 344.611 200.285 349.272Z" fill="url(#paint28_radial_68_1189)"/>
</g>
<g opacity="0.65">
<g style="mix-blend-mode:screen">
<path d="M82.2262 271.747C82.2262 271.931 82.0781 272.069 81.9003 272.069C81.7226 272.069 81.5894 271.916 81.5894 271.732C81.5894 271.548 81.7374 271.41 81.9152 271.41C82.0929 271.41 82.2262 271.563 82.2262 271.747Z" fill="#B3FF00"/>
</g>
<path style="mix-blend-mode:screen" opacity="0.69" d="M90.0751 272.069C89.8973 276.729 86.1062 280.362 81.6042 280.178C77.1022 279.994 73.5924 276.07 73.7701 271.41C73.9478 266.749 77.739 263.116 82.241 263.3C86.743 263.484 90.2528 267.408 90.0751 272.069Z" fill="url(#paint29_radial_68_1189)"/>
</g>
<g opacity="0.65">
<g style="mix-blend-mode:screen">
<path d="M90.4898 199.389C90.4898 199.572 90.3417 199.71 90.164 199.71C89.9863 199.71 89.853 199.557 89.853 199.373C89.853 199.189 90.0011 199.051 90.1788 199.051C90.3565 199.051 90.4898 199.205 90.4898 199.389Z" fill="#B3FF00"/>
</g>
<path style="mix-blend-mode:screen" opacity="0.69" d="M98.3387 199.711C98.161 204.371 94.3699 208.004 89.8679 207.82C85.3659 207.636 81.8561 203.712 82.0338 199.051C82.2115 194.391 86.0027 190.758 90.5047 190.942C95.0067 191.126 98.5164 195.05 98.3387 199.711Z" fill="url(#paint30_radial_68_1189)"/>
</g>
<g opacity="0.65">
<g style="mix-blend-mode:screen">
<path d="M228.852 252.047C228.852 252.231 228.704 252.369 228.526 252.369C228.349 252.369 228.215 252.216 228.215 252.032C228.215 251.848 228.363 251.71 228.541 251.71C228.719 251.71 228.852 251.863 228.852 252.047Z" fill="#B3FF00"/>
</g>
<path style="mix-blend-mode:screen" opacity="0.69" d="M236.701 252.369C236.523 257.03 232.732 260.663 228.23 260.479C223.728 260.295 220.218 256.37 220.396 251.71C220.574 247.05 224.365 243.416 228.867 243.6C233.369 243.784 236.879 247.709 236.701 252.369Z" fill="url(#paint31_radial_68_1189)"/>
</g>
<g opacity="0.65">
<g style="mix-blend-mode:screen">
<path d="M109.504 395.323C109.504 395.507 109.356 395.645 109.179 395.645C109.001 395.645 108.868 395.492 108.868 395.308C108.868 395.124 109.016 394.986 109.193 394.986C109.371 394.986 109.504 395.139 109.504 395.323Z" fill="#B3FF00"/>
</g>
<path style="mix-blend-mode:screen" opacity="0.69" d="M117.353 395.645C117.176 400.306 113.385 403.939 108.883 403.755C104.381 403.571 100.871 399.647 101.048 394.986C101.226 390.326 105.017 386.693 109.519 386.877C114.021 387.061 117.531 390.985 117.353 395.645Z" fill="url(#paint32_radial_68_1189)"/>
</g>
<g opacity="0.65">
<g style="mix-blend-mode:screen">
<path d="M281.707 477.064C281.707 477.248 281.559 477.386 281.381 477.386C281.203 477.386 281.07 477.232 281.07 477.048C281.07 476.865 281.218 476.727 281.396 476.727C281.573 476.727 281.707 476.88 281.707 477.064Z" fill="#B3FF00"/>
</g>
<path style="mix-blend-mode:screen" opacity="0.69" d="M289.54 477.386C289.363 482.046 285.572 485.68 281.07 485.496C276.568 485.312 273.058 481.387 273.235 476.727C273.413 472.066 277.204 468.433 281.706 468.617C286.208 468.801 289.718 472.726 289.54 477.386Z" fill="url(#paint33_radial_68_1189)"/>
</g>
<g opacity="0.65">
<g style="mix-blend-mode:screen">
<path d="M297.789 519.988C297.789 520.172 297.641 520.31 297.463 520.31C297.286 520.31 297.152 520.157 297.152 519.973C297.152 519.789 297.3 519.651 297.478 519.651C297.656 519.651 297.789 519.804 297.789 519.988Z" fill="#B3FF00"/>
</g>
<path style="mix-blend-mode:screen" opacity="0.69" d="M305.623 520.31C305.446 524.971 301.655 528.604 297.153 528.42C292.651 528.236 289.141 524.311 289.318 519.651C289.496 514.991 293.287 511.357 297.789 511.541C302.291 511.725 305.801 515.65 305.623 520.31Z" fill="url(#paint34_radial_68_1189)"/>
</g>
<g opacity="0.65">
<g style="mix-blend-mode:screen">
<path d="M39.546 501.132C39.546 501.316 39.3979 501.454 39.2202 501.454C39.0425 501.454 38.9092 501.301 38.9092 501.117C38.9092 500.933 39.0573 500.795 39.235 500.795C39.4127 500.795 39.546 500.948 39.546 501.132Z" fill="#B3FF00"/>
</g>
<path style="mix-blend-mode:screen" opacity="0.69" d="M47.3802 501.454C47.2025 506.114 43.4114 509.748 38.9094 509.564C34.4074 509.38 30.8976 505.455 31.0753 500.795C31.253 496.134 35.0442 492.501 39.5462 492.685C44.0482 492.869 47.5579 496.794 47.3802 501.454Z" fill="url(#paint35_radial_68_1189)"/>
</g>
<g opacity="0.65">
<g style="mix-blend-mode:screen">
<path d="M65.6397 182.556C65.6397 182.739 65.4916 182.877 65.3139 182.877C65.1362 182.877 65.0029 182.724 65.0029 182.54C65.0029 182.356 65.151 182.218 65.3287 182.218C65.5064 182.218 65.6397 182.372 65.6397 182.556Z" fill="#B3FF00"/>
</g>
<path style="mix-blend-mode:screen" opacity="0.69" d="M73.4886 182.878C73.3109 187.538 69.5198 191.171 65.0178 190.988C60.5158 190.804 57.006 186.879 57.1837 182.219C57.3614 177.558 61.1526 173.925 65.6546 174.109C70.1566 174.293 73.6663 178.217 73.4886 182.878Z" fill="url(#paint36_radial_68_1189)"/>
</g>
<g opacity="0.65">
<g style="mix-blend-mode:screen">
<path d="M67.9644 378.475C67.9644 378.659 67.8163 378.797 67.6386 378.797C67.4609 378.797 67.3276 378.644 67.3276 378.46C67.3276 378.276 67.4757 378.138 67.6534 378.138C67.8311 378.138 67.9644 378.291 67.9644 378.475Z" fill="#B3FF00"/>
</g>
<path style="mix-blend-mode:screen" opacity="0.69" d="M75.7992 378.798C75.6215 383.458 71.8303 387.091 67.3283 386.907C62.8263 386.723 59.3165 382.799 59.4943 378.138C59.672 373.478 63.4631 369.845 67.9651 370.029C72.4671 370.213 75.9769 374.137 75.7992 378.798Z" fill="url(#paint37_radial_68_1189)"/>
</g>
<g opacity="0.65">
<g style="mix-blend-mode:screen">
<path d="M158.212 438.447C158.212 438.631 158.064 438.769 157.886 438.769C157.708 438.769 157.575 438.616 157.575 438.432C157.575 438.248 157.723 438.11 157.901 438.11C158.079 438.11 158.212 438.263 158.212 438.447Z" fill="#B3FF00"/>
</g>
<path style="mix-blend-mode:screen" opacity="0.69" d="M166.061 438.769C165.883 443.429 162.092 447.063 157.59 446.879C153.088 446.695 149.578 442.77 149.756 438.11C149.934 433.449 153.725 429.816 158.227 430C162.729 430.184 166.239 434.109 166.061 438.769Z" fill="url(#paint38_radial_68_1189)"/>
</g>
<g opacity="0.65">
<g style="mix-blend-mode:screen">
<path d="M80.7598 96.2623C80.7598 96.4463 80.6117 96.5842 80.434 96.5842C80.2563 96.5842 80.123 96.4309 80.123 96.247C80.123 96.063 80.2711 95.925 80.4488 95.925C80.6266 95.925 80.7598 96.0784 80.7598 96.2623Z" fill="#B3FF00"/>
</g>
<path style="mix-blend-mode:screen" opacity="0.69" d="M88.6087 96.5839C88.431 101.244 84.6399 104.878 80.1379 104.694C75.6359 104.51 72.1261 100.585 72.3038 95.9247C72.4815 91.2643 76.2727 87.6311 80.7747 87.815C85.2767 87.999 88.7865 91.9235 88.6087 96.5839Z" fill="url(#paint39_radial_68_1189)"/>
</g>
<g opacity="0.65">
<g style="mix-blend-mode:screen">
<path d="M39.2203 79.4144C39.2203 79.5984 39.0722 79.7363 38.8945 79.7363C38.7168 79.7363 38.5835 79.583 38.5835 79.3991C38.5835 79.2151 38.7316 79.0771 38.9093 79.0771C39.087 79.0771 39.2203 79.2305 39.2203 79.4144Z" fill="#B3FF00"/>
</g>
<path style="mix-blend-mode:screen" opacity="0.69" d="M47.0545 79.7362C46.8768 84.3966 43.0857 88.0299 38.5837 87.8459C34.0817 87.6619 30.5719 83.7374 30.7496 79.077C30.9273 74.4167 34.7185 70.7834 39.2205 70.9674C43.7225 71.1513 47.2323 75.0759 47.0545 79.7362Z" fill="url(#paint40_radial_68_1189)"/>
</g>
<g opacity="0.65">
<g style="mix-blend-mode:screen">
<path d="M129.467 139.371C129.467 139.555 129.319 139.693 129.142 139.693C128.964 139.693 128.831 139.54 128.831 139.356C128.831 139.172 128.979 139.034 129.156 139.034C129.334 139.034 129.467 139.187 129.467 139.371Z" fill="#B3FF00"/>
</g>
<path style="mix-blend-mode:screen" opacity="0.69" d="M137.316 139.693C137.139 144.353 133.347 147.987 128.845 147.803C124.343 147.619 120.834 143.694 121.011 139.034C121.189 134.373 124.98 130.74 129.482 130.924C133.984 131.108 137.494 135.033 137.316 139.693Z" fill="url(#paint41_radial_68_1189)"/>
</g>
<g opacity="0.65">
<g style="mix-blend-mode:screen">
<path d="M42.1231 153.198C42.1231 153.382 41.975 153.52 41.7973 153.52C41.6196 153.52 41.4863 153.367 41.4863 153.183C41.4863 152.999 41.6344 152.861 41.8121 152.861C41.9898 152.861 42.1231 153.014 42.1231 153.198Z" fill="#B3FF00"/>
</g>
<path style="mix-blend-mode:screen" opacity="0.69" d="M49.972 153.505C49.7943 158.165 46.0032 161.799 41.5012 161.615C36.9992 161.431 33.4894 157.506 33.6671 152.846C33.8448 148.185 37.636 144.552 42.138 144.736C46.64 144.92 50.1497 148.845 49.972 153.505Z" fill="url(#paint42_radial_68_1189)"/>
</g>
<g opacity="0.65">
<g style="mix-blend-mode:screen">
<path d="M247.289 463.497C247.289 463.681 247.141 463.819 246.963 463.819C246.786 463.819 246.652 463.665 246.652 463.481C246.652 463.297 246.8 463.159 246.978 463.159C247.156 463.159 247.289 463.313 247.289 463.497Z" fill="#B3FF00"/>
</g>
<path style="mix-blend-mode:screen" opacity="0.69" d="M255.124 463.819C254.946 468.479 251.155 472.112 246.653 471.928C242.151 471.744 238.641 467.82 238.819 463.159C238.997 458.499 242.788 454.866 247.29 455.05C251.792 455.234 255.302 459.158 255.124 463.819Z" fill="url(#paint43_radial_68_1189)"/>
</g>
<g opacity="0.65">
<g style="mix-blend-mode:screen">
<path d="M230.673 571.038C230.673 571.222 230.525 571.36 230.348 571.36C230.17 571.36 230.037 571.207 230.037 571.023C230.037 570.839 230.185 570.701 230.362 570.701C230.54 570.701 230.673 570.854 230.673 571.038Z" fill="#B3FF00"/>
</g>
<path style="mix-blend-mode:screen" opacity="0.69" d="M238.508 571.36C238.33 576.02 234.539 579.654 230.037 579.47C225.535 579.286 222.025 575.361 222.203 570.701C222.38 566.04 226.172 562.407 230.674 562.591C235.176 562.775 238.685 566.7 238.508 571.36Z" fill="url(#paint44_radial_68_1189)"/>
</g>
<g opacity="0.65">
<g style="mix-blend-mode:screen">
<path d="M57.4801 517.765C57.4801 517.949 57.332 518.087 57.1543 518.087C56.9765 518.087 56.8433 517.934 56.8433 517.75C56.8433 517.566 56.9914 517.428 57.1691 517.428C57.3468 517.428 57.4801 517.581 57.4801 517.765Z" fill="#B3FF00"/>
</g>
<path style="mix-blend-mode:screen" opacity="0.69" d="M65.3143 518.087C65.1366 522.748 61.3454 526.381 56.8435 526.197C52.3415 526.013 48.8317 522.088 49.0094 517.428C49.1871 512.768 52.9783 509.134 57.4803 509.318C61.9822 509.502 65.492 513.427 65.3143 518.087Z" fill="url(#paint45_radial_68_1189)"/>
</g>
<g opacity="0.65">
<g style="mix-blend-mode:screen">
<path d="M159.308 560.077C159.308 560.261 159.16 560.399 158.982 560.399C158.805 560.399 158.671 560.246 158.671 560.062C158.671 559.878 158.819 559.74 158.997 559.74C159.175 559.74 159.308 559.893 159.308 560.077Z" fill="#B3FF00"/>
</g>
<path style="mix-blend-mode:screen" opacity="0.69" d="M167.142 560.399C166.965 565.059 163.174 568.692 158.672 568.508C154.17 568.324 150.66 564.4 150.838 559.739C151.015 555.079 154.806 551.446 159.308 551.63C163.81 551.814 167.32 555.738 167.142 560.399Z" fill="url(#paint46_radial_68_1189)"/>
</g>
<defs>
<linearGradient id="paint0_linear_68_1189" x1="162.24" y1="516.11" x2="162.24" y2="-336.938" gradientUnits="userSpaceOnUse">
<stop stop-color="#00FF00"/>
<stop offset="0.19" stop-color="#00D400"/>
<stop offset="0.61" stop-color="#006800"/>
<stop offset="1"/>
</linearGradient>
<linearGradient id="paint1_linear_68_1189" x1="106.188" y1="350.697" x2="218.585" y2="542.162" gradientUnits="userSpaceOnUse">
<stop offset="0.13" stop-color="#AC9C01"/>
<stop offset="0.43" stop-color="#958900"/>
<stop offset="1" stop-color="#605D00"/>
</linearGradient>
<linearGradient id="paint2_linear_68_1189" x1="73.6072" y1="383.013" x2="190.078" y2="495.525" gradientUnits="userSpaceOnUse">
<stop stop-color="white"/>
<stop offset="0.13" stop-color="#DAE3DC"/>
<stop offset="0.36" stop-color="#9EB6A4"/>
<stop offset="0.56" stop-color="#6F9377"/>
<stop offset="0.75" stop-color="#4D7A57"/>
<stop offset="0.9" stop-color="#386A44"/>
<stop offset="1" stop-color="#31653D"/>
</linearGradient>
<linearGradient id="paint3_linear_68_1189" x1="193.251" y1="377.494" x2="305.048" y2="485.493" gradientUnits="userSpaceOnUse">
<stop stop-color="white"/>
<stop offset="0.13" stop-color="#DAE3DC"/>
<stop offset="0.36" stop-color="#9EB6A4"/>
<stop offset="0.56" stop-color="#6F9377"/>
<stop offset="0.75" stop-color="#4D7A57"/>
<stop offset="0.9" stop-color="#386A44"/>
<stop offset="1" stop-color="#31653D"/>
</linearGradient>
<linearGradient id="paint4_linear_68_1189" x1="112.822" y1="389.329" x2="267.947" y2="539.167" gradientUnits="userSpaceOnUse">
<stop stop-color="white"/>
<stop offset="0.13" stop-color="#DAE3DC"/>
<stop offset="0.36" stop-color="#9EB6A4"/>
<stop offset="0.56" stop-color="#6F9377"/>
<stop offset="0.75" stop-color="#4D7A57"/>
<stop offset="0.9" stop-color="#386A44"/>
<stop offset="1" stop-color="#31653D"/>
</linearGradient>
<linearGradient id="paint5_linear_68_1189" x1="90.9632" y1="354.791" x2="109.64" y2="372.832" gradientUnits="userSpaceOnUse">
<stop stop-color="white"/>
<stop offset="0.13" stop-color="#DAE3DC"/>
<stop offset="0.36" stop-color="#9EB6A4"/>
<stop offset="0.56" stop-color="#6F9377"/>
<stop offset="0.75" stop-color="#4D7A57"/>
<stop offset="0.9" stop-color="#386A44"/>
<stop offset="1" stop-color="#31653D"/>
</linearGradient>
<linearGradient id="paint6_linear_68_1189" x1="102.278" y1="343.078" x2="110.811" y2="351.322" gradientUnits="userSpaceOnUse">
<stop stop-color="#FFE72C"/>
<stop offset="0.15" stop-color="#DDC826"/>
<stop offset="0.48" stop-color="#887B17"/>
<stop offset="0.96" stop-color="#010100"/>
<stop offset="0.97"/>
</linearGradient>
<linearGradient id="paint7_linear_68_1189" x1="77.6797" y1="379.717" x2="148.8" y2="448.421" gradientUnits="userSpaceOnUse">
<stop stop-color="#FFE72C"/>
<stop offset="0.15" stop-color="#DDC826"/>
<stop offset="0.48" stop-color="#887B17"/>
<stop offset="0.96" stop-color="#010100"/>
<stop offset="0.97"/>
</linearGradient>
<linearGradient id="paint8_linear_68_1189" x1="213.317" y1="386.386" x2="290.841" y2="461.276" gradientUnits="userSpaceOnUse">
<stop stop-color="#FFE72C"/>
<stop offset="0.15" stop-color="#DDC826"/>
<stop offset="0.48" stop-color="#887B17"/>
<stop offset="0.96" stop-color="#010100"/>
<stop offset="0.97"/>
</linearGradient>
<linearGradient id="paint9_linear_68_1189" x1="128.994" y1="387.214" x2="236.44" y2="491.009" gradientUnits="userSpaceOnUse">
<stop stop-color="#FFE72C"/>
<stop offset="0.15" stop-color="#DDC826"/>
<stop offset="0.48" stop-color="#887B17"/>
<stop offset="0.96" stop-color="#010100"/>
<stop offset="0.97"/>
</linearGradient>
<linearGradient id="paint10_linear_68_1189" x1="101.404" y1="275.809" x2="197.994" y2="520.2" gradientUnits="userSpaceOnUse">
<stop stop-color="#6241A3"/>
<stop offset="0.04" stop-color="#583893"/>
<stop offset="0.12" stop-color="#452776"/>
<stop offset="0.22" stop-color="#36195E"/>
<stop offset="0.33" stop-color="#2B0F4C"/>
<stop offset="0.46" stop-color="#23073F"/>
<stop offset="0.62" stop-color="#1E0338"/>
<stop offset="0.98" stop-color="#1D0236"/>
</linearGradient>
<linearGradient id="paint11_linear_68_1189" x1="97.7309" y1="361.858" x2="152.749" y2="415.006" gradientUnits="userSpaceOnUse">
<stop stop-color="#FF6DB8"/>
<stop offset="1"/>
</linearGradient>
<linearGradient id="paint12_linear_68_1189" x1="152.007" y1="367.392" x2="227.141" y2="439.973" gradientUnits="userSpaceOnUse">
<stop stop-color="#FF6DB8"/>
<stop offset="1"/>
</linearGradient>
<linearGradient id="paint13_linear_68_1189" x1="224.127" y1="383.12" x2="271.96" y2="429.342" gradientUnits="userSpaceOnUse">
<stop stop-color="#FF6DB8"/>
<stop offset="1"/>
</linearGradient>
<linearGradient id="paint14_linear_68_1189" x1="146.868" y1="293.408" x2="210.803" y2="355.185" gradientUnits="userSpaceOnUse">
<stop stop-color="#9029D1"/>
<stop offset="0.19" stop-color="#671D95"/>
<stop offset="0.38" stop-color="#421260"/>
<stop offset="0.56" stop-color="#250A36"/>
<stop offset="0.72" stop-color="#110418"/>
<stop offset="0.86" stop-color="#040106"/>
<stop offset="0.96"/>
</linearGradient>
<linearGradient id="paint15_linear_68_1189" x1="203.469" y1="536.453" x2="296.926" y2="626.719" gradientUnits="userSpaceOnUse">
<stop offset="0.06"/>
<stop offset="0.55" stop-color="#B3E72C"/>
</linearGradient>
<linearGradient id="paint16_linear_68_1189" x1="113.64" y1="515.656" x2="181.472" y2="588.439" gradientUnits="userSpaceOnUse">
<stop offset="0.06"/>
<stop offset="0.55" stop-color="#B3E72C"/>
</linearGradient>
<radialGradient id="paint17_radial_68_1189" cx="0" cy="0" r="1" gradientUnits="userSpaceOnUse" gradientTransform="translate(166 444.598) scale(94 154.055)">
<stop stop-color="#86AE00"/>
<stop offset="0.4" stop-color="#445800"/>
<stop offset="0.72" stop-color="#131800"/>
<stop offset="0.87"/>
</radialGradient>
<radialGradient id="paint18_radial_68_1189" cx="0" cy="0" r="1" gradientUnits="userSpaceOnUse" gradientTransform="translate(257.206 372.369) rotate(2.32909) scale(21.9781 22.7487)">
<stop stop-color="#00FF00"/>
<stop offset="0.12" stop-color="#00C600"/>
<stop offset="0.24" stop-color="#009200"/>
<stop offset="0.37" stop-color="#006500"/>
<stop offset="0.5" stop-color="#004000"/>
<stop offset="0.62" stop-color="#002400"/>
<stop offset="0.75" stop-color="#001000"/>
<stop offset="0.88" stop-color="#000400"/>
<stop offset="1"/>
</radialGradient>
<radialGradient id="paint19_radial_68_1189" cx="0" cy="0" r="1" gradientUnits="userSpaceOnUse" gradientTransform="translate(120.516 214.169) rotate(2.33942) scale(21.9781 22.7487)">
<stop stop-color="#00FF00"/>
<stop offset="0.12" stop-color="#00C600"/>
<stop offset="0.24" stop-color="#009200"/>
<stop offset="0.37" stop-color="#006500"/>
<stop offset="0.5" stop-color="#004000"/>
<stop offset="0.62" stop-color="#002400"/>
<stop offset="0.75" stop-color="#001000"/>
<stop offset="0.88" stop-color="#000400"/>
<stop offset="1"/>
</radialGradient>
<radialGradient id="paint20_radial_68_1189" cx="0" cy="0" r="1" gradientUnits="userSpaceOnUse" gradientTransform="translate(93.6431 336.464) rotate(2.32907) scale(21.9781 22.7487)">
<stop stop-color="#00FF00"/>
<stop offset="0.12" stop-color="#00C600"/>
<stop offset="0.24" stop-color="#009200"/>
<stop offset="0.37" stop-color="#006500"/>
<stop offset="0.5" stop-color="#004000"/>
<stop offset="0.62" stop-color="#002400"/>
<stop offset="0.75" stop-color="#001000"/>
<stop offset="0.88" stop-color="#000400"/>
<stop offset="1"/>
</radialGradient>
<radialGradient id="paint21_radial_68_1189" cx="0" cy="0" r="1" gradientUnits="userSpaceOnUse" gradientTransform="translate(218.516 441.928) rotate(2.32907) scale(21.978 22.7487)">
<stop stop-color="#00FF00"/>
<stop offset="0.12" stop-color="#00C600"/>
<stop offset="0.24" stop-color="#009200"/>
<stop offset="0.37" stop-color="#006500"/>
<stop offset="0.5" stop-color="#004000"/>
<stop offset="0.62" stop-color="#002400"/>
<stop offset="0.75" stop-color="#001000"/>
<stop offset="0.88" stop-color="#000400"/>
<stop offset="1"/>
</radialGradient>
<radialGradient id="paint22_radial_68_1189" cx="0" cy="0" r="1" gradientUnits="userSpaceOnUse" gradientTransform="translate(115.474 490.588) rotate(2.32907) scale(21.9781 22.7487)">
<stop stop-color="#00FF00"/>
<stop offset="0.12" stop-color="#00C600"/>
<stop offset="0.24" stop-color="#009200"/>
<stop offset="0.37" stop-color="#006500"/>
<stop offset="0.5" stop-color="#004000"/>
<stop offset="0.62" stop-color="#002400"/>
<stop offset="0.75" stop-color="#001000"/>
<stop offset="0.88" stop-color="#000400"/>
<stop offset="1"/>
</radialGradient>
<radialGradient id="paint23_radial_68_1189" cx="0" cy="0" r="1" gradientUnits="userSpaceOnUse" gradientTransform="translate(275.499 284.746) rotate(2.32907) scale(21.9781 22.7487)">
<stop stop-color="#00FF00"/>
<stop offset="0.12" stop-color="#00C600"/>
<stop offset="0.24" stop-color="#009200"/>
<stop offset="0.37" stop-color="#006500"/>
<stop offset="0.5" stop-color="#004000"/>
<stop offset="0.62" stop-color="#002400"/>
<stop offset="0.75" stop-color="#001000"/>
<stop offset="0.88" stop-color="#000400"/>
<stop offset="1"/>
</radialGradient>
<radialGradient id="paint24_radial_68_1189" cx="0" cy="0" r="1" gradientUnits="userSpaceOnUse" gradientTransform="translate(114.699 565.794) rotate(2.32906) scale(21.978 22.7487)">
<stop stop-color="#00FF00"/>
<stop offset="0.12" stop-color="#00C600"/>
<stop offset="0.24" stop-color="#009200"/>
<stop offset="0.37" stop-color="#006500"/>
<stop offset="0.5" stop-color="#004000"/>
<stop offset="0.62" stop-color="#002400"/>
<stop offset="0.75" stop-color="#001000"/>
<stop offset="0.88" stop-color="#000400"/>
<stop offset="1"/>
</radialGradient>
<radialGradient id="paint25_radial_68_1189" cx="0" cy="0" r="1" gradientUnits="userSpaceOnUse" gradientTransform="translate(281.72 435.43) rotate(2.32907) scale(21.9781 22.7487)">
<stop stop-color="#00FF00"/>
<stop offset="0.12" stop-color="#00C600"/>
<stop offset="0.24" stop-color="#009200"/>
<stop offset="0.37" stop-color="#006500"/>
<stop offset="0.5" stop-color="#004000"/>
<stop offset="0.62" stop-color="#002400"/>
<stop offset="0.75" stop-color="#001000"/>
<stop offset="0.88" stop-color="#000400"/>
<stop offset="1"/>
</radialGradient>
<radialGradient id="paint26_radial_68_1189" cx="0" cy="0" r="1" gradientUnits="userSpaceOnUse" gradientTransform="translate(30.7238 280.325) rotate(2.33942) scale(21.9781 22.7487)">
<stop stop-color="#00FF00"/>
<stop offset="0.12" stop-color="#00C600"/>
<stop offset="0.24" stop-color="#009200"/>
<stop offset="0.37" stop-color="#006500"/>
<stop offset="0.5" stop-color="#004000"/>
<stop offset="0.62" stop-color="#002400"/>
<stop offset="0.75" stop-color="#001000"/>
<stop offset="0.88" stop-color="#000400"/>
<stop offset="1"/>
</radialGradient>
<radialGradient id="paint27_radial_68_1189" cx="0" cy="0" r="1" gradientUnits="userSpaceOnUse" gradientTransform="translate(183.908 222.524) rotate(2.32907) scale(21.9781 22.7487)">
<stop stop-color="#00FF00"/>
<stop offset="0.12" stop-color="#00C600"/>
<stop offset="0.24" stop-color="#009200"/>
<stop offset="0.37" stop-color="#006500"/>
<stop offset="0.5" stop-color="#004000"/>
<stop offset="0.62" stop-color="#002400"/>
<stop offset="0.75" stop-color="#001000"/>
<stop offset="0.88" stop-color="#000400"/>
<stop offset="1"/>
</radialGradient>
<radialGradient id="paint28_radial_68_1189" cx="0" cy="0" r="1" gradientUnits="userSpaceOnUse" gradientTransform="translate(192.152 348.94) rotate(2.32907) scale(8.16032 8.44646)">
<stop stop-color="#00FF00"/>
<stop offset="0.12" stop-color="#00C600"/>
<stop offset="0.24" stop-color="#009200"/>
<stop offset="0.37" stop-color="#006500"/>
<stop offset="0.5" stop-color="#004000"/>
<stop offset="0.62" stop-color="#002400"/>
<stop offset="0.75" stop-color="#001000"/>
<stop offset="0.88" stop-color="#000400"/>
<stop offset="1"/>
</radialGradient>
<radialGradient id="paint29_radial_68_1189" cx="0" cy="0" r="1" gradientUnits="userSpaceOnUse" gradientTransform="translate(81.9261 271.751) rotate(2.32907) scale(8.16031 8.44646)">
<stop stop-color="#00FF00"/>
<stop offset="0.12" stop-color="#00C600"/>
<stop offset="0.24" stop-color="#009200"/>
<stop offset="0.37" stop-color="#006500"/>
<stop offset="0.5" stop-color="#004000"/>
<stop offset="0.62" stop-color="#002400"/>
<stop offset="0.75" stop-color="#001000"/>
<stop offset="0.88" stop-color="#000400"/>
<stop offset="1"/>
</radialGradient>
<radialGradient id="paint30_radial_68_1189" cx="0" cy="0" r="1" gradientUnits="userSpaceOnUse" gradientTransform="translate(90.1863 199.381) rotate(2.32907) scale(8.16031 8.44646)">
<stop stop-color="#00FF00"/>
<stop offset="0.12" stop-color="#00C600"/>
<stop offset="0.24" stop-color="#009200"/>
<stop offset="0.37" stop-color="#006500"/>
<stop offset="0.5" stop-color="#004000"/>
<stop offset="0.62" stop-color="#002400"/>
<stop offset="0.75" stop-color="#001000"/>
<stop offset="0.88" stop-color="#000400"/>
<stop offset="1"/>
</radialGradient>
<radialGradient id="paint31_radial_68_1189" cx="0" cy="0" r="1" gradientUnits="userSpaceOnUse" gradientTransform="translate(228.554 252.032) rotate(2.32907) scale(8.16031 8.44647)">
<stop stop-color="#00FF00"/>
<stop offset="0.12" stop-color="#00C600"/>
<stop offset="0.24" stop-color="#009200"/>
<stop offset="0.37" stop-color="#006500"/>
<stop offset="0.5" stop-color="#004000"/>
<stop offset="0.62" stop-color="#002400"/>
<stop offset="0.75" stop-color="#001000"/>
<stop offset="0.88" stop-color="#000400"/>
<stop offset="1"/>
</radialGradient>
<radialGradient id="paint32_radial_68_1189" cx="0" cy="0" r="1" gradientUnits="userSpaceOnUse" gradientTransform="translate(109.204 395.32) rotate(2.32907) scale(8.16032 8.44646)">
<stop stop-color="#00FF00"/>
<stop offset="0.12" stop-color="#00C600"/>
<stop offset="0.24" stop-color="#009200"/>
<stop offset="0.37" stop-color="#006500"/>
<stop offset="0.5" stop-color="#004000"/>
<stop offset="0.62" stop-color="#002400"/>
<stop offset="0.75" stop-color="#001000"/>
<stop offset="0.88" stop-color="#000400"/>
<stop offset="1"/>
</radialGradient>
<radialGradient id="paint33_radial_68_1189" cx="0" cy="0" r="1" gradientUnits="userSpaceOnUse" gradientTransform="translate(281.4 477.07) rotate(2.32907) scale(8.16032 8.44647)">
<stop stop-color="#00FF00"/>
<stop offset="0.12" stop-color="#00C600"/>
<stop offset="0.24" stop-color="#009200"/>
<stop offset="0.37" stop-color="#006500"/>
<stop offset="0.5" stop-color="#004000"/>
<stop offset="0.62" stop-color="#002400"/>
<stop offset="0.75" stop-color="#001000"/>
<stop offset="0.88" stop-color="#000400"/>
<stop offset="1"/>
</radialGradient>
<radialGradient id="paint34_radial_68_1189" cx="0" cy="0" r="1" gradientUnits="userSpaceOnUse" gradientTransform="translate(297.497 519.976) rotate(2.32907) scale(8.16032 8.44647)">
<stop stop-color="#00FF00"/>
<stop offset="0.12" stop-color="#00C600"/>
<stop offset="0.24" stop-color="#009200"/>
<stop offset="0.37" stop-color="#006500"/>
<stop offset="0.5" stop-color="#004000"/>
<stop offset="0.62" stop-color="#002400"/>
<stop offset="0.75" stop-color="#001000"/>
<stop offset="0.88" stop-color="#000400"/>
<stop offset="1"/>
</radialGradient>
<radialGradient id="paint35_radial_68_1189" cx="0" cy="0" r="1" gradientUnits="userSpaceOnUse" gradientTransform="translate(39.236 501.141) rotate(2.32907) scale(8.16032 8.44647)">
<stop stop-color="#00FF00"/>
<stop offset="0.12" stop-color="#00C600"/>
<stop offset="0.24" stop-color="#009200"/>
<stop offset="0.37" stop-color="#006500"/>
<stop offset="0.5" stop-color="#004000"/>
<stop offset="0.62" stop-color="#002400"/>
<stop offset="0.75" stop-color="#001000"/>
<stop offset="0.88" stop-color="#000400"/>
<stop offset="1"/>
</radialGradient>
<radialGradient id="paint36_radial_68_1189" cx="0" cy="0" r="1" gradientUnits="userSpaceOnUse" gradientTransform="translate(65.3333 182.552) rotate(2.32907) scale(8.16032 8.44646)">
<stop stop-color="#00FF00"/>
<stop offset="0.12" stop-color="#00C600"/>
<stop offset="0.24" stop-color="#009200"/>
<stop offset="0.37" stop-color="#006500"/>
<stop offset="0.5" stop-color="#004000"/>
<stop offset="0.62" stop-color="#002400"/>
<stop offset="0.75" stop-color="#001000"/>
<stop offset="0.88" stop-color="#000400"/>
<stop offset="1"/>
</radialGradient>
<radialGradient id="paint37_radial_68_1189" cx="0" cy="0" r="1" gradientUnits="userSpaceOnUse" gradientTransform="translate(67.6643 378.473) rotate(2.32907) scale(8.16031 8.44647)">
<stop stop-color="#00FF00"/>
<stop offset="0.12" stop-color="#00C600"/>
<stop offset="0.24" stop-color="#009200"/>
<stop offset="0.37" stop-color="#006500"/>
<stop offset="0.5" stop-color="#004000"/>
<stop offset="0.62" stop-color="#002400"/>
<stop offset="0.75" stop-color="#001000"/>
<stop offset="0.88" stop-color="#000400"/>
<stop offset="1"/>
</radialGradient>
<radialGradient id="paint38_radial_68_1189" cx="0" cy="0" r="1" gradientUnits="userSpaceOnUse" gradientTransform="translate(157.913 438.433) rotate(2.32907) scale(8.16032 8.44647)">
<stop stop-color="#00FF00"/>
<stop offset="0.12" stop-color="#00C600"/>
<stop offset="0.24" stop-color="#009200"/>
<stop offset="0.37" stop-color="#006500"/>
<stop offset="0.5" stop-color="#004000"/>
<stop offset="0.62" stop-color="#002400"/>
<stop offset="0.75" stop-color="#001000"/>
<stop offset="0.88" stop-color="#000400"/>
<stop offset="1"/>
</radialGradient>
<radialGradient id="paint39_radial_68_1189" cx="0" cy="0" r="1" gradientUnits="userSpaceOnUse" gradientTransform="translate(80.4503 96.2545) rotate(2.32907) scale(8.16032 8.44646)">
<stop stop-color="#00FF00"/>
<stop offset="0.12" stop-color="#00C600"/>
<stop offset="0.24" stop-color="#009200"/>
<stop offset="0.37" stop-color="#006500"/>
<stop offset="0.5" stop-color="#004000"/>
<stop offset="0.62" stop-color="#002400"/>
<stop offset="0.75" stop-color="#001000"/>
<stop offset="0.88" stop-color="#000400"/>
<stop offset="1"/>
</radialGradient>
<radialGradient id="paint40_radial_68_1189" cx="0" cy="0" r="1" gradientUnits="userSpaceOnUse" gradientTransform="translate(38.9107 79.4073) rotate(2.32907) scale(8.16032 8.44646)">
<stop stop-color="#00FF00"/>
<stop offset="0.12" stop-color="#00C600"/>
<stop offset="0.24" stop-color="#009200"/>
<stop offset="0.37" stop-color="#006500"/>
<stop offset="0.5" stop-color="#004000"/>
<stop offset="0.62" stop-color="#002400"/>
<stop offset="0.75" stop-color="#001000"/>
<stop offset="0.88" stop-color="#000400"/>
<stop offset="1"/>
</radialGradient>
<radialGradient id="paint41_radial_68_1189" cx="0" cy="0" r="1" gradientUnits="userSpaceOnUse" gradientTransform="translate(129.16 139.368) rotate(2.32907) scale(8.16031 8.44646)">
<stop stop-color="#00FF00"/>
<stop offset="0.12" stop-color="#00C600"/>
<stop offset="0.24" stop-color="#009200"/>
<stop offset="0.37" stop-color="#006500"/>
<stop offset="0.5" stop-color="#004000"/>
<stop offset="0.62" stop-color="#002400"/>
<stop offset="0.75" stop-color="#001000"/>
<stop offset="0.88" stop-color="#000400"/>
<stop offset="1"/>
</radialGradient>
<radialGradient id="paint42_radial_68_1189" cx="0" cy="0" r="1" gradientUnits="userSpaceOnUse" gradientTransform="translate(41.8165 153.182) rotate(2.32907) scale(8.16032 8.44646)">
<stop stop-color="#00FF00"/>
<stop offset="0.12" stop-color="#00C600"/>
<stop offset="0.24" stop-color="#009200"/>
<stop offset="0.37" stop-color="#006500"/>
<stop offset="0.5" stop-color="#004000"/>
<stop offset="0.62" stop-color="#002400"/>
<stop offset="0.75" stop-color="#001000"/>
<stop offset="0.88" stop-color="#000400"/>
<stop offset="1"/>
</radialGradient>
<radialGradient id="paint43_radial_68_1189" cx="0" cy="0" r="1" gradientUnits="userSpaceOnUse" gradientTransform="translate(246.983 463.488) rotate(2.32907) scale(8.16031 8.44647)">
<stop stop-color="#00FF00"/>
<stop offset="0.12" stop-color="#00C600"/>
<stop offset="0.24" stop-color="#009200"/>
<stop offset="0.37" stop-color="#006500"/>
<stop offset="0.5" stop-color="#004000"/>
<stop offset="0.62" stop-color="#002400"/>
<stop offset="0.75" stop-color="#001000"/>
<stop offset="0.88" stop-color="#000400"/>
<stop offset="1"/>
</radialGradient>
<radialGradient id="paint44_radial_68_1189" cx="0" cy="0" r="1" gradientUnits="userSpaceOnUse" gradientTransform="translate(230.378 571.036) rotate(2.32907) scale(8.16031 8.44645)">
<stop stop-color="#00FF00"/>
<stop offset="0.12" stop-color="#00C600"/>
<stop offset="0.24" stop-color="#009200"/>
<stop offset="0.37" stop-color="#006500"/>
<stop offset="0.5" stop-color="#004000"/>
<stop offset="0.62" stop-color="#002400"/>
<stop offset="0.75" stop-color="#001000"/>
<stop offset="0.88" stop-color="#000400"/>
<stop offset="1"/>
</radialGradient>
<radialGradient id="paint45_radial_68_1189" cx="0" cy="0" r="1" gradientUnits="userSpaceOnUse" gradientTransform="translate(57.1896 517.781) rotate(2.32906) scale(8.16032 8.44645)">
<stop stop-color="#00FF00"/>
<stop offset="0.12" stop-color="#00C600"/>
<stop offset="0.24" stop-color="#009200"/>
<stop offset="0.37" stop-color="#006500"/>
<stop offset="0.5" stop-color="#004000"/>
<stop offset="0.62" stop-color="#002400"/>
<stop offset="0.75" stop-color="#001000"/>
<stop offset="0.88" stop-color="#000400"/>
<stop offset="1"/>
</radialGradient>
<radialGradient id="paint46_radial_68_1189" cx="0" cy="0" r="1" gradientUnits="userSpaceOnUse" gradientTransform="translate(159.017 560.079) rotate(2.32907) scale(8.16032 8.44647)">
<stop stop-color="#00FF00"/>
<stop offset="0.12" stop-color="#00C600"/>
<stop offset="0.24" stop-color="#009200"/>
<stop offset="0.37" stop-color="#006500"/>
<stop offset="0.5" stop-color="#004000"/>
<stop offset="0.62" stop-color="#002400"/>
<stop offset="0.75" stop-color="#001000"/>
<stop offset="0.88" stop-color="#000400"/>
<stop offset="1"/>
</radialGradient>
</defs>
</svg>
